%FSLAX34Y34*%
G04 Gerber Fmt 3.4, Leading zero omitted, Abs format*
G04 (created by PCBNEW (2014-03-01 BZR 4730)-product) date Tuesday, August 26, 2014 'AMt' 09:20:28 AM*
%MOIN*%
G01*
G70*
G90*
G04 APERTURE LIST*
%ADD10C,0.006000*%
%ADD11C,0.011811*%
%ADD12C,0.220472*%
%ADD13C,0.023622*%
%ADD14C,0.055118*%
%ADD15C,0.082677*%
%ADD16C,0.027500*%
%ADD17C,0.007874*%
G04 APERTURE END LIST*
G54D10*
G54D11*
X29645Y-65582D02*
X30011Y-65582D01*
X29814Y-65807D01*
X29898Y-65807D01*
X29955Y-65835D01*
X29983Y-65863D01*
X30011Y-65919D01*
X30011Y-66060D01*
X29983Y-66116D01*
X29955Y-66144D01*
X29898Y-66172D01*
X29730Y-66172D01*
X29673Y-66144D01*
X29645Y-66116D01*
G54D12*
X49606Y-40944D03*
G54D13*
X49606Y-40078D03*
X48740Y-40944D03*
X49606Y-41811D03*
X50472Y-40944D03*
X50216Y-40334D03*
X48996Y-40334D03*
X48996Y-41555D03*
X50216Y-41555D03*
G54D12*
X69291Y-40944D03*
G54D13*
X69291Y-40078D03*
X68425Y-40944D03*
X69291Y-41811D03*
X70157Y-40944D03*
X69901Y-40334D03*
X68681Y-40334D03*
X68681Y-41555D03*
X69901Y-41555D03*
G54D12*
X69291Y-67322D03*
G54D13*
X69291Y-66456D03*
X68425Y-67322D03*
X69291Y-68188D03*
X70157Y-67322D03*
X69901Y-66712D03*
X68681Y-66712D03*
X68681Y-67933D03*
X69901Y-67933D03*
G54D12*
X25196Y-67322D03*
G54D13*
X25196Y-66456D03*
X24330Y-67322D03*
X25196Y-68188D03*
X26062Y-67322D03*
X25807Y-66712D03*
X24586Y-66712D03*
X24586Y-67933D03*
X25807Y-67933D03*
G54D12*
X25196Y-40944D03*
G54D13*
X25196Y-40078D03*
X24330Y-40944D03*
X25196Y-41811D03*
X26062Y-40944D03*
X25807Y-40334D03*
X24586Y-40334D03*
X24586Y-41555D03*
X25807Y-41555D03*
G54D14*
X57901Y-42677D03*
X56901Y-42677D03*
G54D15*
X55492Y-56711D03*
X60648Y-51555D03*
X58507Y-54570D03*
X55492Y-51555D03*
X56651Y-47775D03*
X64017Y-51082D03*
X64401Y-55414D03*
X59490Y-60492D03*
X52124Y-57185D03*
G54D16*
X35669Y-52204D03*
X36220Y-49488D03*
X35669Y-49960D03*
X35669Y-49015D03*
X35669Y-55866D03*
X36220Y-55393D03*
X35669Y-54921D03*
X37677Y-57204D03*
X37677Y-56811D03*
X38188Y-49763D03*
X33129Y-50964D03*
X38188Y-55118D03*
X38818Y-55118D03*
X49704Y-61811D03*
X50551Y-61397D03*
X49704Y-60984D03*
X68700Y-60826D03*
X69566Y-60393D03*
X68700Y-59960D03*
X61574Y-63818D03*
X60669Y-63818D03*
X61102Y-62952D03*
X33129Y-57775D03*
X25590Y-45433D03*
X24842Y-45433D03*
X38976Y-47755D03*
X38425Y-48228D03*
X38425Y-47283D03*
X39133Y-58858D03*
X40393Y-57952D03*
X39921Y-57440D03*
X48858Y-63031D03*
X49409Y-62559D03*
X48858Y-62086D03*
X29763Y-48976D03*
X29763Y-48031D03*
X65039Y-60000D03*
X65511Y-60551D03*
X64566Y-60551D03*
X60275Y-62125D03*
X60866Y-61614D03*
X60866Y-62637D03*
X41259Y-52047D03*
X28228Y-48661D03*
X28228Y-48031D03*
X27913Y-48346D03*
X29212Y-48503D03*
X37795Y-49763D03*
X33129Y-57381D03*
X53937Y-48031D03*
X53385Y-47559D03*
X52362Y-46850D03*
X56062Y-46850D03*
X56456Y-46141D03*
X57401Y-46141D03*
X56456Y-43622D03*
X57401Y-43622D03*
X55669Y-42913D03*
X51732Y-46141D03*
X50787Y-46141D03*
X51259Y-46692D03*
X53976Y-46850D03*
X55511Y-44094D03*
X52125Y-46259D03*
X56062Y-46259D03*
X57913Y-61614D03*
X55118Y-44094D03*
X55236Y-45669D03*
X58464Y-61614D03*
X59645Y-61614D03*
X55236Y-46968D03*
X55236Y-47362D03*
X59094Y-61614D03*
X54763Y-44094D03*
X54645Y-65669D03*
X54251Y-44448D03*
X54645Y-66062D03*
X51535Y-52401D03*
X51535Y-48503D03*
X37401Y-49527D03*
X37244Y-56220D03*
X37559Y-55511D03*
X39212Y-55511D03*
X46377Y-53385D03*
X46692Y-57401D03*
X46062Y-52440D03*
X46692Y-58385D03*
X52362Y-59448D03*
X46338Y-58543D03*
X29881Y-43622D03*
X50551Y-60393D03*
X48740Y-56377D03*
X26299Y-45826D03*
X26299Y-45039D03*
X48858Y-57401D03*
X48818Y-58385D03*
X26299Y-46614D03*
X26299Y-47007D03*
X48385Y-59370D03*
X50551Y-59370D03*
X26299Y-44251D03*
X26299Y-44645D03*
X48622Y-60196D03*
X43700Y-50629D03*
X36771Y-50472D03*
X36535Y-50157D03*
X43385Y-50314D03*
X44015Y-50944D03*
X36771Y-50866D03*
X43070Y-50000D03*
X36771Y-49842D03*
X47539Y-61811D03*
X46692Y-61397D03*
X47539Y-60984D03*
X46692Y-56397D03*
X68700Y-55826D03*
X69566Y-55393D03*
X67834Y-55393D03*
X68700Y-54881D03*
X68700Y-53976D03*
X69566Y-54409D03*
X67834Y-54409D03*
X68700Y-52834D03*
X69566Y-52401D03*
X68700Y-51968D03*
X57677Y-65984D03*
X58110Y-65118D03*
X58543Y-65984D03*
X65118Y-66850D03*
X65551Y-65984D03*
X64685Y-65984D03*
X61692Y-65984D03*
X62559Y-65984D03*
X62125Y-65118D03*
X37244Y-59094D03*
X36515Y-59133D03*
X36102Y-58799D03*
X36515Y-58464D03*
X29881Y-47401D03*
X29881Y-46181D03*
X29881Y-43188D03*
X29527Y-42755D03*
X24645Y-46102D03*
X25590Y-46220D03*
X24645Y-46732D03*
X24645Y-44527D03*
X35000Y-57952D03*
X27263Y-48129D03*
X27263Y-49311D03*
X27263Y-50492D03*
X27263Y-51673D03*
X24685Y-48267D03*
X25866Y-48267D03*
X35039Y-39862D03*
X32677Y-39862D03*
X42125Y-39862D03*
X44488Y-39862D03*
X45669Y-39862D03*
X46850Y-39862D03*
X48031Y-39862D03*
X48031Y-41043D03*
X48425Y-41929D03*
X49606Y-42519D03*
X50688Y-42027D03*
X51181Y-41043D03*
X51181Y-39862D03*
X52362Y-39862D03*
X53543Y-39862D03*
X54724Y-39862D03*
X55905Y-39862D03*
X57086Y-39862D03*
X58267Y-39862D03*
X59448Y-39862D03*
X60629Y-39862D03*
X61811Y-39862D03*
X62992Y-39862D03*
X64173Y-39862D03*
X65354Y-39862D03*
X66535Y-39862D03*
X70374Y-42519D03*
X67716Y-39862D03*
X67716Y-41043D03*
X68208Y-42027D03*
X69192Y-42519D03*
X26771Y-39862D03*
X24114Y-43110D03*
X24114Y-44291D03*
X24114Y-45472D03*
X24114Y-46653D03*
X25196Y-42519D03*
X26279Y-42027D03*
X26771Y-41043D03*
X27952Y-39862D03*
X29133Y-39862D03*
X30314Y-39862D03*
X31496Y-39862D03*
X36220Y-39862D03*
X37401Y-39862D03*
X40944Y-39862D03*
X39763Y-39862D03*
X38582Y-39862D03*
X70374Y-44881D03*
X70374Y-43700D03*
X27263Y-55216D03*
X27263Y-52854D03*
X26771Y-68405D03*
X24212Y-62401D03*
X24114Y-63385D03*
X24114Y-64566D03*
X24114Y-65748D03*
X25295Y-65748D03*
X26279Y-66240D03*
X26771Y-67224D03*
X29133Y-68405D03*
X27952Y-68405D03*
X27263Y-54133D03*
X27263Y-56397D03*
X27263Y-57578D03*
X27263Y-58759D03*
X27263Y-59940D03*
X27263Y-61122D03*
X27263Y-62303D03*
X26279Y-62303D03*
X25098Y-62303D03*
X66535Y-68405D03*
X65354Y-68405D03*
X64173Y-68405D03*
X62992Y-68405D03*
X61811Y-68405D03*
X60629Y-68405D03*
X59448Y-68405D03*
X58267Y-68405D03*
X57086Y-68405D03*
X55905Y-68405D03*
X54724Y-68405D03*
X53543Y-68405D03*
X52362Y-68405D03*
X51181Y-68405D03*
X50000Y-68405D03*
X48818Y-68405D03*
X47637Y-68405D03*
X46456Y-68405D03*
X45275Y-68405D03*
X44094Y-68405D03*
X42913Y-68405D03*
X41732Y-68405D03*
X40551Y-68405D03*
X39370Y-68405D03*
X38188Y-68405D03*
X37007Y-68405D03*
X35826Y-68405D03*
X34645Y-68405D03*
X33464Y-68405D03*
X32283Y-68405D03*
X31102Y-68405D03*
X67716Y-68405D03*
X29921Y-68405D03*
X70374Y-48031D03*
X70374Y-49212D03*
X70374Y-50393D03*
X70374Y-51574D03*
X70374Y-52755D03*
X70374Y-53937D03*
X70374Y-55118D03*
X70374Y-56299D03*
X70374Y-57480D03*
X70374Y-58661D03*
X70374Y-59842D03*
X70374Y-61023D03*
X70374Y-62204D03*
X70374Y-63385D03*
X70374Y-64566D03*
X70374Y-65748D03*
X69192Y-65748D03*
X68208Y-66240D03*
X67716Y-67224D03*
X34763Y-52204D03*
X37401Y-47755D03*
X37952Y-47283D03*
X37952Y-48228D03*
X38582Y-49094D03*
X38267Y-48818D03*
X37795Y-48818D03*
X34645Y-49488D03*
X35196Y-49960D03*
X35196Y-49015D03*
X35196Y-54921D03*
X34645Y-55393D03*
X35196Y-55866D03*
X39921Y-58937D03*
X40393Y-58425D03*
X39173Y-57204D03*
X39173Y-56811D03*
X42204Y-52047D03*
X41889Y-52362D03*
X47834Y-62559D03*
X48385Y-62086D03*
X48385Y-63031D03*
X67480Y-62598D03*
X68031Y-63070D03*
X68031Y-62125D03*
X52362Y-48031D03*
X52913Y-47559D03*
X52755Y-46850D03*
X55669Y-46850D03*
X56456Y-45669D03*
X57401Y-45669D03*
X57401Y-44094D03*
X56456Y-44094D03*
X56062Y-42913D03*
X54409Y-41889D03*
X54094Y-42362D03*
X53779Y-42598D03*
X51653Y-42519D03*
X51968Y-42755D03*
X51889Y-41574D03*
X45590Y-44960D03*
X44094Y-44960D03*
X44094Y-43779D03*
X45590Y-43779D03*
X36535Y-43937D03*
X36535Y-46141D03*
X30236Y-48976D03*
X30787Y-48503D03*
X30236Y-48031D03*
X28582Y-48661D03*
X28582Y-48031D03*
X35039Y-41653D03*
X35511Y-41259D03*
X44566Y-41259D03*
X44094Y-40866D03*
X35039Y-40866D03*
X50787Y-45669D03*
X51732Y-45669D03*
X44094Y-41653D03*
X32421Y-61968D03*
X65039Y-61574D03*
X65511Y-61023D03*
X64566Y-61023D03*
X61338Y-61614D03*
X61889Y-62125D03*
X61338Y-62637D03*
X68503Y-47480D03*
X66535Y-48110D03*
X66929Y-47677D03*
X52125Y-43503D03*
X63385Y-42283D03*
X64094Y-42283D03*
X66929Y-49251D03*
X66535Y-48818D03*
X32362Y-50137D03*
X32834Y-50137D03*
X33188Y-49625D03*
X32893Y-49094D03*
X31850Y-49468D03*
X32362Y-48799D03*
X32834Y-58129D03*
X31850Y-58799D03*
X32362Y-58129D03*
X32362Y-59468D03*
X32893Y-59173D03*
X33188Y-58641D03*
X32421Y-64015D03*
X31574Y-62992D03*
X33267Y-62992D03*
X64094Y-48267D03*
X63385Y-48267D03*
X62992Y-47874D03*
X62992Y-42677D03*
X64488Y-42677D03*
X68503Y-48267D03*
X68110Y-47874D03*
X39055Y-59291D03*
X38582Y-58188D03*
X38582Y-58661D03*
X38582Y-57716D03*
X53543Y-46850D03*
X53188Y-46850D03*
X54094Y-44094D03*
X56062Y-43503D03*
X38425Y-52283D03*
X38425Y-53149D03*
X39291Y-52283D03*
X37559Y-52283D03*
X38425Y-51417D03*
X39291Y-53149D03*
X37559Y-53149D03*
X39291Y-51417D03*
X37559Y-51417D03*
X34035Y-56456D03*
X33129Y-56397D03*
X34035Y-55019D03*
X33129Y-54822D03*
X33129Y-51397D03*
X34035Y-57578D03*
X34035Y-55807D03*
X34035Y-55413D03*
X33129Y-56003D03*
X33129Y-55610D03*
X33129Y-55216D03*
X38188Y-56062D03*
X38818Y-56062D03*
G54D10*
G36*
X70673Y-67303D02*
X70564Y-67850D01*
X70517Y-67920D01*
X70517Y-67108D01*
X70517Y-40730D01*
X70341Y-40277D01*
X70309Y-40229D01*
X70164Y-40099D01*
X70136Y-40127D01*
X70136Y-40072D01*
X70006Y-39926D01*
X69562Y-39730D01*
X69077Y-39719D01*
X68624Y-39894D01*
X68575Y-39926D01*
X68446Y-40072D01*
X68546Y-40171D01*
X68681Y-40306D01*
X68708Y-40334D01*
X68843Y-40469D01*
X69291Y-40917D01*
X69738Y-40469D01*
X69873Y-40334D01*
X69901Y-40306D01*
X70036Y-40171D01*
X70136Y-40072D01*
X70136Y-40127D01*
X70064Y-40199D01*
X69929Y-40334D01*
X69901Y-40362D01*
X69766Y-40497D01*
X69319Y-40944D01*
X69766Y-41392D01*
X69901Y-41527D01*
X69929Y-41555D01*
X70064Y-41689D01*
X70164Y-41789D01*
X70309Y-41660D01*
X70505Y-41216D01*
X70517Y-40730D01*
X70517Y-67108D01*
X70341Y-66655D01*
X70309Y-66607D01*
X70164Y-66477D01*
X70136Y-66505D01*
X70136Y-66449D01*
X70136Y-41817D01*
X70036Y-41717D01*
X69901Y-41582D01*
X69873Y-41555D01*
X69738Y-41420D01*
X69291Y-40972D01*
X69263Y-41000D01*
X69263Y-40944D01*
X68815Y-40497D01*
X68681Y-40362D01*
X68653Y-40334D01*
X68518Y-40199D01*
X68418Y-40099D01*
X68273Y-40229D01*
X68076Y-40673D01*
X68065Y-41158D01*
X68240Y-41611D01*
X68273Y-41660D01*
X68418Y-41789D01*
X68518Y-41689D01*
X68653Y-41555D01*
X68681Y-41527D01*
X68815Y-41392D01*
X69263Y-40944D01*
X69263Y-41000D01*
X68843Y-41420D01*
X68708Y-41555D01*
X68681Y-41582D01*
X68546Y-41717D01*
X68446Y-41817D01*
X68575Y-41963D01*
X69020Y-42159D01*
X69505Y-42170D01*
X69958Y-41995D01*
X70006Y-41963D01*
X70136Y-41817D01*
X70136Y-66449D01*
X70006Y-66304D01*
X69822Y-66223D01*
X69822Y-60343D01*
X69783Y-60249D01*
X69711Y-60177D01*
X69617Y-60138D01*
X69516Y-60138D01*
X69422Y-60176D01*
X69350Y-60248D01*
X69311Y-60342D01*
X69311Y-60444D01*
X69350Y-60538D01*
X69421Y-60610D01*
X69515Y-60649D01*
X69617Y-60649D01*
X69711Y-60610D01*
X69783Y-60538D01*
X69822Y-60444D01*
X69822Y-60343D01*
X69822Y-66223D01*
X69562Y-66108D01*
X69271Y-66101D01*
X69271Y-45091D01*
X69191Y-44896D01*
X69041Y-44746D01*
X68846Y-44665D01*
X68634Y-44665D01*
X68439Y-44746D01*
X68289Y-44895D01*
X68208Y-45090D01*
X68208Y-45302D01*
X68289Y-45497D01*
X68438Y-45647D01*
X68633Y-45728D01*
X68845Y-45728D01*
X69040Y-45647D01*
X69190Y-45498D01*
X69271Y-45303D01*
X69271Y-45091D01*
X69271Y-66101D01*
X69077Y-66097D01*
X68956Y-66143D01*
X68956Y-60776D01*
X68956Y-59910D01*
X68917Y-59816D01*
X68845Y-59744D01*
X68751Y-59705D01*
X68650Y-59704D01*
X68556Y-59743D01*
X68484Y-59815D01*
X68445Y-59909D01*
X68445Y-60011D01*
X68483Y-60105D01*
X68555Y-60177D01*
X68649Y-60216D01*
X68751Y-60216D01*
X68845Y-60177D01*
X68917Y-60105D01*
X68956Y-60011D01*
X68956Y-59910D01*
X68956Y-60776D01*
X68917Y-60682D01*
X68845Y-60610D01*
X68751Y-60571D01*
X68650Y-60571D01*
X68556Y-60609D01*
X68484Y-60681D01*
X68445Y-60775D01*
X68445Y-60877D01*
X68483Y-60971D01*
X68555Y-61043D01*
X68649Y-61082D01*
X68751Y-61082D01*
X68845Y-61043D01*
X68917Y-60971D01*
X68956Y-60877D01*
X68956Y-60776D01*
X68956Y-66143D01*
X68624Y-66272D01*
X68575Y-66304D01*
X68446Y-66449D01*
X68546Y-66549D01*
X68681Y-66684D01*
X68708Y-66712D01*
X68708Y-66712D01*
X68843Y-66847D01*
X69291Y-67294D01*
X69738Y-66847D01*
X69738Y-66847D01*
X69873Y-66712D01*
X69901Y-66684D01*
X70036Y-66549D01*
X70136Y-66449D01*
X70136Y-66505D01*
X70064Y-66577D01*
X69929Y-66712D01*
X69901Y-66740D01*
X69766Y-66875D01*
X69319Y-67322D01*
X69766Y-67770D01*
X69901Y-67905D01*
X69929Y-67933D01*
X69929Y-67933D01*
X70064Y-68067D01*
X70164Y-68167D01*
X70309Y-68038D01*
X70505Y-67594D01*
X70517Y-67108D01*
X70517Y-67920D01*
X70265Y-68297D01*
X70136Y-68383D01*
X70136Y-68195D01*
X70036Y-68095D01*
X69901Y-67960D01*
X69901Y-67960D01*
X69873Y-67933D01*
X69738Y-67798D01*
X69291Y-67350D01*
X69263Y-67378D01*
X69263Y-67322D01*
X68815Y-66875D01*
X68681Y-66740D01*
X68681Y-66740D01*
X68653Y-66712D01*
X68518Y-66577D01*
X68418Y-66477D01*
X68273Y-66607D01*
X68173Y-66833D01*
X68173Y-60788D01*
X68173Y-51788D01*
X68089Y-51585D01*
X67934Y-51430D01*
X67732Y-51346D01*
X67512Y-51346D01*
X67310Y-51430D01*
X67155Y-51585D01*
X67070Y-51787D01*
X67070Y-52006D01*
X67154Y-52209D01*
X67309Y-52364D01*
X67511Y-52448D01*
X67731Y-52448D01*
X67933Y-52365D01*
X68089Y-52210D01*
X68173Y-52007D01*
X68173Y-51788D01*
X68173Y-60788D01*
X68089Y-60585D01*
X67934Y-60430D01*
X67732Y-60346D01*
X67512Y-60346D01*
X67310Y-60430D01*
X67155Y-60585D01*
X67070Y-60787D01*
X67070Y-61006D01*
X67154Y-61209D01*
X67309Y-61364D01*
X67511Y-61448D01*
X67731Y-61448D01*
X67933Y-61365D01*
X68089Y-61210D01*
X68173Y-61007D01*
X68173Y-60788D01*
X68173Y-66833D01*
X68076Y-67051D01*
X68065Y-67536D01*
X68240Y-67989D01*
X68273Y-68038D01*
X68418Y-68167D01*
X68518Y-68067D01*
X68518Y-68067D01*
X68653Y-67933D01*
X68681Y-67905D01*
X68815Y-67770D01*
X69263Y-67322D01*
X69263Y-67378D01*
X68843Y-67798D01*
X68708Y-67933D01*
X68681Y-67960D01*
X68546Y-68095D01*
X68446Y-68195D01*
X68575Y-68341D01*
X69020Y-68537D01*
X69505Y-68548D01*
X69958Y-68373D01*
X70006Y-68341D01*
X70136Y-68195D01*
X70136Y-68383D01*
X69818Y-68595D01*
X69272Y-68704D01*
X66515Y-68704D01*
X66515Y-45091D01*
X66435Y-44896D01*
X66285Y-44746D01*
X66090Y-44665D01*
X65878Y-44665D01*
X65683Y-44746D01*
X65533Y-44895D01*
X65452Y-45090D01*
X65452Y-45302D01*
X65533Y-45497D01*
X65682Y-45647D01*
X65878Y-45728D01*
X66089Y-45728D01*
X66284Y-45647D01*
X66434Y-45498D01*
X66515Y-45303D01*
X66515Y-45091D01*
X66515Y-68704D01*
X66173Y-68704D01*
X66173Y-64788D01*
X66089Y-64585D01*
X65934Y-64430D01*
X65767Y-64361D01*
X65767Y-60500D01*
X65728Y-60406D01*
X65656Y-60334D01*
X65562Y-60295D01*
X65461Y-60295D01*
X65367Y-60334D01*
X65295Y-60406D01*
X65295Y-60406D01*
X65295Y-59949D01*
X65256Y-59855D01*
X65184Y-59783D01*
X65090Y-59744D01*
X64988Y-59744D01*
X64933Y-59767D01*
X64933Y-55310D01*
X64853Y-55114D01*
X64851Y-55112D01*
X64777Y-55066D01*
X64749Y-55094D01*
X64749Y-55038D01*
X64703Y-54964D01*
X64548Y-54900D01*
X64548Y-50977D01*
X64468Y-50782D01*
X64318Y-50632D01*
X64123Y-50551D01*
X63912Y-50551D01*
X63716Y-50631D01*
X63567Y-50781D01*
X63485Y-50976D01*
X63485Y-51187D01*
X63566Y-51383D01*
X63715Y-51532D01*
X63911Y-51614D01*
X64122Y-51614D01*
X64317Y-51533D01*
X64467Y-51384D01*
X64548Y-51188D01*
X64548Y-50977D01*
X64548Y-54900D01*
X64508Y-54883D01*
X64297Y-54882D01*
X64101Y-54963D01*
X64099Y-54964D01*
X64053Y-55038D01*
X64401Y-55386D01*
X64749Y-55038D01*
X64749Y-55094D01*
X64429Y-55414D01*
X64777Y-55762D01*
X64851Y-55716D01*
X64932Y-55521D01*
X64933Y-55310D01*
X64933Y-59767D01*
X64894Y-59783D01*
X64822Y-59855D01*
X64783Y-59948D01*
X64783Y-60050D01*
X64822Y-60144D01*
X64894Y-60216D01*
X64988Y-60255D01*
X65089Y-60255D01*
X65183Y-60216D01*
X65255Y-60144D01*
X65294Y-60051D01*
X65295Y-59949D01*
X65295Y-60406D01*
X65256Y-60500D01*
X65256Y-60601D01*
X65294Y-60695D01*
X65366Y-60767D01*
X65460Y-60806D01*
X65562Y-60806D01*
X65656Y-60768D01*
X65728Y-60696D01*
X65767Y-60602D01*
X65767Y-60500D01*
X65767Y-64361D01*
X65732Y-64346D01*
X65512Y-64346D01*
X65310Y-64430D01*
X65155Y-64585D01*
X65070Y-64787D01*
X65070Y-65006D01*
X65154Y-65209D01*
X65309Y-65364D01*
X65511Y-65448D01*
X65731Y-65448D01*
X65933Y-65365D01*
X66089Y-65210D01*
X66173Y-65007D01*
X66173Y-64788D01*
X66173Y-68704D01*
X64822Y-68704D01*
X64822Y-60500D01*
X64783Y-60406D01*
X64749Y-60372D01*
X64749Y-55790D01*
X64401Y-55442D01*
X64373Y-55470D01*
X64373Y-55414D01*
X64025Y-55066D01*
X63951Y-55112D01*
X63870Y-55307D01*
X63869Y-55518D01*
X63950Y-55714D01*
X63951Y-55716D01*
X64025Y-55762D01*
X64373Y-55414D01*
X64373Y-55470D01*
X64053Y-55790D01*
X64099Y-55864D01*
X64294Y-55945D01*
X64505Y-55946D01*
X64701Y-55866D01*
X64703Y-55864D01*
X64749Y-55790D01*
X64749Y-60372D01*
X64711Y-60334D01*
X64617Y-60295D01*
X64516Y-60295D01*
X64422Y-60334D01*
X64350Y-60406D01*
X64311Y-60500D01*
X64311Y-60601D01*
X64350Y-60695D01*
X64421Y-60767D01*
X64515Y-60806D01*
X64617Y-60806D01*
X64711Y-60768D01*
X64783Y-60696D01*
X64822Y-60602D01*
X64822Y-60500D01*
X64822Y-68704D01*
X63231Y-68704D01*
X63231Y-58114D01*
X63231Y-49762D01*
X63081Y-49401D01*
X62805Y-49123D01*
X62443Y-48973D01*
X62051Y-48973D01*
X61690Y-49122D01*
X61412Y-49399D01*
X61262Y-49761D01*
X61262Y-50152D01*
X61411Y-50514D01*
X61688Y-50791D01*
X62050Y-50941D01*
X62441Y-50942D01*
X62803Y-50792D01*
X63080Y-50516D01*
X63230Y-50154D01*
X63231Y-49762D01*
X63231Y-58114D01*
X63081Y-57753D01*
X62805Y-57475D01*
X62443Y-57325D01*
X62051Y-57325D01*
X61690Y-57474D01*
X61412Y-57751D01*
X61262Y-58113D01*
X61262Y-58504D01*
X61411Y-58866D01*
X61688Y-59143D01*
X62050Y-59293D01*
X62441Y-59294D01*
X62803Y-59144D01*
X63080Y-58868D01*
X63230Y-58506D01*
X63231Y-58114D01*
X63231Y-68704D01*
X61830Y-68704D01*
X61830Y-63768D01*
X61791Y-63674D01*
X61719Y-63602D01*
X61625Y-63563D01*
X61524Y-63563D01*
X61430Y-63602D01*
X61358Y-63673D01*
X61358Y-63674D01*
X61358Y-62902D01*
X61319Y-62808D01*
X61247Y-62736D01*
X61180Y-62708D01*
X61180Y-51450D01*
X61099Y-51255D01*
X60950Y-51105D01*
X60755Y-51024D01*
X60543Y-51024D01*
X60348Y-51105D01*
X60198Y-51254D01*
X60117Y-51449D01*
X60117Y-51661D01*
X60197Y-51856D01*
X60347Y-52006D01*
X60542Y-52087D01*
X60754Y-52087D01*
X60949Y-52006D01*
X61099Y-51857D01*
X61180Y-51662D01*
X61180Y-51450D01*
X61180Y-62708D01*
X61153Y-62697D01*
X61118Y-62697D01*
X61121Y-62688D01*
X61121Y-62587D01*
X61121Y-61563D01*
X61082Y-61469D01*
X61011Y-61397D01*
X60917Y-61358D01*
X60815Y-61358D01*
X60721Y-61397D01*
X60649Y-61469D01*
X60610Y-61563D01*
X60610Y-61664D01*
X60649Y-61758D01*
X60721Y-61830D01*
X60815Y-61869D01*
X60916Y-61869D01*
X61010Y-61830D01*
X61082Y-61759D01*
X61121Y-61665D01*
X61121Y-61563D01*
X61121Y-62587D01*
X61082Y-62493D01*
X61011Y-62421D01*
X60917Y-62382D01*
X60815Y-62382D01*
X60721Y-62420D01*
X60649Y-62492D01*
X60610Y-62586D01*
X60610Y-62688D01*
X60649Y-62782D01*
X60721Y-62854D01*
X60815Y-62893D01*
X60850Y-62893D01*
X60846Y-62901D01*
X60846Y-63003D01*
X60885Y-63097D01*
X60957Y-63169D01*
X61051Y-63208D01*
X61152Y-63208D01*
X61246Y-63169D01*
X61318Y-63097D01*
X61357Y-63003D01*
X61358Y-62902D01*
X61358Y-63674D01*
X61319Y-63767D01*
X61319Y-63869D01*
X61357Y-63963D01*
X61429Y-64035D01*
X61523Y-64074D01*
X61625Y-64074D01*
X61719Y-64035D01*
X61791Y-63963D01*
X61830Y-63869D01*
X61830Y-63768D01*
X61830Y-68704D01*
X60924Y-68704D01*
X60924Y-63768D01*
X60886Y-63674D01*
X60814Y-63602D01*
X60720Y-63563D01*
X60618Y-63563D01*
X60531Y-63599D01*
X60531Y-62075D01*
X60492Y-61981D01*
X60420Y-61909D01*
X60326Y-61870D01*
X60224Y-61870D01*
X60130Y-61909D01*
X60059Y-61981D01*
X60022Y-62069D01*
X60022Y-60386D01*
X59941Y-60191D01*
X59835Y-60085D01*
X59835Y-52779D01*
X59757Y-52591D01*
X59613Y-52447D01*
X59425Y-52369D01*
X59222Y-52369D01*
X59034Y-52446D01*
X58889Y-52590D01*
X58811Y-52778D01*
X58811Y-52982D01*
X58889Y-53170D01*
X59033Y-53314D01*
X59221Y-53392D01*
X59424Y-53393D01*
X59613Y-53315D01*
X59757Y-53171D01*
X59835Y-52983D01*
X59835Y-52779D01*
X59835Y-60085D01*
X59792Y-60041D01*
X59596Y-59960D01*
X59385Y-59960D01*
X59189Y-60041D01*
X59040Y-60190D01*
X59039Y-60192D01*
X59039Y-54465D01*
X58958Y-54270D01*
X58809Y-54120D01*
X58614Y-54039D01*
X58402Y-54039D01*
X58295Y-54083D01*
X58295Y-42599D01*
X58235Y-42454D01*
X58124Y-42343D01*
X57980Y-42283D01*
X57823Y-42283D01*
X57678Y-42343D01*
X57568Y-42453D01*
X57507Y-42598D01*
X57507Y-42755D01*
X57567Y-42899D01*
X57678Y-43010D01*
X57822Y-43070D01*
X57979Y-43070D01*
X58124Y-43011D01*
X58235Y-42900D01*
X58295Y-42755D01*
X58295Y-42599D01*
X58295Y-54083D01*
X58207Y-54120D01*
X58057Y-54269D01*
X57976Y-54464D01*
X57976Y-54676D01*
X58057Y-54871D01*
X58206Y-55021D01*
X58401Y-55102D01*
X58613Y-55102D01*
X58808Y-55021D01*
X58958Y-54872D01*
X59039Y-54677D01*
X59039Y-54465D01*
X59039Y-60192D01*
X58959Y-60385D01*
X58958Y-60597D01*
X59039Y-60792D01*
X59189Y-60942D01*
X59384Y-61023D01*
X59595Y-61023D01*
X59791Y-60942D01*
X59940Y-60793D01*
X60021Y-60598D01*
X60022Y-60386D01*
X60022Y-62069D01*
X60020Y-62074D01*
X60019Y-62176D01*
X60058Y-62270D01*
X60130Y-62342D01*
X60224Y-62381D01*
X60326Y-62381D01*
X60420Y-62342D01*
X60492Y-62270D01*
X60531Y-62177D01*
X60531Y-62075D01*
X60531Y-63599D01*
X60524Y-63602D01*
X60452Y-63673D01*
X60413Y-63767D01*
X60413Y-63869D01*
X60452Y-63963D01*
X60524Y-64035D01*
X60618Y-64074D01*
X60719Y-64074D01*
X60813Y-64035D01*
X60885Y-63963D01*
X60924Y-63869D01*
X60924Y-63768D01*
X60924Y-68704D01*
X59901Y-68704D01*
X59901Y-61563D01*
X59862Y-61469D01*
X59790Y-61397D01*
X59696Y-61358D01*
X59595Y-61358D01*
X59501Y-61397D01*
X59429Y-61469D01*
X59390Y-61563D01*
X59390Y-61664D01*
X59428Y-61758D01*
X59500Y-61830D01*
X59594Y-61869D01*
X59696Y-61869D01*
X59790Y-61830D01*
X59862Y-61759D01*
X59901Y-61665D01*
X59901Y-61563D01*
X59901Y-68704D01*
X59350Y-68704D01*
X59350Y-61563D01*
X59311Y-61469D01*
X59239Y-61397D01*
X59145Y-61358D01*
X59043Y-61358D01*
X58949Y-61397D01*
X58877Y-61469D01*
X58838Y-61563D01*
X58838Y-61664D01*
X58877Y-61758D01*
X58949Y-61830D01*
X59043Y-61869D01*
X59145Y-61869D01*
X59239Y-61830D01*
X59311Y-61759D01*
X59350Y-61665D01*
X59350Y-61563D01*
X59350Y-68704D01*
X58720Y-68704D01*
X58720Y-61563D01*
X58681Y-61469D01*
X58609Y-61397D01*
X58515Y-61358D01*
X58413Y-61358D01*
X58319Y-61397D01*
X58247Y-61469D01*
X58209Y-61563D01*
X58208Y-61664D01*
X58247Y-61758D01*
X58319Y-61830D01*
X58413Y-61869D01*
X58515Y-61869D01*
X58609Y-61830D01*
X58681Y-61759D01*
X58720Y-61665D01*
X58720Y-61563D01*
X58720Y-68704D01*
X58169Y-68704D01*
X58169Y-61563D01*
X58130Y-61469D01*
X58058Y-61397D01*
X57964Y-61358D01*
X57862Y-61358D01*
X57768Y-61397D01*
X57696Y-61469D01*
X57657Y-61563D01*
X57657Y-61664D01*
X57696Y-61758D01*
X57768Y-61830D01*
X57862Y-61869D01*
X57964Y-61869D01*
X58057Y-61830D01*
X58129Y-61759D01*
X58168Y-61665D01*
X58169Y-61563D01*
X58169Y-68704D01*
X57657Y-68704D01*
X57657Y-46091D01*
X57657Y-43571D01*
X57618Y-43477D01*
X57546Y-43405D01*
X57452Y-43366D01*
X57350Y-43366D01*
X57296Y-43389D01*
X57296Y-42751D01*
X57294Y-42595D01*
X57237Y-42457D01*
X57178Y-42428D01*
X57150Y-42456D01*
X57150Y-42400D01*
X57121Y-42341D01*
X56976Y-42282D01*
X56819Y-42284D01*
X56681Y-42341D01*
X56652Y-42400D01*
X56901Y-42649D01*
X57150Y-42400D01*
X57150Y-42456D01*
X56929Y-42677D01*
X57178Y-42925D01*
X57237Y-42896D01*
X57296Y-42751D01*
X57296Y-43389D01*
X57256Y-43405D01*
X57185Y-43477D01*
X57150Y-43560D01*
X57150Y-42953D01*
X56901Y-42705D01*
X56873Y-42732D01*
X56873Y-42677D01*
X56625Y-42428D01*
X56565Y-42457D01*
X56507Y-42602D01*
X56508Y-42759D01*
X56565Y-42896D01*
X56625Y-42925D01*
X56873Y-42677D01*
X56873Y-42732D01*
X56652Y-42953D01*
X56681Y-43013D01*
X56827Y-43071D01*
X56983Y-43070D01*
X57121Y-43013D01*
X57150Y-42953D01*
X57150Y-43560D01*
X57146Y-43570D01*
X57145Y-43672D01*
X57184Y-43766D01*
X57256Y-43838D01*
X57350Y-43877D01*
X57452Y-43877D01*
X57546Y-43838D01*
X57618Y-43767D01*
X57657Y-43673D01*
X57657Y-43571D01*
X57657Y-46091D01*
X57618Y-45997D01*
X57546Y-45925D01*
X57452Y-45886D01*
X57350Y-45886D01*
X57256Y-45924D01*
X57185Y-45996D01*
X57146Y-46090D01*
X57145Y-46192D01*
X57184Y-46286D01*
X57256Y-46358D01*
X57350Y-46397D01*
X57452Y-46397D01*
X57546Y-46358D01*
X57618Y-46286D01*
X57657Y-46192D01*
X57657Y-46091D01*
X57657Y-68704D01*
X57330Y-68704D01*
X57330Y-55285D01*
X57252Y-55097D01*
X57182Y-55027D01*
X57182Y-47670D01*
X57102Y-47474D01*
X56952Y-47325D01*
X56757Y-47244D01*
X56712Y-47244D01*
X56712Y-46091D01*
X56712Y-43571D01*
X56673Y-43477D01*
X56601Y-43405D01*
X56507Y-43366D01*
X56406Y-43366D01*
X56312Y-43405D01*
X56240Y-43477D01*
X56201Y-43570D01*
X56201Y-43672D01*
X56239Y-43766D01*
X56311Y-43838D01*
X56405Y-43877D01*
X56507Y-43877D01*
X56601Y-43838D01*
X56673Y-43767D01*
X56712Y-43673D01*
X56712Y-43571D01*
X56712Y-46091D01*
X56673Y-45997D01*
X56601Y-45925D01*
X56507Y-45886D01*
X56406Y-45886D01*
X56312Y-45924D01*
X56240Y-45996D01*
X56217Y-46052D01*
X56207Y-46043D01*
X56114Y-46004D01*
X56012Y-46004D01*
X55924Y-46040D01*
X55924Y-42862D01*
X55886Y-42768D01*
X55814Y-42696D01*
X55720Y-42657D01*
X55618Y-42657D01*
X55524Y-42696D01*
X55452Y-42768D01*
X55413Y-42862D01*
X55413Y-42964D01*
X55452Y-43057D01*
X55524Y-43129D01*
X55618Y-43168D01*
X55719Y-43169D01*
X55813Y-43130D01*
X55885Y-43058D01*
X55924Y-42964D01*
X55924Y-42862D01*
X55924Y-46040D01*
X55918Y-46043D01*
X55846Y-46114D01*
X55807Y-46208D01*
X55807Y-46310D01*
X55846Y-46404D01*
X55918Y-46476D01*
X56011Y-46515D01*
X56113Y-46515D01*
X56207Y-46476D01*
X56279Y-46404D01*
X56302Y-46349D01*
X56311Y-46358D01*
X56405Y-46397D01*
X56507Y-46397D01*
X56601Y-46358D01*
X56673Y-46286D01*
X56712Y-46192D01*
X56712Y-46091D01*
X56712Y-47244D01*
X56545Y-47244D01*
X56350Y-47324D01*
X56318Y-47356D01*
X56318Y-46799D01*
X56279Y-46705D01*
X56207Y-46633D01*
X56114Y-46594D01*
X56012Y-46594D01*
X55918Y-46633D01*
X55846Y-46705D01*
X55807Y-46799D01*
X55807Y-46901D01*
X55846Y-46994D01*
X55918Y-47066D01*
X56011Y-47105D01*
X56113Y-47106D01*
X56207Y-47067D01*
X56279Y-46995D01*
X56318Y-46901D01*
X56318Y-46799D01*
X56318Y-47356D01*
X56200Y-47474D01*
X56119Y-47669D01*
X56119Y-47880D01*
X56200Y-48076D01*
X56349Y-48225D01*
X56544Y-48306D01*
X56756Y-48307D01*
X56951Y-48226D01*
X57101Y-48077D01*
X57182Y-47881D01*
X57182Y-47670D01*
X57182Y-55027D01*
X57108Y-54952D01*
X56920Y-54874D01*
X56716Y-54874D01*
X56528Y-54952D01*
X56384Y-55096D01*
X56306Y-55284D01*
X56306Y-55487D01*
X56383Y-55676D01*
X56527Y-55820D01*
X56715Y-55898D01*
X56919Y-55898D01*
X57107Y-55820D01*
X57251Y-55676D01*
X57329Y-55488D01*
X57330Y-55285D01*
X57330Y-68704D01*
X56024Y-68704D01*
X56024Y-56607D01*
X56024Y-56607D01*
X56024Y-51450D01*
X55943Y-51255D01*
X55794Y-51105D01*
X55767Y-51094D01*
X55767Y-44043D01*
X55728Y-43949D01*
X55656Y-43877D01*
X55562Y-43838D01*
X55461Y-43838D01*
X55367Y-43877D01*
X55314Y-43929D01*
X55263Y-43877D01*
X55169Y-43838D01*
X55067Y-43838D01*
X54973Y-43877D01*
X54940Y-43910D01*
X54908Y-43877D01*
X54814Y-43838D01*
X54713Y-43838D01*
X54619Y-43877D01*
X54547Y-43949D01*
X54508Y-44043D01*
X54508Y-44145D01*
X54546Y-44239D01*
X54618Y-44311D01*
X54712Y-44350D01*
X54814Y-44350D01*
X54908Y-44311D01*
X54940Y-44278D01*
X54973Y-44311D01*
X55067Y-44350D01*
X55168Y-44350D01*
X55262Y-44311D01*
X55314Y-44259D01*
X55366Y-44311D01*
X55460Y-44350D01*
X55562Y-44350D01*
X55656Y-44311D01*
X55728Y-44239D01*
X55767Y-44145D01*
X55767Y-44043D01*
X55767Y-51094D01*
X55599Y-51024D01*
X55491Y-51024D01*
X55491Y-47311D01*
X55453Y-47217D01*
X55400Y-47165D01*
X55452Y-47113D01*
X55491Y-47019D01*
X55491Y-46917D01*
X55491Y-45618D01*
X55453Y-45524D01*
X55381Y-45452D01*
X55287Y-45413D01*
X55185Y-45413D01*
X55091Y-45452D01*
X55019Y-45524D01*
X54980Y-45618D01*
X54980Y-45719D01*
X55019Y-45813D01*
X55091Y-45885D01*
X55185Y-45924D01*
X55286Y-45924D01*
X55380Y-45886D01*
X55452Y-45814D01*
X55491Y-45720D01*
X55491Y-45618D01*
X55491Y-46917D01*
X55453Y-46823D01*
X55381Y-46751D01*
X55287Y-46712D01*
X55185Y-46712D01*
X55091Y-46751D01*
X55019Y-46823D01*
X54980Y-46917D01*
X54980Y-47019D01*
X55019Y-47113D01*
X55071Y-47165D01*
X55019Y-47217D01*
X54980Y-47311D01*
X54980Y-47412D01*
X55019Y-47506D01*
X55091Y-47578D01*
X55185Y-47617D01*
X55286Y-47617D01*
X55380Y-47579D01*
X55452Y-47507D01*
X55491Y-47413D01*
X55491Y-47311D01*
X55491Y-51024D01*
X55387Y-51024D01*
X55192Y-51105D01*
X55042Y-51254D01*
X54961Y-51449D01*
X54961Y-51661D01*
X55042Y-51856D01*
X55191Y-52006D01*
X55386Y-52087D01*
X55598Y-52087D01*
X55793Y-52006D01*
X55943Y-51857D01*
X56024Y-51662D01*
X56024Y-51450D01*
X56024Y-56607D01*
X55944Y-56412D01*
X55942Y-56409D01*
X55868Y-56363D01*
X55841Y-56391D01*
X55841Y-56335D01*
X55795Y-56262D01*
X55600Y-56180D01*
X55388Y-56180D01*
X55193Y-56260D01*
X55190Y-56262D01*
X55144Y-56335D01*
X55492Y-56683D01*
X55841Y-56335D01*
X55841Y-56391D01*
X55520Y-56711D01*
X55868Y-57059D01*
X55942Y-57014D01*
X56024Y-56819D01*
X56024Y-56607D01*
X56024Y-68704D01*
X55841Y-68704D01*
X55841Y-57087D01*
X55492Y-56739D01*
X55465Y-56767D01*
X55465Y-56711D01*
X55116Y-56363D01*
X55043Y-56409D01*
X54961Y-56604D01*
X54961Y-56815D01*
X55041Y-57011D01*
X55043Y-57014D01*
X55116Y-57059D01*
X55465Y-56711D01*
X55465Y-56767D01*
X55144Y-57087D01*
X55190Y-57161D01*
X55385Y-57242D01*
X55597Y-57243D01*
X55792Y-57163D01*
X55795Y-57161D01*
X55841Y-57087D01*
X55841Y-68704D01*
X55173Y-68704D01*
X55173Y-64788D01*
X55089Y-64585D01*
X54934Y-64430D01*
X54879Y-64407D01*
X54879Y-58114D01*
X54879Y-49762D01*
X54729Y-49401D01*
X54507Y-49178D01*
X54507Y-44398D01*
X54468Y-44304D01*
X54396Y-44232D01*
X54303Y-44193D01*
X54201Y-44193D01*
X54107Y-44231D01*
X54035Y-44303D01*
X53996Y-44397D01*
X53996Y-44499D01*
X54035Y-44593D01*
X54106Y-44665D01*
X54200Y-44704D01*
X54302Y-44704D01*
X54396Y-44665D01*
X54468Y-44593D01*
X54507Y-44499D01*
X54507Y-44398D01*
X54507Y-49178D01*
X54453Y-49123D01*
X54232Y-49032D01*
X54232Y-46799D01*
X54193Y-46705D01*
X54121Y-46633D01*
X54027Y-46594D01*
X53925Y-46594D01*
X53831Y-46633D01*
X53759Y-46705D01*
X53720Y-46799D01*
X53720Y-46901D01*
X53759Y-46994D01*
X53831Y-47066D01*
X53925Y-47105D01*
X54026Y-47106D01*
X54120Y-47067D01*
X54192Y-46995D01*
X54231Y-46901D01*
X54232Y-46799D01*
X54232Y-49032D01*
X54192Y-49015D01*
X54192Y-47980D01*
X54153Y-47886D01*
X54081Y-47814D01*
X53988Y-47775D01*
X53886Y-47775D01*
X53792Y-47814D01*
X53720Y-47886D01*
X53681Y-47980D01*
X53681Y-48082D01*
X53720Y-48176D01*
X53792Y-48248D01*
X53885Y-48287D01*
X53987Y-48287D01*
X54081Y-48248D01*
X54153Y-48176D01*
X54192Y-48082D01*
X54192Y-47980D01*
X54192Y-49015D01*
X54091Y-48973D01*
X53699Y-48973D01*
X53641Y-48997D01*
X53641Y-47508D01*
X53602Y-47414D01*
X53530Y-47342D01*
X53436Y-47303D01*
X53335Y-47303D01*
X53241Y-47342D01*
X53169Y-47414D01*
X53130Y-47507D01*
X53130Y-47609D01*
X53169Y-47703D01*
X53240Y-47775D01*
X53334Y-47814D01*
X53436Y-47814D01*
X53530Y-47775D01*
X53602Y-47704D01*
X53641Y-47610D01*
X53641Y-47508D01*
X53641Y-48997D01*
X53338Y-49122D01*
X53060Y-49399D01*
X52910Y-49761D01*
X52910Y-50152D01*
X53059Y-50514D01*
X53336Y-50791D01*
X53698Y-50941D01*
X54089Y-50942D01*
X54451Y-50792D01*
X54728Y-50516D01*
X54878Y-50154D01*
X54879Y-49762D01*
X54879Y-58114D01*
X54729Y-57753D01*
X54453Y-57475D01*
X54091Y-57325D01*
X53699Y-57325D01*
X53338Y-57474D01*
X53060Y-57751D01*
X52910Y-58113D01*
X52910Y-58504D01*
X53059Y-58866D01*
X53336Y-59143D01*
X53698Y-59293D01*
X54089Y-59294D01*
X54451Y-59144D01*
X54728Y-58868D01*
X54878Y-58506D01*
X54879Y-58114D01*
X54879Y-64407D01*
X54732Y-64346D01*
X54512Y-64346D01*
X54310Y-64430D01*
X54155Y-64585D01*
X54070Y-64787D01*
X54070Y-65006D01*
X54154Y-65209D01*
X54309Y-65364D01*
X54511Y-65448D01*
X54501Y-65452D01*
X54429Y-65524D01*
X54390Y-65618D01*
X54390Y-65719D01*
X54428Y-65813D01*
X54481Y-65866D01*
X54429Y-65918D01*
X54390Y-66011D01*
X54390Y-66113D01*
X54428Y-66207D01*
X54500Y-66279D01*
X54594Y-66318D01*
X54696Y-66318D01*
X54790Y-66279D01*
X54862Y-66207D01*
X54901Y-66114D01*
X54901Y-66012D01*
X54862Y-65918D01*
X54810Y-65866D01*
X54862Y-65814D01*
X54901Y-65720D01*
X54901Y-65618D01*
X54862Y-65524D01*
X54790Y-65452D01*
X54756Y-65438D01*
X54933Y-65365D01*
X55089Y-65210D01*
X55173Y-65007D01*
X55173Y-64788D01*
X55173Y-68704D01*
X52655Y-68704D01*
X52655Y-57079D01*
X52617Y-56987D01*
X52617Y-46799D01*
X52579Y-46705D01*
X52507Y-46633D01*
X52413Y-46594D01*
X52381Y-46594D01*
X52381Y-46209D01*
X52342Y-46115D01*
X52270Y-46043D01*
X52177Y-46004D01*
X52075Y-46004D01*
X51981Y-46043D01*
X51971Y-46052D01*
X51949Y-45997D01*
X51877Y-45925D01*
X51783Y-45886D01*
X51681Y-45886D01*
X51587Y-45924D01*
X51515Y-45996D01*
X51476Y-46090D01*
X51476Y-46192D01*
X51515Y-46286D01*
X51587Y-46358D01*
X51681Y-46397D01*
X51782Y-46397D01*
X51876Y-46358D01*
X51886Y-46349D01*
X51909Y-46404D01*
X51981Y-46476D01*
X52074Y-46515D01*
X52176Y-46515D01*
X52270Y-46476D01*
X52342Y-46404D01*
X52381Y-46310D01*
X52381Y-46209D01*
X52381Y-46594D01*
X52311Y-46594D01*
X52217Y-46633D01*
X52145Y-46705D01*
X52106Y-46799D01*
X52106Y-46901D01*
X52145Y-46994D01*
X52217Y-47066D01*
X52311Y-47105D01*
X52412Y-47106D01*
X52506Y-47067D01*
X52578Y-46995D01*
X52617Y-46901D01*
X52617Y-46799D01*
X52617Y-56987D01*
X52575Y-56884D01*
X52425Y-56734D01*
X52230Y-56653D01*
X52019Y-56653D01*
X51823Y-56734D01*
X51791Y-56766D01*
X51791Y-52350D01*
X51791Y-48453D01*
X51752Y-48359D01*
X51680Y-48287D01*
X51586Y-48248D01*
X51515Y-48248D01*
X51515Y-46642D01*
X51476Y-46548D01*
X51404Y-46476D01*
X51310Y-46437D01*
X51209Y-46437D01*
X51115Y-46476D01*
X51043Y-46547D01*
X51043Y-46548D01*
X51043Y-46091D01*
X51004Y-45997D01*
X50932Y-45925D01*
X50838Y-45886D01*
X50832Y-45886D01*
X50832Y-40730D01*
X50656Y-40277D01*
X50624Y-40229D01*
X50479Y-40099D01*
X50451Y-40127D01*
X50451Y-40072D01*
X50321Y-39926D01*
X49877Y-39730D01*
X49392Y-39719D01*
X48939Y-39894D01*
X48890Y-39926D01*
X48761Y-40072D01*
X48861Y-40171D01*
X48861Y-40171D01*
X48996Y-40306D01*
X49023Y-40334D01*
X49158Y-40469D01*
X49606Y-40917D01*
X50053Y-40469D01*
X50188Y-40334D01*
X50216Y-40306D01*
X50351Y-40171D01*
X50451Y-40072D01*
X50451Y-40127D01*
X50379Y-40199D01*
X50244Y-40334D01*
X50216Y-40362D01*
X50081Y-40497D01*
X49634Y-40944D01*
X50081Y-41392D01*
X50081Y-41392D01*
X50216Y-41527D01*
X50244Y-41555D01*
X50379Y-41689D01*
X50479Y-41789D01*
X50624Y-41660D01*
X50820Y-41216D01*
X50832Y-40730D01*
X50832Y-45886D01*
X50736Y-45886D01*
X50642Y-45924D01*
X50570Y-45996D01*
X50531Y-46090D01*
X50531Y-46192D01*
X50570Y-46286D01*
X50642Y-46358D01*
X50736Y-46397D01*
X50838Y-46397D01*
X50932Y-46358D01*
X51003Y-46286D01*
X51042Y-46192D01*
X51043Y-46091D01*
X51043Y-46548D01*
X51004Y-46641D01*
X51004Y-46743D01*
X51043Y-46837D01*
X51114Y-46909D01*
X51208Y-46948D01*
X51310Y-46948D01*
X51404Y-46909D01*
X51476Y-46837D01*
X51515Y-46743D01*
X51515Y-46642D01*
X51515Y-48248D01*
X51484Y-48248D01*
X51390Y-48287D01*
X51318Y-48358D01*
X51279Y-48452D01*
X51279Y-48554D01*
X51318Y-48648D01*
X51390Y-48720D01*
X51484Y-48759D01*
X51586Y-48759D01*
X51680Y-48720D01*
X51752Y-48648D01*
X51790Y-48555D01*
X51791Y-48453D01*
X51791Y-52350D01*
X51752Y-52256D01*
X51680Y-52185D01*
X51586Y-52146D01*
X51484Y-52145D01*
X51390Y-52184D01*
X51318Y-52256D01*
X51279Y-52350D01*
X51279Y-52452D01*
X51318Y-52546D01*
X51390Y-52618D01*
X51484Y-52657D01*
X51586Y-52657D01*
X51680Y-52618D01*
X51752Y-52546D01*
X51790Y-52452D01*
X51791Y-52350D01*
X51791Y-56766D01*
X51674Y-56883D01*
X51593Y-57078D01*
X51592Y-57290D01*
X51673Y-57485D01*
X51822Y-57635D01*
X52018Y-57716D01*
X52229Y-57716D01*
X52425Y-57635D01*
X52574Y-57486D01*
X52655Y-57291D01*
X52655Y-57079D01*
X52655Y-68704D01*
X52617Y-68704D01*
X52617Y-59398D01*
X52579Y-59304D01*
X52507Y-59232D01*
X52413Y-59193D01*
X52311Y-59193D01*
X52217Y-59231D01*
X52145Y-59303D01*
X52106Y-59397D01*
X52106Y-59499D01*
X52145Y-59593D01*
X52217Y-59665D01*
X52311Y-59704D01*
X52412Y-59704D01*
X52506Y-59665D01*
X52578Y-59593D01*
X52617Y-59499D01*
X52617Y-59398D01*
X52617Y-68704D01*
X50806Y-68704D01*
X50806Y-61347D01*
X50806Y-60343D01*
X50806Y-59319D01*
X50768Y-59225D01*
X50696Y-59153D01*
X50602Y-59114D01*
X50500Y-59114D01*
X50451Y-59134D01*
X50451Y-41817D01*
X50351Y-41717D01*
X50216Y-41582D01*
X50188Y-41555D01*
X50053Y-41420D01*
X50053Y-41420D01*
X49606Y-40972D01*
X49578Y-41000D01*
X49578Y-40944D01*
X49130Y-40497D01*
X48996Y-40362D01*
X48968Y-40334D01*
X48833Y-40199D01*
X48833Y-40199D01*
X48733Y-40099D01*
X48588Y-40229D01*
X48391Y-40673D01*
X48380Y-41158D01*
X48555Y-41611D01*
X48588Y-41660D01*
X48733Y-41789D01*
X48833Y-41689D01*
X48968Y-41555D01*
X48996Y-41527D01*
X49130Y-41392D01*
X49578Y-40944D01*
X49578Y-41000D01*
X49158Y-41420D01*
X49023Y-41555D01*
X48996Y-41582D01*
X48861Y-41717D01*
X48761Y-41817D01*
X48890Y-41963D01*
X49334Y-42159D01*
X49820Y-42170D01*
X50273Y-41995D01*
X50321Y-41963D01*
X50451Y-41817D01*
X50451Y-59134D01*
X50406Y-59153D01*
X50334Y-59225D01*
X50295Y-59319D01*
X50295Y-59420D01*
X50334Y-59514D01*
X50406Y-59586D01*
X50500Y-59625D01*
X50601Y-59625D01*
X50695Y-59586D01*
X50767Y-59515D01*
X50806Y-59421D01*
X50806Y-59319D01*
X50806Y-60343D01*
X50768Y-60249D01*
X50696Y-60177D01*
X50602Y-60138D01*
X50500Y-60138D01*
X50406Y-60176D01*
X50334Y-60248D01*
X50295Y-60342D01*
X50295Y-60444D01*
X50334Y-60538D01*
X50406Y-60610D01*
X50500Y-60649D01*
X50601Y-60649D01*
X50695Y-60610D01*
X50767Y-60538D01*
X50806Y-60444D01*
X50806Y-60343D01*
X50806Y-61347D01*
X50768Y-61253D01*
X50696Y-61181D01*
X50602Y-61142D01*
X50500Y-61141D01*
X50406Y-61180D01*
X50334Y-61252D01*
X50295Y-61346D01*
X50295Y-61448D01*
X50334Y-61542D01*
X50406Y-61614D01*
X50500Y-61653D01*
X50601Y-61653D01*
X50695Y-61614D01*
X50767Y-61542D01*
X50806Y-61448D01*
X50806Y-61347D01*
X50806Y-68704D01*
X49960Y-68704D01*
X49960Y-61760D01*
X49960Y-60933D01*
X49921Y-60839D01*
X49849Y-60767D01*
X49755Y-60728D01*
X49654Y-60728D01*
X49560Y-60767D01*
X49488Y-60839D01*
X49449Y-60933D01*
X49449Y-61034D01*
X49487Y-61128D01*
X49559Y-61200D01*
X49653Y-61239D01*
X49755Y-61239D01*
X49849Y-61201D01*
X49921Y-61129D01*
X49960Y-61035D01*
X49960Y-60933D01*
X49960Y-61760D01*
X49921Y-61666D01*
X49849Y-61594D01*
X49755Y-61555D01*
X49654Y-61555D01*
X49560Y-61594D01*
X49488Y-61666D01*
X49449Y-61759D01*
X49449Y-61861D01*
X49487Y-61955D01*
X49559Y-62027D01*
X49653Y-62066D01*
X49755Y-62066D01*
X49849Y-62027D01*
X49921Y-61956D01*
X49960Y-61862D01*
X49960Y-61760D01*
X49960Y-68704D01*
X49665Y-68704D01*
X49665Y-62508D01*
X49626Y-62414D01*
X49554Y-62342D01*
X49460Y-62303D01*
X49358Y-62303D01*
X49264Y-62342D01*
X49192Y-62414D01*
X49173Y-62461D01*
X49173Y-60788D01*
X49173Y-51788D01*
X49089Y-51585D01*
X48934Y-51430D01*
X48732Y-51346D01*
X48512Y-51346D01*
X48310Y-51430D01*
X48155Y-51585D01*
X48070Y-51787D01*
X48070Y-52006D01*
X48154Y-52209D01*
X48309Y-52364D01*
X48511Y-52448D01*
X48731Y-52448D01*
X48933Y-52365D01*
X49089Y-52210D01*
X49173Y-52007D01*
X49173Y-51788D01*
X49173Y-60788D01*
X49113Y-60644D01*
X49113Y-57350D01*
X49075Y-57256D01*
X49003Y-57185D01*
X48995Y-57181D01*
X48995Y-56327D01*
X48956Y-56233D01*
X48885Y-56161D01*
X48791Y-56122D01*
X48689Y-56122D01*
X48595Y-56161D01*
X48523Y-56232D01*
X48484Y-56326D01*
X48484Y-56428D01*
X48523Y-56522D01*
X48595Y-56594D01*
X48689Y-56633D01*
X48790Y-56633D01*
X48884Y-56594D01*
X48956Y-56522D01*
X48995Y-56429D01*
X48995Y-56327D01*
X48995Y-57181D01*
X48909Y-57146D01*
X48807Y-57145D01*
X48713Y-57184D01*
X48641Y-57256D01*
X48602Y-57350D01*
X48602Y-57452D01*
X48641Y-57546D01*
X48713Y-57618D01*
X48807Y-57657D01*
X48908Y-57657D01*
X49002Y-57618D01*
X49074Y-57546D01*
X49113Y-57452D01*
X49113Y-57350D01*
X49113Y-60644D01*
X49089Y-60585D01*
X49074Y-60570D01*
X49074Y-58335D01*
X49035Y-58241D01*
X48963Y-58169D01*
X48869Y-58130D01*
X48768Y-58130D01*
X48674Y-58169D01*
X48602Y-58240D01*
X48563Y-58334D01*
X48563Y-58436D01*
X48602Y-58530D01*
X48673Y-58602D01*
X48767Y-58641D01*
X48869Y-58641D01*
X48963Y-58602D01*
X49035Y-58530D01*
X49074Y-58436D01*
X49074Y-58335D01*
X49074Y-60570D01*
X48934Y-60430D01*
X48804Y-60376D01*
X48838Y-60341D01*
X48877Y-60247D01*
X48877Y-60146D01*
X48838Y-60052D01*
X48767Y-59980D01*
X48673Y-59941D01*
X48641Y-59941D01*
X48641Y-59319D01*
X48602Y-59225D01*
X48530Y-59153D01*
X48436Y-59114D01*
X48335Y-59114D01*
X48241Y-59153D01*
X48169Y-59225D01*
X48130Y-59319D01*
X48130Y-59420D01*
X48169Y-59514D01*
X48240Y-59586D01*
X48334Y-59625D01*
X48436Y-59625D01*
X48530Y-59586D01*
X48602Y-59515D01*
X48641Y-59421D01*
X48641Y-59319D01*
X48641Y-59941D01*
X48571Y-59941D01*
X48477Y-59980D01*
X48405Y-60051D01*
X48366Y-60145D01*
X48366Y-60247D01*
X48405Y-60341D01*
X48440Y-60376D01*
X48310Y-60430D01*
X48155Y-60585D01*
X48070Y-60787D01*
X48070Y-61006D01*
X48154Y-61209D01*
X48309Y-61364D01*
X48511Y-61448D01*
X48731Y-61448D01*
X48933Y-61365D01*
X49089Y-61210D01*
X49173Y-61007D01*
X49173Y-60788D01*
X49173Y-62461D01*
X49153Y-62507D01*
X49153Y-62609D01*
X49192Y-62703D01*
X49264Y-62775D01*
X49358Y-62814D01*
X49460Y-62814D01*
X49554Y-62775D01*
X49626Y-62704D01*
X49665Y-62610D01*
X49665Y-62508D01*
X49665Y-68704D01*
X49113Y-68704D01*
X49113Y-62980D01*
X49113Y-62035D01*
X49075Y-61942D01*
X49003Y-61870D01*
X48909Y-61831D01*
X48807Y-61830D01*
X48713Y-61869D01*
X48641Y-61941D01*
X48602Y-62035D01*
X48602Y-62137D01*
X48641Y-62231D01*
X48713Y-62303D01*
X48807Y-62342D01*
X48908Y-62342D01*
X49002Y-62303D01*
X49074Y-62231D01*
X49113Y-62137D01*
X49113Y-62035D01*
X49113Y-62980D01*
X49075Y-62886D01*
X49003Y-62814D01*
X48909Y-62775D01*
X48807Y-62775D01*
X48713Y-62814D01*
X48641Y-62886D01*
X48602Y-62980D01*
X48602Y-63082D01*
X48641Y-63176D01*
X48713Y-63248D01*
X48807Y-63287D01*
X48908Y-63287D01*
X49002Y-63248D01*
X49074Y-63176D01*
X49113Y-63082D01*
X49113Y-62980D01*
X49113Y-68704D01*
X46948Y-68704D01*
X46948Y-58335D01*
X46948Y-57350D01*
X46909Y-57256D01*
X46837Y-57185D01*
X46743Y-57146D01*
X46642Y-57145D01*
X46633Y-57149D01*
X46633Y-53335D01*
X46594Y-53241D01*
X46522Y-53169D01*
X46429Y-53130D01*
X46327Y-53130D01*
X46318Y-53133D01*
X46318Y-52390D01*
X46279Y-52296D01*
X46207Y-52224D01*
X46114Y-52185D01*
X46012Y-52185D01*
X45918Y-52224D01*
X45846Y-52295D01*
X45807Y-52389D01*
X45807Y-52491D01*
X45846Y-52585D01*
X45918Y-52657D01*
X46011Y-52696D01*
X46113Y-52696D01*
X46207Y-52657D01*
X46279Y-52585D01*
X46318Y-52492D01*
X46318Y-52390D01*
X46318Y-53133D01*
X46233Y-53169D01*
X46161Y-53240D01*
X46122Y-53334D01*
X46122Y-53436D01*
X46161Y-53530D01*
X46232Y-53602D01*
X46326Y-53641D01*
X46428Y-53641D01*
X46522Y-53602D01*
X46594Y-53530D01*
X46633Y-53436D01*
X46633Y-53335D01*
X46633Y-57149D01*
X46548Y-57184D01*
X46476Y-57256D01*
X46437Y-57350D01*
X46437Y-57452D01*
X46476Y-57546D01*
X46547Y-57618D01*
X46641Y-57657D01*
X46743Y-57657D01*
X46837Y-57618D01*
X46909Y-57546D01*
X46948Y-57452D01*
X46948Y-57350D01*
X46948Y-58335D01*
X46909Y-58241D01*
X46837Y-58169D01*
X46743Y-58130D01*
X46642Y-58130D01*
X46548Y-58169D01*
X46476Y-58240D01*
X46446Y-58311D01*
X46389Y-58287D01*
X46287Y-58287D01*
X46193Y-58326D01*
X46122Y-58398D01*
X46083Y-58492D01*
X46082Y-58593D01*
X46121Y-58687D01*
X46193Y-58759D01*
X46287Y-58798D01*
X46389Y-58798D01*
X46483Y-58760D01*
X46555Y-58688D01*
X46584Y-58617D01*
X46641Y-58641D01*
X46743Y-58641D01*
X46837Y-58602D01*
X46909Y-58530D01*
X46948Y-58436D01*
X46948Y-58335D01*
X46948Y-68704D01*
X44271Y-68704D01*
X44271Y-50894D01*
X44232Y-50800D01*
X44160Y-50728D01*
X44066Y-50689D01*
X43965Y-50689D01*
X43950Y-50695D01*
X43956Y-50680D01*
X43956Y-50579D01*
X43917Y-50485D01*
X43845Y-50413D01*
X43751Y-50374D01*
X43650Y-50374D01*
X43635Y-50380D01*
X43641Y-50366D01*
X43641Y-50264D01*
X43602Y-50170D01*
X43530Y-50098D01*
X43436Y-50059D01*
X43335Y-50059D01*
X43320Y-50065D01*
X43326Y-50051D01*
X43326Y-49949D01*
X43287Y-49855D01*
X43215Y-49783D01*
X43121Y-49744D01*
X43020Y-49744D01*
X42926Y-49783D01*
X42854Y-49855D01*
X42815Y-49948D01*
X42815Y-50050D01*
X42854Y-50144D01*
X42925Y-50216D01*
X43019Y-50255D01*
X43121Y-50255D01*
X43136Y-50249D01*
X43130Y-50263D01*
X43130Y-50365D01*
X43169Y-50459D01*
X43240Y-50531D01*
X43334Y-50570D01*
X43436Y-50570D01*
X43451Y-50564D01*
X43445Y-50578D01*
X43445Y-50680D01*
X43483Y-50774D01*
X43555Y-50846D01*
X43649Y-50885D01*
X43751Y-50885D01*
X43766Y-50879D01*
X43760Y-50893D01*
X43760Y-50995D01*
X43798Y-51089D01*
X43870Y-51161D01*
X43964Y-51200D01*
X44066Y-51200D01*
X44160Y-51161D01*
X44232Y-51089D01*
X44271Y-50995D01*
X44271Y-50894D01*
X44271Y-68704D01*
X42263Y-68704D01*
X42263Y-43398D01*
X42263Y-40642D01*
X42183Y-40447D01*
X42033Y-40297D01*
X41838Y-40216D01*
X41627Y-40216D01*
X41431Y-40297D01*
X41281Y-40446D01*
X41200Y-40641D01*
X41200Y-40853D01*
X41281Y-41048D01*
X41430Y-41198D01*
X41626Y-41279D01*
X41837Y-41279D01*
X42032Y-41198D01*
X42182Y-41049D01*
X42263Y-40854D01*
X42263Y-40642D01*
X42263Y-43398D01*
X42183Y-43203D01*
X42033Y-43053D01*
X41838Y-42972D01*
X41627Y-42972D01*
X41431Y-43053D01*
X41281Y-43202D01*
X41200Y-43397D01*
X41200Y-43609D01*
X41281Y-43804D01*
X41430Y-43954D01*
X41626Y-44035D01*
X41837Y-44035D01*
X42032Y-43954D01*
X42182Y-43805D01*
X42263Y-43610D01*
X42263Y-43398D01*
X42263Y-68704D01*
X41515Y-68704D01*
X41515Y-51996D01*
X41476Y-51902D01*
X41404Y-51830D01*
X41310Y-51791D01*
X41209Y-51791D01*
X41115Y-51830D01*
X41043Y-51902D01*
X41004Y-51996D01*
X41004Y-52097D01*
X41043Y-52191D01*
X41114Y-52263D01*
X41208Y-52302D01*
X41310Y-52302D01*
X41404Y-52264D01*
X41476Y-52192D01*
X41515Y-52098D01*
X41515Y-51996D01*
X41515Y-68704D01*
X40649Y-68704D01*
X40649Y-57902D01*
X40610Y-57808D01*
X40538Y-57736D01*
X40444Y-57697D01*
X40343Y-57697D01*
X40249Y-57735D01*
X40177Y-57807D01*
X40176Y-57808D01*
X40176Y-57390D01*
X40138Y-57296D01*
X40066Y-57224D01*
X39972Y-57185D01*
X39870Y-57185D01*
X39776Y-57224D01*
X39704Y-57295D01*
X39665Y-57389D01*
X39665Y-57491D01*
X39704Y-57585D01*
X39776Y-57657D01*
X39870Y-57696D01*
X39971Y-57696D01*
X40065Y-57657D01*
X40137Y-57585D01*
X40176Y-57492D01*
X40176Y-57390D01*
X40176Y-57808D01*
X40138Y-57901D01*
X40138Y-58003D01*
X40176Y-58097D01*
X40248Y-58169D01*
X40342Y-58208D01*
X40444Y-58208D01*
X40538Y-58169D01*
X40610Y-58097D01*
X40649Y-58003D01*
X40649Y-57902D01*
X40649Y-68704D01*
X39468Y-68704D01*
X39468Y-55461D01*
X39429Y-55367D01*
X39357Y-55295D01*
X39263Y-55256D01*
X39232Y-55256D01*
X39232Y-47705D01*
X39193Y-47611D01*
X39121Y-47539D01*
X39027Y-47500D01*
X38925Y-47500D01*
X38831Y-47539D01*
X38759Y-47610D01*
X38720Y-47704D01*
X38720Y-47806D01*
X38759Y-47900D01*
X38831Y-47972D01*
X38925Y-48011D01*
X39026Y-48011D01*
X39120Y-47972D01*
X39192Y-47900D01*
X39231Y-47806D01*
X39232Y-47705D01*
X39232Y-55256D01*
X39161Y-55256D01*
X39074Y-55292D01*
X39074Y-55067D01*
X39035Y-54973D01*
X38963Y-54901D01*
X38869Y-54862D01*
X38768Y-54862D01*
X38680Y-54898D01*
X38680Y-48177D01*
X38680Y-47232D01*
X38642Y-47138D01*
X38570Y-47066D01*
X38476Y-47027D01*
X38374Y-47027D01*
X38280Y-47066D01*
X38208Y-47138D01*
X38169Y-47232D01*
X38169Y-47334D01*
X38208Y-47428D01*
X38280Y-47500D01*
X38374Y-47539D01*
X38475Y-47539D01*
X38569Y-47500D01*
X38641Y-47428D01*
X38680Y-47334D01*
X38680Y-47232D01*
X38680Y-48177D01*
X38642Y-48083D01*
X38570Y-48011D01*
X38476Y-47972D01*
X38374Y-47972D01*
X38280Y-48011D01*
X38208Y-48083D01*
X38169Y-48177D01*
X38169Y-48278D01*
X38208Y-48372D01*
X38280Y-48444D01*
X38374Y-48483D01*
X38475Y-48484D01*
X38569Y-48445D01*
X38641Y-48373D01*
X38680Y-48279D01*
X38680Y-48177D01*
X38680Y-54898D01*
X38674Y-54901D01*
X38602Y-54973D01*
X38563Y-55067D01*
X38563Y-55168D01*
X38602Y-55262D01*
X38673Y-55334D01*
X38767Y-55373D01*
X38869Y-55373D01*
X38963Y-55334D01*
X39035Y-55263D01*
X39074Y-55169D01*
X39074Y-55067D01*
X39074Y-55292D01*
X39067Y-55294D01*
X38996Y-55366D01*
X38957Y-55460D01*
X38956Y-55562D01*
X38995Y-55656D01*
X39067Y-55728D01*
X39161Y-55767D01*
X39263Y-55767D01*
X39357Y-55728D01*
X39429Y-55656D01*
X39468Y-55562D01*
X39468Y-55461D01*
X39468Y-68704D01*
X39389Y-68704D01*
X39389Y-58807D01*
X39350Y-58713D01*
X39278Y-58641D01*
X39184Y-58602D01*
X39083Y-58602D01*
X38989Y-58641D01*
X38917Y-58713D01*
X38878Y-58807D01*
X38878Y-58908D01*
X38917Y-59002D01*
X38988Y-59074D01*
X39082Y-59113D01*
X39184Y-59113D01*
X39278Y-59075D01*
X39350Y-59003D01*
X39389Y-58909D01*
X39389Y-58807D01*
X39389Y-68704D01*
X38444Y-68704D01*
X38444Y-55067D01*
X38444Y-49713D01*
X38405Y-49619D01*
X38333Y-49547D01*
X38240Y-49508D01*
X38138Y-49508D01*
X38044Y-49546D01*
X37992Y-49599D01*
X37940Y-49547D01*
X37846Y-49508D01*
X37744Y-49508D01*
X37657Y-49544D01*
X37657Y-49476D01*
X37618Y-49382D01*
X37546Y-49310D01*
X37452Y-49271D01*
X37350Y-49271D01*
X37256Y-49310D01*
X37185Y-49382D01*
X37146Y-49476D01*
X37145Y-49578D01*
X37184Y-49672D01*
X37256Y-49744D01*
X37350Y-49783D01*
X37452Y-49783D01*
X37539Y-49747D01*
X37539Y-49814D01*
X37578Y-49908D01*
X37650Y-49980D01*
X37744Y-50019D01*
X37845Y-50019D01*
X37939Y-49980D01*
X37992Y-49928D01*
X38043Y-49980D01*
X38137Y-50019D01*
X38239Y-50019D01*
X38333Y-49980D01*
X38405Y-49908D01*
X38444Y-49814D01*
X38444Y-49713D01*
X38444Y-55067D01*
X38405Y-54973D01*
X38333Y-54901D01*
X38240Y-54862D01*
X38138Y-54862D01*
X38044Y-54901D01*
X37972Y-54973D01*
X37933Y-55067D01*
X37933Y-55168D01*
X37972Y-55262D01*
X38043Y-55334D01*
X38137Y-55373D01*
X38239Y-55373D01*
X38333Y-55334D01*
X38405Y-55263D01*
X38444Y-55169D01*
X38444Y-55067D01*
X38444Y-68704D01*
X37932Y-68704D01*
X37932Y-57154D01*
X37893Y-57060D01*
X37841Y-57007D01*
X37893Y-56956D01*
X37932Y-56862D01*
X37932Y-56760D01*
X37893Y-56666D01*
X37822Y-56594D01*
X37814Y-56591D01*
X37814Y-55461D01*
X37775Y-55367D01*
X37704Y-55295D01*
X37610Y-55256D01*
X37508Y-55256D01*
X37414Y-55294D01*
X37342Y-55366D01*
X37303Y-55460D01*
X37303Y-55562D01*
X37342Y-55656D01*
X37414Y-55728D01*
X37507Y-55767D01*
X37609Y-55767D01*
X37703Y-55728D01*
X37775Y-55656D01*
X37814Y-55562D01*
X37814Y-55461D01*
X37814Y-56591D01*
X37728Y-56555D01*
X37626Y-56555D01*
X37532Y-56594D01*
X37499Y-56626D01*
X37499Y-56169D01*
X37460Y-56075D01*
X37389Y-56003D01*
X37295Y-55964D01*
X37193Y-55964D01*
X37099Y-56003D01*
X37027Y-56075D01*
X37027Y-56076D01*
X37027Y-50815D01*
X36988Y-50721D01*
X36936Y-50669D01*
X36988Y-50617D01*
X37027Y-50523D01*
X37027Y-50421D01*
X36988Y-50327D01*
X36916Y-50255D01*
X36822Y-50216D01*
X36787Y-50216D01*
X36790Y-50208D01*
X36791Y-50106D01*
X36787Y-50098D01*
X36822Y-50098D01*
X36916Y-50059D01*
X36988Y-49987D01*
X37027Y-49893D01*
X37027Y-49791D01*
X36988Y-49697D01*
X36916Y-49625D01*
X36822Y-49586D01*
X36721Y-49586D01*
X36627Y-49625D01*
X36555Y-49697D01*
X36516Y-49791D01*
X36515Y-49893D01*
X36519Y-49901D01*
X36484Y-49901D01*
X36476Y-49905D01*
X36476Y-49437D01*
X36437Y-49343D01*
X36365Y-49271D01*
X36271Y-49232D01*
X36169Y-49232D01*
X36075Y-49271D01*
X36003Y-49343D01*
X35964Y-49437D01*
X35964Y-49538D01*
X36003Y-49632D01*
X36075Y-49704D01*
X36169Y-49743D01*
X36271Y-49743D01*
X36365Y-49705D01*
X36437Y-49633D01*
X36476Y-49539D01*
X36476Y-49437D01*
X36476Y-49905D01*
X36390Y-49940D01*
X36318Y-50012D01*
X36279Y-50106D01*
X36279Y-50208D01*
X36318Y-50302D01*
X36390Y-50374D01*
X36484Y-50413D01*
X36519Y-50413D01*
X36516Y-50421D01*
X36515Y-50523D01*
X36554Y-50617D01*
X36607Y-50669D01*
X36555Y-50721D01*
X36516Y-50815D01*
X36515Y-50916D01*
X36554Y-51010D01*
X36626Y-51082D01*
X36720Y-51121D01*
X36822Y-51121D01*
X36916Y-51082D01*
X36988Y-51011D01*
X37027Y-50917D01*
X37027Y-50815D01*
X37027Y-56076D01*
X36988Y-56169D01*
X36988Y-56271D01*
X37027Y-56365D01*
X37099Y-56437D01*
X37193Y-56476D01*
X37294Y-56476D01*
X37388Y-56437D01*
X37460Y-56365D01*
X37499Y-56271D01*
X37499Y-56169D01*
X37499Y-56626D01*
X37460Y-56666D01*
X37421Y-56759D01*
X37421Y-56861D01*
X37460Y-56955D01*
X37512Y-57007D01*
X37460Y-57059D01*
X37421Y-57153D01*
X37421Y-57255D01*
X37460Y-57349D01*
X37532Y-57421D01*
X37626Y-57460D01*
X37727Y-57460D01*
X37821Y-57421D01*
X37893Y-57349D01*
X37932Y-57255D01*
X37932Y-57154D01*
X37932Y-68704D01*
X36476Y-68704D01*
X36476Y-55343D01*
X36437Y-55249D01*
X36365Y-55177D01*
X36271Y-55138D01*
X36169Y-55138D01*
X36075Y-55176D01*
X36003Y-55248D01*
X35964Y-55342D01*
X35964Y-55444D01*
X36003Y-55538D01*
X36075Y-55610D01*
X36169Y-55649D01*
X36271Y-55649D01*
X36365Y-55610D01*
X36437Y-55538D01*
X36476Y-55444D01*
X36476Y-55343D01*
X36476Y-68704D01*
X35924Y-68704D01*
X35924Y-55815D01*
X35924Y-54870D01*
X35924Y-52154D01*
X35924Y-49910D01*
X35924Y-48965D01*
X35886Y-48871D01*
X35814Y-48799D01*
X35720Y-48760D01*
X35618Y-48760D01*
X35524Y-48798D01*
X35452Y-48870D01*
X35413Y-48964D01*
X35413Y-49066D01*
X35452Y-49160D01*
X35524Y-49232D01*
X35618Y-49271D01*
X35719Y-49271D01*
X35813Y-49232D01*
X35885Y-49160D01*
X35924Y-49066D01*
X35924Y-48965D01*
X35924Y-49910D01*
X35886Y-49816D01*
X35814Y-49744D01*
X35720Y-49705D01*
X35618Y-49704D01*
X35524Y-49743D01*
X35452Y-49815D01*
X35413Y-49909D01*
X35413Y-50011D01*
X35452Y-50105D01*
X35524Y-50177D01*
X35618Y-50216D01*
X35719Y-50216D01*
X35813Y-50177D01*
X35885Y-50105D01*
X35924Y-50011D01*
X35924Y-49910D01*
X35924Y-52154D01*
X35886Y-52060D01*
X35814Y-51988D01*
X35720Y-51949D01*
X35618Y-51949D01*
X35524Y-51987D01*
X35452Y-52059D01*
X35413Y-52153D01*
X35413Y-52255D01*
X35452Y-52349D01*
X35524Y-52421D01*
X35618Y-52460D01*
X35719Y-52460D01*
X35813Y-52421D01*
X35885Y-52349D01*
X35924Y-52255D01*
X35924Y-52154D01*
X35924Y-54870D01*
X35886Y-54776D01*
X35814Y-54704D01*
X35720Y-54665D01*
X35618Y-54665D01*
X35524Y-54704D01*
X35452Y-54776D01*
X35413Y-54870D01*
X35413Y-54971D01*
X35452Y-55065D01*
X35524Y-55137D01*
X35618Y-55176D01*
X35719Y-55176D01*
X35813Y-55138D01*
X35885Y-55066D01*
X35924Y-54972D01*
X35924Y-54870D01*
X35924Y-55815D01*
X35886Y-55721D01*
X35814Y-55649D01*
X35720Y-55610D01*
X35618Y-55610D01*
X35524Y-55649D01*
X35452Y-55721D01*
X35413Y-55815D01*
X35413Y-55916D01*
X35452Y-56010D01*
X35524Y-56082D01*
X35618Y-56121D01*
X35719Y-56121D01*
X35813Y-56082D01*
X35885Y-56011D01*
X35924Y-55917D01*
X35924Y-55815D01*
X35924Y-68704D01*
X33385Y-68704D01*
X33385Y-57724D01*
X33346Y-57630D01*
X33294Y-57578D01*
X33346Y-57526D01*
X33385Y-57432D01*
X33385Y-57331D01*
X33385Y-50913D01*
X33346Y-50819D01*
X33274Y-50747D01*
X33208Y-50720D01*
X33208Y-43398D01*
X33208Y-40642D01*
X33128Y-40447D01*
X32978Y-40297D01*
X32783Y-40216D01*
X32571Y-40216D01*
X32376Y-40297D01*
X32226Y-40446D01*
X32145Y-40641D01*
X32145Y-40853D01*
X32226Y-41048D01*
X32375Y-41198D01*
X32570Y-41279D01*
X32782Y-41279D01*
X32977Y-41198D01*
X33127Y-41049D01*
X33208Y-40854D01*
X33208Y-40642D01*
X33208Y-43398D01*
X33128Y-43203D01*
X32978Y-43053D01*
X32783Y-42972D01*
X32571Y-42972D01*
X32376Y-43053D01*
X32226Y-43202D01*
X32145Y-43397D01*
X32145Y-43609D01*
X32226Y-43804D01*
X32375Y-43954D01*
X32570Y-44035D01*
X32782Y-44035D01*
X32977Y-43954D01*
X33127Y-43805D01*
X33208Y-43610D01*
X33208Y-43398D01*
X33208Y-50720D01*
X33180Y-50709D01*
X33079Y-50708D01*
X32985Y-50747D01*
X32913Y-50819D01*
X32874Y-50913D01*
X32874Y-51015D01*
X32913Y-51109D01*
X32984Y-51181D01*
X33078Y-51220D01*
X33180Y-51220D01*
X33274Y-51181D01*
X33346Y-51109D01*
X33385Y-51015D01*
X33385Y-50913D01*
X33385Y-57331D01*
X33346Y-57237D01*
X33274Y-57165D01*
X33180Y-57126D01*
X33079Y-57126D01*
X32985Y-57165D01*
X32913Y-57236D01*
X32874Y-57330D01*
X32874Y-57432D01*
X32913Y-57526D01*
X32965Y-57578D01*
X32913Y-57630D01*
X32874Y-57724D01*
X32874Y-57826D01*
X32913Y-57920D01*
X32984Y-57992D01*
X33078Y-58031D01*
X33180Y-58031D01*
X33274Y-57992D01*
X33346Y-57920D01*
X33385Y-57826D01*
X33385Y-57724D01*
X33385Y-68704D01*
X31338Y-68704D01*
X31338Y-66535D01*
X31338Y-65118D01*
X30137Y-65118D01*
X30137Y-43571D01*
X30098Y-43477D01*
X30026Y-43405D01*
X29932Y-43366D01*
X29831Y-43366D01*
X29737Y-43405D01*
X29665Y-43477D01*
X29626Y-43570D01*
X29626Y-43672D01*
X29665Y-43766D01*
X29736Y-43838D01*
X29830Y-43877D01*
X29932Y-43877D01*
X30026Y-43838D01*
X30098Y-43767D01*
X30137Y-43673D01*
X30137Y-43571D01*
X30137Y-65118D01*
X30019Y-65118D01*
X30019Y-48925D01*
X30019Y-47980D01*
X29980Y-47886D01*
X29908Y-47814D01*
X29814Y-47775D01*
X29713Y-47775D01*
X29619Y-47814D01*
X29547Y-47886D01*
X29508Y-47980D01*
X29508Y-48082D01*
X29546Y-48176D01*
X29618Y-48248D01*
X29712Y-48287D01*
X29814Y-48287D01*
X29908Y-48248D01*
X29980Y-48176D01*
X30019Y-48082D01*
X30019Y-47980D01*
X30019Y-48925D01*
X29980Y-48831D01*
X29908Y-48759D01*
X29814Y-48720D01*
X29713Y-48720D01*
X29619Y-48759D01*
X29547Y-48831D01*
X29508Y-48925D01*
X29508Y-49026D01*
X29546Y-49120D01*
X29618Y-49192D01*
X29712Y-49231D01*
X29814Y-49232D01*
X29908Y-49193D01*
X29980Y-49121D01*
X30019Y-49027D01*
X30019Y-48925D01*
X30019Y-65118D01*
X29468Y-65118D01*
X29468Y-48453D01*
X29429Y-48359D01*
X29357Y-48287D01*
X29263Y-48248D01*
X29161Y-48248D01*
X29067Y-48287D01*
X28996Y-48358D01*
X28957Y-48452D01*
X28956Y-48554D01*
X28995Y-48648D01*
X29067Y-48720D01*
X29161Y-48759D01*
X29263Y-48759D01*
X29357Y-48720D01*
X29429Y-48648D01*
X29468Y-48555D01*
X29468Y-48453D01*
X29468Y-65118D01*
X28484Y-65118D01*
X28484Y-48610D01*
X28445Y-48516D01*
X28373Y-48444D01*
X28279Y-48405D01*
X28177Y-48405D01*
X28163Y-48411D01*
X28168Y-48397D01*
X28169Y-48295D01*
X28162Y-48281D01*
X28177Y-48287D01*
X28278Y-48287D01*
X28372Y-48248D01*
X28444Y-48176D01*
X28483Y-48082D01*
X28484Y-47980D01*
X28445Y-47886D01*
X28373Y-47814D01*
X28279Y-47775D01*
X28177Y-47775D01*
X28083Y-47814D01*
X28011Y-47886D01*
X27972Y-47980D01*
X27972Y-48082D01*
X27978Y-48096D01*
X27964Y-48090D01*
X27862Y-48090D01*
X27768Y-48129D01*
X27696Y-48201D01*
X27657Y-48295D01*
X27657Y-48397D01*
X27696Y-48491D01*
X27768Y-48563D01*
X27862Y-48602D01*
X27964Y-48602D01*
X27978Y-48596D01*
X27972Y-48610D01*
X27972Y-48712D01*
X28011Y-48806D01*
X28083Y-48877D01*
X28177Y-48916D01*
X28278Y-48917D01*
X28372Y-48878D01*
X28444Y-48806D01*
X28483Y-48712D01*
X28484Y-48610D01*
X28484Y-65118D01*
X27559Y-65118D01*
X27559Y-66535D01*
X31338Y-66535D01*
X31338Y-68704D01*
X26422Y-68704D01*
X26422Y-67108D01*
X26247Y-66655D01*
X26215Y-66607D01*
X26069Y-66477D01*
X26041Y-66505D01*
X26041Y-66449D01*
X25912Y-66304D01*
X25468Y-66108D01*
X24982Y-66097D01*
X24529Y-66272D01*
X24481Y-66304D01*
X24351Y-66449D01*
X24451Y-66549D01*
X24586Y-66684D01*
X24614Y-66712D01*
X24749Y-66847D01*
X25196Y-67294D01*
X25644Y-66847D01*
X25644Y-66847D01*
X25779Y-66712D01*
X25807Y-66684D01*
X25941Y-66549D01*
X26041Y-66449D01*
X26041Y-66505D01*
X25969Y-66577D01*
X25834Y-66712D01*
X25807Y-66740D01*
X25672Y-66875D01*
X25224Y-67322D01*
X25672Y-67770D01*
X25807Y-67905D01*
X25834Y-67933D01*
X25969Y-68067D01*
X26069Y-68167D01*
X26215Y-68038D01*
X26411Y-67594D01*
X26422Y-67108D01*
X26422Y-68704D01*
X26041Y-68704D01*
X26041Y-68195D01*
X25941Y-68095D01*
X25807Y-67960D01*
X25779Y-67933D01*
X25644Y-67798D01*
X25196Y-67350D01*
X25169Y-67378D01*
X25169Y-67322D01*
X24721Y-66875D01*
X24586Y-66740D01*
X24558Y-66712D01*
X24423Y-66577D01*
X24324Y-66477D01*
X24178Y-66607D01*
X23982Y-67051D01*
X23971Y-67536D01*
X24146Y-67989D01*
X24178Y-68038D01*
X24324Y-68167D01*
X24423Y-68067D01*
X24423Y-68067D01*
X24558Y-67933D01*
X24586Y-67905D01*
X24721Y-67770D01*
X25169Y-67322D01*
X25169Y-67378D01*
X24749Y-67798D01*
X24614Y-67933D01*
X24586Y-67960D01*
X24451Y-68095D01*
X24351Y-68195D01*
X24481Y-68341D01*
X24925Y-68537D01*
X25410Y-68548D01*
X25863Y-68373D01*
X25912Y-68341D01*
X26041Y-68195D01*
X26041Y-68704D01*
X25215Y-68704D01*
X24669Y-68595D01*
X24222Y-68297D01*
X23923Y-67850D01*
X23815Y-67303D01*
X23815Y-62617D01*
X23863Y-62372D01*
X23991Y-62180D01*
X24183Y-62052D01*
X24428Y-62004D01*
X26377Y-62004D01*
X26396Y-62000D01*
X26415Y-62000D01*
X26566Y-61970D01*
X26566Y-61970D01*
X26635Y-61941D01*
X26635Y-61941D01*
X26763Y-61856D01*
X26763Y-61856D01*
X26763Y-61856D01*
X26816Y-61802D01*
X26816Y-61802D01*
X26902Y-61675D01*
X26931Y-61605D01*
X26931Y-61605D01*
X26961Y-61454D01*
X26961Y-61435D01*
X26964Y-61417D01*
X26964Y-49015D01*
X26961Y-48997D01*
X26961Y-48978D01*
X26931Y-48827D01*
X26931Y-48827D01*
X26902Y-48757D01*
X26816Y-48630D01*
X26816Y-48630D01*
X26763Y-48576D01*
X26763Y-48576D01*
X26635Y-48491D01*
X26566Y-48462D01*
X26566Y-48462D01*
X26554Y-48460D01*
X26554Y-46957D01*
X26516Y-46863D01*
X26463Y-46810D01*
X26515Y-46759D01*
X26554Y-46665D01*
X26554Y-46563D01*
X26554Y-45776D01*
X26554Y-44988D01*
X26516Y-44894D01*
X26463Y-44842D01*
X26515Y-44790D01*
X26554Y-44696D01*
X26554Y-44595D01*
X26516Y-44501D01*
X26463Y-44448D01*
X26515Y-44396D01*
X26554Y-44303D01*
X26554Y-44201D01*
X26516Y-44107D01*
X26444Y-44035D01*
X26422Y-44026D01*
X26422Y-40730D01*
X26247Y-40277D01*
X26215Y-40229D01*
X26069Y-40099D01*
X26041Y-40127D01*
X26041Y-40072D01*
X25912Y-39926D01*
X25468Y-39730D01*
X24982Y-39719D01*
X24529Y-39894D01*
X24481Y-39926D01*
X24351Y-40072D01*
X24451Y-40171D01*
X24451Y-40171D01*
X24586Y-40306D01*
X24614Y-40334D01*
X24749Y-40469D01*
X25196Y-40917D01*
X25644Y-40469D01*
X25779Y-40334D01*
X25807Y-40306D01*
X25941Y-40171D01*
X26041Y-40072D01*
X26041Y-40127D01*
X25969Y-40199D01*
X25834Y-40334D01*
X25807Y-40362D01*
X25672Y-40497D01*
X25224Y-40944D01*
X25672Y-41392D01*
X25672Y-41392D01*
X25807Y-41527D01*
X25834Y-41555D01*
X25969Y-41689D01*
X26069Y-41789D01*
X26215Y-41660D01*
X26411Y-41216D01*
X26422Y-40730D01*
X26422Y-44026D01*
X26350Y-43996D01*
X26248Y-43996D01*
X26154Y-44035D01*
X26082Y-44106D01*
X26043Y-44200D01*
X26043Y-44302D01*
X26082Y-44396D01*
X26134Y-44448D01*
X26082Y-44500D01*
X26043Y-44594D01*
X26043Y-44696D01*
X26082Y-44790D01*
X26134Y-44842D01*
X26082Y-44894D01*
X26043Y-44988D01*
X26043Y-45089D01*
X26082Y-45183D01*
X26154Y-45255D01*
X26248Y-45294D01*
X26349Y-45295D01*
X26443Y-45256D01*
X26515Y-45184D01*
X26554Y-45090D01*
X26554Y-44988D01*
X26554Y-45776D01*
X26516Y-45682D01*
X26444Y-45610D01*
X26350Y-45571D01*
X26248Y-45571D01*
X26154Y-45609D01*
X26082Y-45681D01*
X26043Y-45775D01*
X26043Y-45877D01*
X26082Y-45971D01*
X26154Y-46043D01*
X26248Y-46082D01*
X26349Y-46082D01*
X26443Y-46043D01*
X26515Y-45971D01*
X26554Y-45877D01*
X26554Y-45776D01*
X26554Y-46563D01*
X26516Y-46469D01*
X26444Y-46397D01*
X26350Y-46358D01*
X26248Y-46358D01*
X26154Y-46397D01*
X26082Y-46469D01*
X26043Y-46563D01*
X26043Y-46664D01*
X26082Y-46758D01*
X26134Y-46811D01*
X26082Y-46862D01*
X26043Y-46956D01*
X26043Y-47058D01*
X26082Y-47152D01*
X26154Y-47224D01*
X26248Y-47263D01*
X26349Y-47263D01*
X26443Y-47224D01*
X26515Y-47152D01*
X26554Y-47058D01*
X26554Y-46957D01*
X26554Y-48460D01*
X26415Y-48432D01*
X26396Y-48432D01*
X26377Y-48428D01*
X26041Y-48428D01*
X26041Y-41817D01*
X25941Y-41717D01*
X25807Y-41582D01*
X25779Y-41555D01*
X25644Y-41420D01*
X25644Y-41420D01*
X25196Y-40972D01*
X25169Y-41000D01*
X25169Y-40944D01*
X24721Y-40497D01*
X24586Y-40362D01*
X24558Y-40334D01*
X24423Y-40199D01*
X24423Y-40199D01*
X24324Y-40099D01*
X24178Y-40229D01*
X23982Y-40673D01*
X23971Y-41158D01*
X24146Y-41611D01*
X24178Y-41660D01*
X24324Y-41789D01*
X24423Y-41689D01*
X24558Y-41555D01*
X24586Y-41527D01*
X24721Y-41392D01*
X25169Y-40944D01*
X25169Y-41000D01*
X24749Y-41420D01*
X24614Y-41555D01*
X24586Y-41582D01*
X24451Y-41717D01*
X24351Y-41817D01*
X24481Y-41963D01*
X24925Y-42159D01*
X25410Y-42170D01*
X25863Y-41995D01*
X25912Y-41963D01*
X26041Y-41817D01*
X26041Y-48428D01*
X25846Y-48428D01*
X25846Y-45382D01*
X25807Y-45288D01*
X25735Y-45216D01*
X25641Y-45177D01*
X25539Y-45177D01*
X25445Y-45216D01*
X25373Y-45288D01*
X25334Y-45382D01*
X25334Y-45483D01*
X25373Y-45577D01*
X25445Y-45649D01*
X25539Y-45688D01*
X25641Y-45688D01*
X25735Y-45649D01*
X25807Y-45578D01*
X25846Y-45484D01*
X25846Y-45382D01*
X25846Y-48428D01*
X25098Y-48428D01*
X25098Y-45382D01*
X25059Y-45288D01*
X24987Y-45216D01*
X24893Y-45177D01*
X24791Y-45177D01*
X24697Y-45216D01*
X24625Y-45288D01*
X24586Y-45382D01*
X24586Y-45483D01*
X24625Y-45577D01*
X24697Y-45649D01*
X24791Y-45688D01*
X24893Y-45688D01*
X24987Y-45649D01*
X25059Y-45578D01*
X25098Y-45484D01*
X25098Y-45382D01*
X25098Y-48428D01*
X24428Y-48428D01*
X24183Y-48380D01*
X23991Y-48252D01*
X23863Y-48060D01*
X23815Y-47815D01*
X23815Y-40963D01*
X23923Y-40417D01*
X24222Y-39970D01*
X24669Y-39671D01*
X25215Y-39563D01*
X69272Y-39563D01*
X69818Y-39671D01*
X70265Y-39970D01*
X70564Y-40417D01*
X70673Y-40963D01*
X70673Y-67303D01*
X70673Y-67303D01*
G37*
G54D17*
X70673Y-67303D02*
X70564Y-67850D01*
X70517Y-67920D01*
X70517Y-67108D01*
X70517Y-40730D01*
X70341Y-40277D01*
X70309Y-40229D01*
X70164Y-40099D01*
X70136Y-40127D01*
X70136Y-40072D01*
X70006Y-39926D01*
X69562Y-39730D01*
X69077Y-39719D01*
X68624Y-39894D01*
X68575Y-39926D01*
X68446Y-40072D01*
X68546Y-40171D01*
X68681Y-40306D01*
X68708Y-40334D01*
X68843Y-40469D01*
X69291Y-40917D01*
X69738Y-40469D01*
X69873Y-40334D01*
X69901Y-40306D01*
X70036Y-40171D01*
X70136Y-40072D01*
X70136Y-40127D01*
X70064Y-40199D01*
X69929Y-40334D01*
X69901Y-40362D01*
X69766Y-40497D01*
X69319Y-40944D01*
X69766Y-41392D01*
X69901Y-41527D01*
X69929Y-41555D01*
X70064Y-41689D01*
X70164Y-41789D01*
X70309Y-41660D01*
X70505Y-41216D01*
X70517Y-40730D01*
X70517Y-67108D01*
X70341Y-66655D01*
X70309Y-66607D01*
X70164Y-66477D01*
X70136Y-66505D01*
X70136Y-66449D01*
X70136Y-41817D01*
X70036Y-41717D01*
X69901Y-41582D01*
X69873Y-41555D01*
X69738Y-41420D01*
X69291Y-40972D01*
X69263Y-41000D01*
X69263Y-40944D01*
X68815Y-40497D01*
X68681Y-40362D01*
X68653Y-40334D01*
X68518Y-40199D01*
X68418Y-40099D01*
X68273Y-40229D01*
X68076Y-40673D01*
X68065Y-41158D01*
X68240Y-41611D01*
X68273Y-41660D01*
X68418Y-41789D01*
X68518Y-41689D01*
X68653Y-41555D01*
X68681Y-41527D01*
X68815Y-41392D01*
X69263Y-40944D01*
X69263Y-41000D01*
X68843Y-41420D01*
X68708Y-41555D01*
X68681Y-41582D01*
X68546Y-41717D01*
X68446Y-41817D01*
X68575Y-41963D01*
X69020Y-42159D01*
X69505Y-42170D01*
X69958Y-41995D01*
X70006Y-41963D01*
X70136Y-41817D01*
X70136Y-66449D01*
X70006Y-66304D01*
X69822Y-66223D01*
X69822Y-60343D01*
X69783Y-60249D01*
X69711Y-60177D01*
X69617Y-60138D01*
X69516Y-60138D01*
X69422Y-60176D01*
X69350Y-60248D01*
X69311Y-60342D01*
X69311Y-60444D01*
X69350Y-60538D01*
X69421Y-60610D01*
X69515Y-60649D01*
X69617Y-60649D01*
X69711Y-60610D01*
X69783Y-60538D01*
X69822Y-60444D01*
X69822Y-60343D01*
X69822Y-66223D01*
X69562Y-66108D01*
X69271Y-66101D01*
X69271Y-45091D01*
X69191Y-44896D01*
X69041Y-44746D01*
X68846Y-44665D01*
X68634Y-44665D01*
X68439Y-44746D01*
X68289Y-44895D01*
X68208Y-45090D01*
X68208Y-45302D01*
X68289Y-45497D01*
X68438Y-45647D01*
X68633Y-45728D01*
X68845Y-45728D01*
X69040Y-45647D01*
X69190Y-45498D01*
X69271Y-45303D01*
X69271Y-45091D01*
X69271Y-66101D01*
X69077Y-66097D01*
X68956Y-66143D01*
X68956Y-60776D01*
X68956Y-59910D01*
X68917Y-59816D01*
X68845Y-59744D01*
X68751Y-59705D01*
X68650Y-59704D01*
X68556Y-59743D01*
X68484Y-59815D01*
X68445Y-59909D01*
X68445Y-60011D01*
X68483Y-60105D01*
X68555Y-60177D01*
X68649Y-60216D01*
X68751Y-60216D01*
X68845Y-60177D01*
X68917Y-60105D01*
X68956Y-60011D01*
X68956Y-59910D01*
X68956Y-60776D01*
X68917Y-60682D01*
X68845Y-60610D01*
X68751Y-60571D01*
X68650Y-60571D01*
X68556Y-60609D01*
X68484Y-60681D01*
X68445Y-60775D01*
X68445Y-60877D01*
X68483Y-60971D01*
X68555Y-61043D01*
X68649Y-61082D01*
X68751Y-61082D01*
X68845Y-61043D01*
X68917Y-60971D01*
X68956Y-60877D01*
X68956Y-60776D01*
X68956Y-66143D01*
X68624Y-66272D01*
X68575Y-66304D01*
X68446Y-66449D01*
X68546Y-66549D01*
X68681Y-66684D01*
X68708Y-66712D01*
X68708Y-66712D01*
X68843Y-66847D01*
X69291Y-67294D01*
X69738Y-66847D01*
X69738Y-66847D01*
X69873Y-66712D01*
X69901Y-66684D01*
X70036Y-66549D01*
X70136Y-66449D01*
X70136Y-66505D01*
X70064Y-66577D01*
X69929Y-66712D01*
X69901Y-66740D01*
X69766Y-66875D01*
X69319Y-67322D01*
X69766Y-67770D01*
X69901Y-67905D01*
X69929Y-67933D01*
X69929Y-67933D01*
X70064Y-68067D01*
X70164Y-68167D01*
X70309Y-68038D01*
X70505Y-67594D01*
X70517Y-67108D01*
X70517Y-67920D01*
X70265Y-68297D01*
X70136Y-68383D01*
X70136Y-68195D01*
X70036Y-68095D01*
X69901Y-67960D01*
X69901Y-67960D01*
X69873Y-67933D01*
X69738Y-67798D01*
X69291Y-67350D01*
X69263Y-67378D01*
X69263Y-67322D01*
X68815Y-66875D01*
X68681Y-66740D01*
X68681Y-66740D01*
X68653Y-66712D01*
X68518Y-66577D01*
X68418Y-66477D01*
X68273Y-66607D01*
X68173Y-66833D01*
X68173Y-60788D01*
X68173Y-51788D01*
X68089Y-51585D01*
X67934Y-51430D01*
X67732Y-51346D01*
X67512Y-51346D01*
X67310Y-51430D01*
X67155Y-51585D01*
X67070Y-51787D01*
X67070Y-52006D01*
X67154Y-52209D01*
X67309Y-52364D01*
X67511Y-52448D01*
X67731Y-52448D01*
X67933Y-52365D01*
X68089Y-52210D01*
X68173Y-52007D01*
X68173Y-51788D01*
X68173Y-60788D01*
X68089Y-60585D01*
X67934Y-60430D01*
X67732Y-60346D01*
X67512Y-60346D01*
X67310Y-60430D01*
X67155Y-60585D01*
X67070Y-60787D01*
X67070Y-61006D01*
X67154Y-61209D01*
X67309Y-61364D01*
X67511Y-61448D01*
X67731Y-61448D01*
X67933Y-61365D01*
X68089Y-61210D01*
X68173Y-61007D01*
X68173Y-60788D01*
X68173Y-66833D01*
X68076Y-67051D01*
X68065Y-67536D01*
X68240Y-67989D01*
X68273Y-68038D01*
X68418Y-68167D01*
X68518Y-68067D01*
X68518Y-68067D01*
X68653Y-67933D01*
X68681Y-67905D01*
X68815Y-67770D01*
X69263Y-67322D01*
X69263Y-67378D01*
X68843Y-67798D01*
X68708Y-67933D01*
X68681Y-67960D01*
X68546Y-68095D01*
X68446Y-68195D01*
X68575Y-68341D01*
X69020Y-68537D01*
X69505Y-68548D01*
X69958Y-68373D01*
X70006Y-68341D01*
X70136Y-68195D01*
X70136Y-68383D01*
X69818Y-68595D01*
X69272Y-68704D01*
X66515Y-68704D01*
X66515Y-45091D01*
X66435Y-44896D01*
X66285Y-44746D01*
X66090Y-44665D01*
X65878Y-44665D01*
X65683Y-44746D01*
X65533Y-44895D01*
X65452Y-45090D01*
X65452Y-45302D01*
X65533Y-45497D01*
X65682Y-45647D01*
X65878Y-45728D01*
X66089Y-45728D01*
X66284Y-45647D01*
X66434Y-45498D01*
X66515Y-45303D01*
X66515Y-45091D01*
X66515Y-68704D01*
X66173Y-68704D01*
X66173Y-64788D01*
X66089Y-64585D01*
X65934Y-64430D01*
X65767Y-64361D01*
X65767Y-60500D01*
X65728Y-60406D01*
X65656Y-60334D01*
X65562Y-60295D01*
X65461Y-60295D01*
X65367Y-60334D01*
X65295Y-60406D01*
X65295Y-60406D01*
X65295Y-59949D01*
X65256Y-59855D01*
X65184Y-59783D01*
X65090Y-59744D01*
X64988Y-59744D01*
X64933Y-59767D01*
X64933Y-55310D01*
X64853Y-55114D01*
X64851Y-55112D01*
X64777Y-55066D01*
X64749Y-55094D01*
X64749Y-55038D01*
X64703Y-54964D01*
X64548Y-54900D01*
X64548Y-50977D01*
X64468Y-50782D01*
X64318Y-50632D01*
X64123Y-50551D01*
X63912Y-50551D01*
X63716Y-50631D01*
X63567Y-50781D01*
X63485Y-50976D01*
X63485Y-51187D01*
X63566Y-51383D01*
X63715Y-51532D01*
X63911Y-51614D01*
X64122Y-51614D01*
X64317Y-51533D01*
X64467Y-51384D01*
X64548Y-51188D01*
X64548Y-50977D01*
X64548Y-54900D01*
X64508Y-54883D01*
X64297Y-54882D01*
X64101Y-54963D01*
X64099Y-54964D01*
X64053Y-55038D01*
X64401Y-55386D01*
X64749Y-55038D01*
X64749Y-55094D01*
X64429Y-55414D01*
X64777Y-55762D01*
X64851Y-55716D01*
X64932Y-55521D01*
X64933Y-55310D01*
X64933Y-59767D01*
X64894Y-59783D01*
X64822Y-59855D01*
X64783Y-59948D01*
X64783Y-60050D01*
X64822Y-60144D01*
X64894Y-60216D01*
X64988Y-60255D01*
X65089Y-60255D01*
X65183Y-60216D01*
X65255Y-60144D01*
X65294Y-60051D01*
X65295Y-59949D01*
X65295Y-60406D01*
X65256Y-60500D01*
X65256Y-60601D01*
X65294Y-60695D01*
X65366Y-60767D01*
X65460Y-60806D01*
X65562Y-60806D01*
X65656Y-60768D01*
X65728Y-60696D01*
X65767Y-60602D01*
X65767Y-60500D01*
X65767Y-64361D01*
X65732Y-64346D01*
X65512Y-64346D01*
X65310Y-64430D01*
X65155Y-64585D01*
X65070Y-64787D01*
X65070Y-65006D01*
X65154Y-65209D01*
X65309Y-65364D01*
X65511Y-65448D01*
X65731Y-65448D01*
X65933Y-65365D01*
X66089Y-65210D01*
X66173Y-65007D01*
X66173Y-64788D01*
X66173Y-68704D01*
X64822Y-68704D01*
X64822Y-60500D01*
X64783Y-60406D01*
X64749Y-60372D01*
X64749Y-55790D01*
X64401Y-55442D01*
X64373Y-55470D01*
X64373Y-55414D01*
X64025Y-55066D01*
X63951Y-55112D01*
X63870Y-55307D01*
X63869Y-55518D01*
X63950Y-55714D01*
X63951Y-55716D01*
X64025Y-55762D01*
X64373Y-55414D01*
X64373Y-55470D01*
X64053Y-55790D01*
X64099Y-55864D01*
X64294Y-55945D01*
X64505Y-55946D01*
X64701Y-55866D01*
X64703Y-55864D01*
X64749Y-55790D01*
X64749Y-60372D01*
X64711Y-60334D01*
X64617Y-60295D01*
X64516Y-60295D01*
X64422Y-60334D01*
X64350Y-60406D01*
X64311Y-60500D01*
X64311Y-60601D01*
X64350Y-60695D01*
X64421Y-60767D01*
X64515Y-60806D01*
X64617Y-60806D01*
X64711Y-60768D01*
X64783Y-60696D01*
X64822Y-60602D01*
X64822Y-60500D01*
X64822Y-68704D01*
X63231Y-68704D01*
X63231Y-58114D01*
X63231Y-49762D01*
X63081Y-49401D01*
X62805Y-49123D01*
X62443Y-48973D01*
X62051Y-48973D01*
X61690Y-49122D01*
X61412Y-49399D01*
X61262Y-49761D01*
X61262Y-50152D01*
X61411Y-50514D01*
X61688Y-50791D01*
X62050Y-50941D01*
X62441Y-50942D01*
X62803Y-50792D01*
X63080Y-50516D01*
X63230Y-50154D01*
X63231Y-49762D01*
X63231Y-58114D01*
X63081Y-57753D01*
X62805Y-57475D01*
X62443Y-57325D01*
X62051Y-57325D01*
X61690Y-57474D01*
X61412Y-57751D01*
X61262Y-58113D01*
X61262Y-58504D01*
X61411Y-58866D01*
X61688Y-59143D01*
X62050Y-59293D01*
X62441Y-59294D01*
X62803Y-59144D01*
X63080Y-58868D01*
X63230Y-58506D01*
X63231Y-58114D01*
X63231Y-68704D01*
X61830Y-68704D01*
X61830Y-63768D01*
X61791Y-63674D01*
X61719Y-63602D01*
X61625Y-63563D01*
X61524Y-63563D01*
X61430Y-63602D01*
X61358Y-63673D01*
X61358Y-63674D01*
X61358Y-62902D01*
X61319Y-62808D01*
X61247Y-62736D01*
X61180Y-62708D01*
X61180Y-51450D01*
X61099Y-51255D01*
X60950Y-51105D01*
X60755Y-51024D01*
X60543Y-51024D01*
X60348Y-51105D01*
X60198Y-51254D01*
X60117Y-51449D01*
X60117Y-51661D01*
X60197Y-51856D01*
X60347Y-52006D01*
X60542Y-52087D01*
X60754Y-52087D01*
X60949Y-52006D01*
X61099Y-51857D01*
X61180Y-51662D01*
X61180Y-51450D01*
X61180Y-62708D01*
X61153Y-62697D01*
X61118Y-62697D01*
X61121Y-62688D01*
X61121Y-62587D01*
X61121Y-61563D01*
X61082Y-61469D01*
X61011Y-61397D01*
X60917Y-61358D01*
X60815Y-61358D01*
X60721Y-61397D01*
X60649Y-61469D01*
X60610Y-61563D01*
X60610Y-61664D01*
X60649Y-61758D01*
X60721Y-61830D01*
X60815Y-61869D01*
X60916Y-61869D01*
X61010Y-61830D01*
X61082Y-61759D01*
X61121Y-61665D01*
X61121Y-61563D01*
X61121Y-62587D01*
X61082Y-62493D01*
X61011Y-62421D01*
X60917Y-62382D01*
X60815Y-62382D01*
X60721Y-62420D01*
X60649Y-62492D01*
X60610Y-62586D01*
X60610Y-62688D01*
X60649Y-62782D01*
X60721Y-62854D01*
X60815Y-62893D01*
X60850Y-62893D01*
X60846Y-62901D01*
X60846Y-63003D01*
X60885Y-63097D01*
X60957Y-63169D01*
X61051Y-63208D01*
X61152Y-63208D01*
X61246Y-63169D01*
X61318Y-63097D01*
X61357Y-63003D01*
X61358Y-62902D01*
X61358Y-63674D01*
X61319Y-63767D01*
X61319Y-63869D01*
X61357Y-63963D01*
X61429Y-64035D01*
X61523Y-64074D01*
X61625Y-64074D01*
X61719Y-64035D01*
X61791Y-63963D01*
X61830Y-63869D01*
X61830Y-63768D01*
X61830Y-68704D01*
X60924Y-68704D01*
X60924Y-63768D01*
X60886Y-63674D01*
X60814Y-63602D01*
X60720Y-63563D01*
X60618Y-63563D01*
X60531Y-63599D01*
X60531Y-62075D01*
X60492Y-61981D01*
X60420Y-61909D01*
X60326Y-61870D01*
X60224Y-61870D01*
X60130Y-61909D01*
X60059Y-61981D01*
X60022Y-62069D01*
X60022Y-60386D01*
X59941Y-60191D01*
X59835Y-60085D01*
X59835Y-52779D01*
X59757Y-52591D01*
X59613Y-52447D01*
X59425Y-52369D01*
X59222Y-52369D01*
X59034Y-52446D01*
X58889Y-52590D01*
X58811Y-52778D01*
X58811Y-52982D01*
X58889Y-53170D01*
X59033Y-53314D01*
X59221Y-53392D01*
X59424Y-53393D01*
X59613Y-53315D01*
X59757Y-53171D01*
X59835Y-52983D01*
X59835Y-52779D01*
X59835Y-60085D01*
X59792Y-60041D01*
X59596Y-59960D01*
X59385Y-59960D01*
X59189Y-60041D01*
X59040Y-60190D01*
X59039Y-60192D01*
X59039Y-54465D01*
X58958Y-54270D01*
X58809Y-54120D01*
X58614Y-54039D01*
X58402Y-54039D01*
X58295Y-54083D01*
X58295Y-42599D01*
X58235Y-42454D01*
X58124Y-42343D01*
X57980Y-42283D01*
X57823Y-42283D01*
X57678Y-42343D01*
X57568Y-42453D01*
X57507Y-42598D01*
X57507Y-42755D01*
X57567Y-42899D01*
X57678Y-43010D01*
X57822Y-43070D01*
X57979Y-43070D01*
X58124Y-43011D01*
X58235Y-42900D01*
X58295Y-42755D01*
X58295Y-42599D01*
X58295Y-54083D01*
X58207Y-54120D01*
X58057Y-54269D01*
X57976Y-54464D01*
X57976Y-54676D01*
X58057Y-54871D01*
X58206Y-55021D01*
X58401Y-55102D01*
X58613Y-55102D01*
X58808Y-55021D01*
X58958Y-54872D01*
X59039Y-54677D01*
X59039Y-54465D01*
X59039Y-60192D01*
X58959Y-60385D01*
X58958Y-60597D01*
X59039Y-60792D01*
X59189Y-60942D01*
X59384Y-61023D01*
X59595Y-61023D01*
X59791Y-60942D01*
X59940Y-60793D01*
X60021Y-60598D01*
X60022Y-60386D01*
X60022Y-62069D01*
X60020Y-62074D01*
X60019Y-62176D01*
X60058Y-62270D01*
X60130Y-62342D01*
X60224Y-62381D01*
X60326Y-62381D01*
X60420Y-62342D01*
X60492Y-62270D01*
X60531Y-62177D01*
X60531Y-62075D01*
X60531Y-63599D01*
X60524Y-63602D01*
X60452Y-63673D01*
X60413Y-63767D01*
X60413Y-63869D01*
X60452Y-63963D01*
X60524Y-64035D01*
X60618Y-64074D01*
X60719Y-64074D01*
X60813Y-64035D01*
X60885Y-63963D01*
X60924Y-63869D01*
X60924Y-63768D01*
X60924Y-68704D01*
X59901Y-68704D01*
X59901Y-61563D01*
X59862Y-61469D01*
X59790Y-61397D01*
X59696Y-61358D01*
X59595Y-61358D01*
X59501Y-61397D01*
X59429Y-61469D01*
X59390Y-61563D01*
X59390Y-61664D01*
X59428Y-61758D01*
X59500Y-61830D01*
X59594Y-61869D01*
X59696Y-61869D01*
X59790Y-61830D01*
X59862Y-61759D01*
X59901Y-61665D01*
X59901Y-61563D01*
X59901Y-68704D01*
X59350Y-68704D01*
X59350Y-61563D01*
X59311Y-61469D01*
X59239Y-61397D01*
X59145Y-61358D01*
X59043Y-61358D01*
X58949Y-61397D01*
X58877Y-61469D01*
X58838Y-61563D01*
X58838Y-61664D01*
X58877Y-61758D01*
X58949Y-61830D01*
X59043Y-61869D01*
X59145Y-61869D01*
X59239Y-61830D01*
X59311Y-61759D01*
X59350Y-61665D01*
X59350Y-61563D01*
X59350Y-68704D01*
X58720Y-68704D01*
X58720Y-61563D01*
X58681Y-61469D01*
X58609Y-61397D01*
X58515Y-61358D01*
X58413Y-61358D01*
X58319Y-61397D01*
X58247Y-61469D01*
X58209Y-61563D01*
X58208Y-61664D01*
X58247Y-61758D01*
X58319Y-61830D01*
X58413Y-61869D01*
X58515Y-61869D01*
X58609Y-61830D01*
X58681Y-61759D01*
X58720Y-61665D01*
X58720Y-61563D01*
X58720Y-68704D01*
X58169Y-68704D01*
X58169Y-61563D01*
X58130Y-61469D01*
X58058Y-61397D01*
X57964Y-61358D01*
X57862Y-61358D01*
X57768Y-61397D01*
X57696Y-61469D01*
X57657Y-61563D01*
X57657Y-61664D01*
X57696Y-61758D01*
X57768Y-61830D01*
X57862Y-61869D01*
X57964Y-61869D01*
X58057Y-61830D01*
X58129Y-61759D01*
X58168Y-61665D01*
X58169Y-61563D01*
X58169Y-68704D01*
X57657Y-68704D01*
X57657Y-46091D01*
X57657Y-43571D01*
X57618Y-43477D01*
X57546Y-43405D01*
X57452Y-43366D01*
X57350Y-43366D01*
X57296Y-43389D01*
X57296Y-42751D01*
X57294Y-42595D01*
X57237Y-42457D01*
X57178Y-42428D01*
X57150Y-42456D01*
X57150Y-42400D01*
X57121Y-42341D01*
X56976Y-42282D01*
X56819Y-42284D01*
X56681Y-42341D01*
X56652Y-42400D01*
X56901Y-42649D01*
X57150Y-42400D01*
X57150Y-42456D01*
X56929Y-42677D01*
X57178Y-42925D01*
X57237Y-42896D01*
X57296Y-42751D01*
X57296Y-43389D01*
X57256Y-43405D01*
X57185Y-43477D01*
X57150Y-43560D01*
X57150Y-42953D01*
X56901Y-42705D01*
X56873Y-42732D01*
X56873Y-42677D01*
X56625Y-42428D01*
X56565Y-42457D01*
X56507Y-42602D01*
X56508Y-42759D01*
X56565Y-42896D01*
X56625Y-42925D01*
X56873Y-42677D01*
X56873Y-42732D01*
X56652Y-42953D01*
X56681Y-43013D01*
X56827Y-43071D01*
X56983Y-43070D01*
X57121Y-43013D01*
X57150Y-42953D01*
X57150Y-43560D01*
X57146Y-43570D01*
X57145Y-43672D01*
X57184Y-43766D01*
X57256Y-43838D01*
X57350Y-43877D01*
X57452Y-43877D01*
X57546Y-43838D01*
X57618Y-43767D01*
X57657Y-43673D01*
X57657Y-43571D01*
X57657Y-46091D01*
X57618Y-45997D01*
X57546Y-45925D01*
X57452Y-45886D01*
X57350Y-45886D01*
X57256Y-45924D01*
X57185Y-45996D01*
X57146Y-46090D01*
X57145Y-46192D01*
X57184Y-46286D01*
X57256Y-46358D01*
X57350Y-46397D01*
X57452Y-46397D01*
X57546Y-46358D01*
X57618Y-46286D01*
X57657Y-46192D01*
X57657Y-46091D01*
X57657Y-68704D01*
X57330Y-68704D01*
X57330Y-55285D01*
X57252Y-55097D01*
X57182Y-55027D01*
X57182Y-47670D01*
X57102Y-47474D01*
X56952Y-47325D01*
X56757Y-47244D01*
X56712Y-47244D01*
X56712Y-46091D01*
X56712Y-43571D01*
X56673Y-43477D01*
X56601Y-43405D01*
X56507Y-43366D01*
X56406Y-43366D01*
X56312Y-43405D01*
X56240Y-43477D01*
X56201Y-43570D01*
X56201Y-43672D01*
X56239Y-43766D01*
X56311Y-43838D01*
X56405Y-43877D01*
X56507Y-43877D01*
X56601Y-43838D01*
X56673Y-43767D01*
X56712Y-43673D01*
X56712Y-43571D01*
X56712Y-46091D01*
X56673Y-45997D01*
X56601Y-45925D01*
X56507Y-45886D01*
X56406Y-45886D01*
X56312Y-45924D01*
X56240Y-45996D01*
X56217Y-46052D01*
X56207Y-46043D01*
X56114Y-46004D01*
X56012Y-46004D01*
X55924Y-46040D01*
X55924Y-42862D01*
X55886Y-42768D01*
X55814Y-42696D01*
X55720Y-42657D01*
X55618Y-42657D01*
X55524Y-42696D01*
X55452Y-42768D01*
X55413Y-42862D01*
X55413Y-42964D01*
X55452Y-43057D01*
X55524Y-43129D01*
X55618Y-43168D01*
X55719Y-43169D01*
X55813Y-43130D01*
X55885Y-43058D01*
X55924Y-42964D01*
X55924Y-42862D01*
X55924Y-46040D01*
X55918Y-46043D01*
X55846Y-46114D01*
X55807Y-46208D01*
X55807Y-46310D01*
X55846Y-46404D01*
X55918Y-46476D01*
X56011Y-46515D01*
X56113Y-46515D01*
X56207Y-46476D01*
X56279Y-46404D01*
X56302Y-46349D01*
X56311Y-46358D01*
X56405Y-46397D01*
X56507Y-46397D01*
X56601Y-46358D01*
X56673Y-46286D01*
X56712Y-46192D01*
X56712Y-46091D01*
X56712Y-47244D01*
X56545Y-47244D01*
X56350Y-47324D01*
X56318Y-47356D01*
X56318Y-46799D01*
X56279Y-46705D01*
X56207Y-46633D01*
X56114Y-46594D01*
X56012Y-46594D01*
X55918Y-46633D01*
X55846Y-46705D01*
X55807Y-46799D01*
X55807Y-46901D01*
X55846Y-46994D01*
X55918Y-47066D01*
X56011Y-47105D01*
X56113Y-47106D01*
X56207Y-47067D01*
X56279Y-46995D01*
X56318Y-46901D01*
X56318Y-46799D01*
X56318Y-47356D01*
X56200Y-47474D01*
X56119Y-47669D01*
X56119Y-47880D01*
X56200Y-48076D01*
X56349Y-48225D01*
X56544Y-48306D01*
X56756Y-48307D01*
X56951Y-48226D01*
X57101Y-48077D01*
X57182Y-47881D01*
X57182Y-47670D01*
X57182Y-55027D01*
X57108Y-54952D01*
X56920Y-54874D01*
X56716Y-54874D01*
X56528Y-54952D01*
X56384Y-55096D01*
X56306Y-55284D01*
X56306Y-55487D01*
X56383Y-55676D01*
X56527Y-55820D01*
X56715Y-55898D01*
X56919Y-55898D01*
X57107Y-55820D01*
X57251Y-55676D01*
X57329Y-55488D01*
X57330Y-55285D01*
X57330Y-68704D01*
X56024Y-68704D01*
X56024Y-56607D01*
X56024Y-56607D01*
X56024Y-51450D01*
X55943Y-51255D01*
X55794Y-51105D01*
X55767Y-51094D01*
X55767Y-44043D01*
X55728Y-43949D01*
X55656Y-43877D01*
X55562Y-43838D01*
X55461Y-43838D01*
X55367Y-43877D01*
X55314Y-43929D01*
X55263Y-43877D01*
X55169Y-43838D01*
X55067Y-43838D01*
X54973Y-43877D01*
X54940Y-43910D01*
X54908Y-43877D01*
X54814Y-43838D01*
X54713Y-43838D01*
X54619Y-43877D01*
X54547Y-43949D01*
X54508Y-44043D01*
X54508Y-44145D01*
X54546Y-44239D01*
X54618Y-44311D01*
X54712Y-44350D01*
X54814Y-44350D01*
X54908Y-44311D01*
X54940Y-44278D01*
X54973Y-44311D01*
X55067Y-44350D01*
X55168Y-44350D01*
X55262Y-44311D01*
X55314Y-44259D01*
X55366Y-44311D01*
X55460Y-44350D01*
X55562Y-44350D01*
X55656Y-44311D01*
X55728Y-44239D01*
X55767Y-44145D01*
X55767Y-44043D01*
X55767Y-51094D01*
X55599Y-51024D01*
X55491Y-51024D01*
X55491Y-47311D01*
X55453Y-47217D01*
X55400Y-47165D01*
X55452Y-47113D01*
X55491Y-47019D01*
X55491Y-46917D01*
X55491Y-45618D01*
X55453Y-45524D01*
X55381Y-45452D01*
X55287Y-45413D01*
X55185Y-45413D01*
X55091Y-45452D01*
X55019Y-45524D01*
X54980Y-45618D01*
X54980Y-45719D01*
X55019Y-45813D01*
X55091Y-45885D01*
X55185Y-45924D01*
X55286Y-45924D01*
X55380Y-45886D01*
X55452Y-45814D01*
X55491Y-45720D01*
X55491Y-45618D01*
X55491Y-46917D01*
X55453Y-46823D01*
X55381Y-46751D01*
X55287Y-46712D01*
X55185Y-46712D01*
X55091Y-46751D01*
X55019Y-46823D01*
X54980Y-46917D01*
X54980Y-47019D01*
X55019Y-47113D01*
X55071Y-47165D01*
X55019Y-47217D01*
X54980Y-47311D01*
X54980Y-47412D01*
X55019Y-47506D01*
X55091Y-47578D01*
X55185Y-47617D01*
X55286Y-47617D01*
X55380Y-47579D01*
X55452Y-47507D01*
X55491Y-47413D01*
X55491Y-47311D01*
X55491Y-51024D01*
X55387Y-51024D01*
X55192Y-51105D01*
X55042Y-51254D01*
X54961Y-51449D01*
X54961Y-51661D01*
X55042Y-51856D01*
X55191Y-52006D01*
X55386Y-52087D01*
X55598Y-52087D01*
X55793Y-52006D01*
X55943Y-51857D01*
X56024Y-51662D01*
X56024Y-51450D01*
X56024Y-56607D01*
X55944Y-56412D01*
X55942Y-56409D01*
X55868Y-56363D01*
X55841Y-56391D01*
X55841Y-56335D01*
X55795Y-56262D01*
X55600Y-56180D01*
X55388Y-56180D01*
X55193Y-56260D01*
X55190Y-56262D01*
X55144Y-56335D01*
X55492Y-56683D01*
X55841Y-56335D01*
X55841Y-56391D01*
X55520Y-56711D01*
X55868Y-57059D01*
X55942Y-57014D01*
X56024Y-56819D01*
X56024Y-56607D01*
X56024Y-68704D01*
X55841Y-68704D01*
X55841Y-57087D01*
X55492Y-56739D01*
X55465Y-56767D01*
X55465Y-56711D01*
X55116Y-56363D01*
X55043Y-56409D01*
X54961Y-56604D01*
X54961Y-56815D01*
X55041Y-57011D01*
X55043Y-57014D01*
X55116Y-57059D01*
X55465Y-56711D01*
X55465Y-56767D01*
X55144Y-57087D01*
X55190Y-57161D01*
X55385Y-57242D01*
X55597Y-57243D01*
X55792Y-57163D01*
X55795Y-57161D01*
X55841Y-57087D01*
X55841Y-68704D01*
X55173Y-68704D01*
X55173Y-64788D01*
X55089Y-64585D01*
X54934Y-64430D01*
X54879Y-64407D01*
X54879Y-58114D01*
X54879Y-49762D01*
X54729Y-49401D01*
X54507Y-49178D01*
X54507Y-44398D01*
X54468Y-44304D01*
X54396Y-44232D01*
X54303Y-44193D01*
X54201Y-44193D01*
X54107Y-44231D01*
X54035Y-44303D01*
X53996Y-44397D01*
X53996Y-44499D01*
X54035Y-44593D01*
X54106Y-44665D01*
X54200Y-44704D01*
X54302Y-44704D01*
X54396Y-44665D01*
X54468Y-44593D01*
X54507Y-44499D01*
X54507Y-44398D01*
X54507Y-49178D01*
X54453Y-49123D01*
X54232Y-49032D01*
X54232Y-46799D01*
X54193Y-46705D01*
X54121Y-46633D01*
X54027Y-46594D01*
X53925Y-46594D01*
X53831Y-46633D01*
X53759Y-46705D01*
X53720Y-46799D01*
X53720Y-46901D01*
X53759Y-46994D01*
X53831Y-47066D01*
X53925Y-47105D01*
X54026Y-47106D01*
X54120Y-47067D01*
X54192Y-46995D01*
X54231Y-46901D01*
X54232Y-46799D01*
X54232Y-49032D01*
X54192Y-49015D01*
X54192Y-47980D01*
X54153Y-47886D01*
X54081Y-47814D01*
X53988Y-47775D01*
X53886Y-47775D01*
X53792Y-47814D01*
X53720Y-47886D01*
X53681Y-47980D01*
X53681Y-48082D01*
X53720Y-48176D01*
X53792Y-48248D01*
X53885Y-48287D01*
X53987Y-48287D01*
X54081Y-48248D01*
X54153Y-48176D01*
X54192Y-48082D01*
X54192Y-47980D01*
X54192Y-49015D01*
X54091Y-48973D01*
X53699Y-48973D01*
X53641Y-48997D01*
X53641Y-47508D01*
X53602Y-47414D01*
X53530Y-47342D01*
X53436Y-47303D01*
X53335Y-47303D01*
X53241Y-47342D01*
X53169Y-47414D01*
X53130Y-47507D01*
X53130Y-47609D01*
X53169Y-47703D01*
X53240Y-47775D01*
X53334Y-47814D01*
X53436Y-47814D01*
X53530Y-47775D01*
X53602Y-47704D01*
X53641Y-47610D01*
X53641Y-47508D01*
X53641Y-48997D01*
X53338Y-49122D01*
X53060Y-49399D01*
X52910Y-49761D01*
X52910Y-50152D01*
X53059Y-50514D01*
X53336Y-50791D01*
X53698Y-50941D01*
X54089Y-50942D01*
X54451Y-50792D01*
X54728Y-50516D01*
X54878Y-50154D01*
X54879Y-49762D01*
X54879Y-58114D01*
X54729Y-57753D01*
X54453Y-57475D01*
X54091Y-57325D01*
X53699Y-57325D01*
X53338Y-57474D01*
X53060Y-57751D01*
X52910Y-58113D01*
X52910Y-58504D01*
X53059Y-58866D01*
X53336Y-59143D01*
X53698Y-59293D01*
X54089Y-59294D01*
X54451Y-59144D01*
X54728Y-58868D01*
X54878Y-58506D01*
X54879Y-58114D01*
X54879Y-64407D01*
X54732Y-64346D01*
X54512Y-64346D01*
X54310Y-64430D01*
X54155Y-64585D01*
X54070Y-64787D01*
X54070Y-65006D01*
X54154Y-65209D01*
X54309Y-65364D01*
X54511Y-65448D01*
X54501Y-65452D01*
X54429Y-65524D01*
X54390Y-65618D01*
X54390Y-65719D01*
X54428Y-65813D01*
X54481Y-65866D01*
X54429Y-65918D01*
X54390Y-66011D01*
X54390Y-66113D01*
X54428Y-66207D01*
X54500Y-66279D01*
X54594Y-66318D01*
X54696Y-66318D01*
X54790Y-66279D01*
X54862Y-66207D01*
X54901Y-66114D01*
X54901Y-66012D01*
X54862Y-65918D01*
X54810Y-65866D01*
X54862Y-65814D01*
X54901Y-65720D01*
X54901Y-65618D01*
X54862Y-65524D01*
X54790Y-65452D01*
X54756Y-65438D01*
X54933Y-65365D01*
X55089Y-65210D01*
X55173Y-65007D01*
X55173Y-64788D01*
X55173Y-68704D01*
X52655Y-68704D01*
X52655Y-57079D01*
X52617Y-56987D01*
X52617Y-46799D01*
X52579Y-46705D01*
X52507Y-46633D01*
X52413Y-46594D01*
X52381Y-46594D01*
X52381Y-46209D01*
X52342Y-46115D01*
X52270Y-46043D01*
X52177Y-46004D01*
X52075Y-46004D01*
X51981Y-46043D01*
X51971Y-46052D01*
X51949Y-45997D01*
X51877Y-45925D01*
X51783Y-45886D01*
X51681Y-45886D01*
X51587Y-45924D01*
X51515Y-45996D01*
X51476Y-46090D01*
X51476Y-46192D01*
X51515Y-46286D01*
X51587Y-46358D01*
X51681Y-46397D01*
X51782Y-46397D01*
X51876Y-46358D01*
X51886Y-46349D01*
X51909Y-46404D01*
X51981Y-46476D01*
X52074Y-46515D01*
X52176Y-46515D01*
X52270Y-46476D01*
X52342Y-46404D01*
X52381Y-46310D01*
X52381Y-46209D01*
X52381Y-46594D01*
X52311Y-46594D01*
X52217Y-46633D01*
X52145Y-46705D01*
X52106Y-46799D01*
X52106Y-46901D01*
X52145Y-46994D01*
X52217Y-47066D01*
X52311Y-47105D01*
X52412Y-47106D01*
X52506Y-47067D01*
X52578Y-46995D01*
X52617Y-46901D01*
X52617Y-46799D01*
X52617Y-56987D01*
X52575Y-56884D01*
X52425Y-56734D01*
X52230Y-56653D01*
X52019Y-56653D01*
X51823Y-56734D01*
X51791Y-56766D01*
X51791Y-52350D01*
X51791Y-48453D01*
X51752Y-48359D01*
X51680Y-48287D01*
X51586Y-48248D01*
X51515Y-48248D01*
X51515Y-46642D01*
X51476Y-46548D01*
X51404Y-46476D01*
X51310Y-46437D01*
X51209Y-46437D01*
X51115Y-46476D01*
X51043Y-46547D01*
X51043Y-46548D01*
X51043Y-46091D01*
X51004Y-45997D01*
X50932Y-45925D01*
X50838Y-45886D01*
X50832Y-45886D01*
X50832Y-40730D01*
X50656Y-40277D01*
X50624Y-40229D01*
X50479Y-40099D01*
X50451Y-40127D01*
X50451Y-40072D01*
X50321Y-39926D01*
X49877Y-39730D01*
X49392Y-39719D01*
X48939Y-39894D01*
X48890Y-39926D01*
X48761Y-40072D01*
X48861Y-40171D01*
X48861Y-40171D01*
X48996Y-40306D01*
X49023Y-40334D01*
X49158Y-40469D01*
X49606Y-40917D01*
X50053Y-40469D01*
X50188Y-40334D01*
X50216Y-40306D01*
X50351Y-40171D01*
X50451Y-40072D01*
X50451Y-40127D01*
X50379Y-40199D01*
X50244Y-40334D01*
X50216Y-40362D01*
X50081Y-40497D01*
X49634Y-40944D01*
X50081Y-41392D01*
X50081Y-41392D01*
X50216Y-41527D01*
X50244Y-41555D01*
X50379Y-41689D01*
X50479Y-41789D01*
X50624Y-41660D01*
X50820Y-41216D01*
X50832Y-40730D01*
X50832Y-45886D01*
X50736Y-45886D01*
X50642Y-45924D01*
X50570Y-45996D01*
X50531Y-46090D01*
X50531Y-46192D01*
X50570Y-46286D01*
X50642Y-46358D01*
X50736Y-46397D01*
X50838Y-46397D01*
X50932Y-46358D01*
X51003Y-46286D01*
X51042Y-46192D01*
X51043Y-46091D01*
X51043Y-46548D01*
X51004Y-46641D01*
X51004Y-46743D01*
X51043Y-46837D01*
X51114Y-46909D01*
X51208Y-46948D01*
X51310Y-46948D01*
X51404Y-46909D01*
X51476Y-46837D01*
X51515Y-46743D01*
X51515Y-46642D01*
X51515Y-48248D01*
X51484Y-48248D01*
X51390Y-48287D01*
X51318Y-48358D01*
X51279Y-48452D01*
X51279Y-48554D01*
X51318Y-48648D01*
X51390Y-48720D01*
X51484Y-48759D01*
X51586Y-48759D01*
X51680Y-48720D01*
X51752Y-48648D01*
X51790Y-48555D01*
X51791Y-48453D01*
X51791Y-52350D01*
X51752Y-52256D01*
X51680Y-52185D01*
X51586Y-52146D01*
X51484Y-52145D01*
X51390Y-52184D01*
X51318Y-52256D01*
X51279Y-52350D01*
X51279Y-52452D01*
X51318Y-52546D01*
X51390Y-52618D01*
X51484Y-52657D01*
X51586Y-52657D01*
X51680Y-52618D01*
X51752Y-52546D01*
X51790Y-52452D01*
X51791Y-52350D01*
X51791Y-56766D01*
X51674Y-56883D01*
X51593Y-57078D01*
X51592Y-57290D01*
X51673Y-57485D01*
X51822Y-57635D01*
X52018Y-57716D01*
X52229Y-57716D01*
X52425Y-57635D01*
X52574Y-57486D01*
X52655Y-57291D01*
X52655Y-57079D01*
X52655Y-68704D01*
X52617Y-68704D01*
X52617Y-59398D01*
X52579Y-59304D01*
X52507Y-59232D01*
X52413Y-59193D01*
X52311Y-59193D01*
X52217Y-59231D01*
X52145Y-59303D01*
X52106Y-59397D01*
X52106Y-59499D01*
X52145Y-59593D01*
X52217Y-59665D01*
X52311Y-59704D01*
X52412Y-59704D01*
X52506Y-59665D01*
X52578Y-59593D01*
X52617Y-59499D01*
X52617Y-59398D01*
X52617Y-68704D01*
X50806Y-68704D01*
X50806Y-61347D01*
X50806Y-60343D01*
X50806Y-59319D01*
X50768Y-59225D01*
X50696Y-59153D01*
X50602Y-59114D01*
X50500Y-59114D01*
X50451Y-59134D01*
X50451Y-41817D01*
X50351Y-41717D01*
X50216Y-41582D01*
X50188Y-41555D01*
X50053Y-41420D01*
X50053Y-41420D01*
X49606Y-40972D01*
X49578Y-41000D01*
X49578Y-40944D01*
X49130Y-40497D01*
X48996Y-40362D01*
X48968Y-40334D01*
X48833Y-40199D01*
X48833Y-40199D01*
X48733Y-40099D01*
X48588Y-40229D01*
X48391Y-40673D01*
X48380Y-41158D01*
X48555Y-41611D01*
X48588Y-41660D01*
X48733Y-41789D01*
X48833Y-41689D01*
X48968Y-41555D01*
X48996Y-41527D01*
X49130Y-41392D01*
X49578Y-40944D01*
X49578Y-41000D01*
X49158Y-41420D01*
X49023Y-41555D01*
X48996Y-41582D01*
X48861Y-41717D01*
X48761Y-41817D01*
X48890Y-41963D01*
X49334Y-42159D01*
X49820Y-42170D01*
X50273Y-41995D01*
X50321Y-41963D01*
X50451Y-41817D01*
X50451Y-59134D01*
X50406Y-59153D01*
X50334Y-59225D01*
X50295Y-59319D01*
X50295Y-59420D01*
X50334Y-59514D01*
X50406Y-59586D01*
X50500Y-59625D01*
X50601Y-59625D01*
X50695Y-59586D01*
X50767Y-59515D01*
X50806Y-59421D01*
X50806Y-59319D01*
X50806Y-60343D01*
X50768Y-60249D01*
X50696Y-60177D01*
X50602Y-60138D01*
X50500Y-60138D01*
X50406Y-60176D01*
X50334Y-60248D01*
X50295Y-60342D01*
X50295Y-60444D01*
X50334Y-60538D01*
X50406Y-60610D01*
X50500Y-60649D01*
X50601Y-60649D01*
X50695Y-60610D01*
X50767Y-60538D01*
X50806Y-60444D01*
X50806Y-60343D01*
X50806Y-61347D01*
X50768Y-61253D01*
X50696Y-61181D01*
X50602Y-61142D01*
X50500Y-61141D01*
X50406Y-61180D01*
X50334Y-61252D01*
X50295Y-61346D01*
X50295Y-61448D01*
X50334Y-61542D01*
X50406Y-61614D01*
X50500Y-61653D01*
X50601Y-61653D01*
X50695Y-61614D01*
X50767Y-61542D01*
X50806Y-61448D01*
X50806Y-61347D01*
X50806Y-68704D01*
X49960Y-68704D01*
X49960Y-61760D01*
X49960Y-60933D01*
X49921Y-60839D01*
X49849Y-60767D01*
X49755Y-60728D01*
X49654Y-60728D01*
X49560Y-60767D01*
X49488Y-60839D01*
X49449Y-60933D01*
X49449Y-61034D01*
X49487Y-61128D01*
X49559Y-61200D01*
X49653Y-61239D01*
X49755Y-61239D01*
X49849Y-61201D01*
X49921Y-61129D01*
X49960Y-61035D01*
X49960Y-60933D01*
X49960Y-61760D01*
X49921Y-61666D01*
X49849Y-61594D01*
X49755Y-61555D01*
X49654Y-61555D01*
X49560Y-61594D01*
X49488Y-61666D01*
X49449Y-61759D01*
X49449Y-61861D01*
X49487Y-61955D01*
X49559Y-62027D01*
X49653Y-62066D01*
X49755Y-62066D01*
X49849Y-62027D01*
X49921Y-61956D01*
X49960Y-61862D01*
X49960Y-61760D01*
X49960Y-68704D01*
X49665Y-68704D01*
X49665Y-62508D01*
X49626Y-62414D01*
X49554Y-62342D01*
X49460Y-62303D01*
X49358Y-62303D01*
X49264Y-62342D01*
X49192Y-62414D01*
X49173Y-62461D01*
X49173Y-60788D01*
X49173Y-51788D01*
X49089Y-51585D01*
X48934Y-51430D01*
X48732Y-51346D01*
X48512Y-51346D01*
X48310Y-51430D01*
X48155Y-51585D01*
X48070Y-51787D01*
X48070Y-52006D01*
X48154Y-52209D01*
X48309Y-52364D01*
X48511Y-52448D01*
X48731Y-52448D01*
X48933Y-52365D01*
X49089Y-52210D01*
X49173Y-52007D01*
X49173Y-51788D01*
X49173Y-60788D01*
X49113Y-60644D01*
X49113Y-57350D01*
X49075Y-57256D01*
X49003Y-57185D01*
X48995Y-57181D01*
X48995Y-56327D01*
X48956Y-56233D01*
X48885Y-56161D01*
X48791Y-56122D01*
X48689Y-56122D01*
X48595Y-56161D01*
X48523Y-56232D01*
X48484Y-56326D01*
X48484Y-56428D01*
X48523Y-56522D01*
X48595Y-56594D01*
X48689Y-56633D01*
X48790Y-56633D01*
X48884Y-56594D01*
X48956Y-56522D01*
X48995Y-56429D01*
X48995Y-56327D01*
X48995Y-57181D01*
X48909Y-57146D01*
X48807Y-57145D01*
X48713Y-57184D01*
X48641Y-57256D01*
X48602Y-57350D01*
X48602Y-57452D01*
X48641Y-57546D01*
X48713Y-57618D01*
X48807Y-57657D01*
X48908Y-57657D01*
X49002Y-57618D01*
X49074Y-57546D01*
X49113Y-57452D01*
X49113Y-57350D01*
X49113Y-60644D01*
X49089Y-60585D01*
X49074Y-60570D01*
X49074Y-58335D01*
X49035Y-58241D01*
X48963Y-58169D01*
X48869Y-58130D01*
X48768Y-58130D01*
X48674Y-58169D01*
X48602Y-58240D01*
X48563Y-58334D01*
X48563Y-58436D01*
X48602Y-58530D01*
X48673Y-58602D01*
X48767Y-58641D01*
X48869Y-58641D01*
X48963Y-58602D01*
X49035Y-58530D01*
X49074Y-58436D01*
X49074Y-58335D01*
X49074Y-60570D01*
X48934Y-60430D01*
X48804Y-60376D01*
X48838Y-60341D01*
X48877Y-60247D01*
X48877Y-60146D01*
X48838Y-60052D01*
X48767Y-59980D01*
X48673Y-59941D01*
X48641Y-59941D01*
X48641Y-59319D01*
X48602Y-59225D01*
X48530Y-59153D01*
X48436Y-59114D01*
X48335Y-59114D01*
X48241Y-59153D01*
X48169Y-59225D01*
X48130Y-59319D01*
X48130Y-59420D01*
X48169Y-59514D01*
X48240Y-59586D01*
X48334Y-59625D01*
X48436Y-59625D01*
X48530Y-59586D01*
X48602Y-59515D01*
X48641Y-59421D01*
X48641Y-59319D01*
X48641Y-59941D01*
X48571Y-59941D01*
X48477Y-59980D01*
X48405Y-60051D01*
X48366Y-60145D01*
X48366Y-60247D01*
X48405Y-60341D01*
X48440Y-60376D01*
X48310Y-60430D01*
X48155Y-60585D01*
X48070Y-60787D01*
X48070Y-61006D01*
X48154Y-61209D01*
X48309Y-61364D01*
X48511Y-61448D01*
X48731Y-61448D01*
X48933Y-61365D01*
X49089Y-61210D01*
X49173Y-61007D01*
X49173Y-60788D01*
X49173Y-62461D01*
X49153Y-62507D01*
X49153Y-62609D01*
X49192Y-62703D01*
X49264Y-62775D01*
X49358Y-62814D01*
X49460Y-62814D01*
X49554Y-62775D01*
X49626Y-62704D01*
X49665Y-62610D01*
X49665Y-62508D01*
X49665Y-68704D01*
X49113Y-68704D01*
X49113Y-62980D01*
X49113Y-62035D01*
X49075Y-61942D01*
X49003Y-61870D01*
X48909Y-61831D01*
X48807Y-61830D01*
X48713Y-61869D01*
X48641Y-61941D01*
X48602Y-62035D01*
X48602Y-62137D01*
X48641Y-62231D01*
X48713Y-62303D01*
X48807Y-62342D01*
X48908Y-62342D01*
X49002Y-62303D01*
X49074Y-62231D01*
X49113Y-62137D01*
X49113Y-62035D01*
X49113Y-62980D01*
X49075Y-62886D01*
X49003Y-62814D01*
X48909Y-62775D01*
X48807Y-62775D01*
X48713Y-62814D01*
X48641Y-62886D01*
X48602Y-62980D01*
X48602Y-63082D01*
X48641Y-63176D01*
X48713Y-63248D01*
X48807Y-63287D01*
X48908Y-63287D01*
X49002Y-63248D01*
X49074Y-63176D01*
X49113Y-63082D01*
X49113Y-62980D01*
X49113Y-68704D01*
X46948Y-68704D01*
X46948Y-58335D01*
X46948Y-57350D01*
X46909Y-57256D01*
X46837Y-57185D01*
X46743Y-57146D01*
X46642Y-57145D01*
X46633Y-57149D01*
X46633Y-53335D01*
X46594Y-53241D01*
X46522Y-53169D01*
X46429Y-53130D01*
X46327Y-53130D01*
X46318Y-53133D01*
X46318Y-52390D01*
X46279Y-52296D01*
X46207Y-52224D01*
X46114Y-52185D01*
X46012Y-52185D01*
X45918Y-52224D01*
X45846Y-52295D01*
X45807Y-52389D01*
X45807Y-52491D01*
X45846Y-52585D01*
X45918Y-52657D01*
X46011Y-52696D01*
X46113Y-52696D01*
X46207Y-52657D01*
X46279Y-52585D01*
X46318Y-52492D01*
X46318Y-52390D01*
X46318Y-53133D01*
X46233Y-53169D01*
X46161Y-53240D01*
X46122Y-53334D01*
X46122Y-53436D01*
X46161Y-53530D01*
X46232Y-53602D01*
X46326Y-53641D01*
X46428Y-53641D01*
X46522Y-53602D01*
X46594Y-53530D01*
X46633Y-53436D01*
X46633Y-53335D01*
X46633Y-57149D01*
X46548Y-57184D01*
X46476Y-57256D01*
X46437Y-57350D01*
X46437Y-57452D01*
X46476Y-57546D01*
X46547Y-57618D01*
X46641Y-57657D01*
X46743Y-57657D01*
X46837Y-57618D01*
X46909Y-57546D01*
X46948Y-57452D01*
X46948Y-57350D01*
X46948Y-58335D01*
X46909Y-58241D01*
X46837Y-58169D01*
X46743Y-58130D01*
X46642Y-58130D01*
X46548Y-58169D01*
X46476Y-58240D01*
X46446Y-58311D01*
X46389Y-58287D01*
X46287Y-58287D01*
X46193Y-58326D01*
X46122Y-58398D01*
X46083Y-58492D01*
X46082Y-58593D01*
X46121Y-58687D01*
X46193Y-58759D01*
X46287Y-58798D01*
X46389Y-58798D01*
X46483Y-58760D01*
X46555Y-58688D01*
X46584Y-58617D01*
X46641Y-58641D01*
X46743Y-58641D01*
X46837Y-58602D01*
X46909Y-58530D01*
X46948Y-58436D01*
X46948Y-58335D01*
X46948Y-68704D01*
X44271Y-68704D01*
X44271Y-50894D01*
X44232Y-50800D01*
X44160Y-50728D01*
X44066Y-50689D01*
X43965Y-50689D01*
X43950Y-50695D01*
X43956Y-50680D01*
X43956Y-50579D01*
X43917Y-50485D01*
X43845Y-50413D01*
X43751Y-50374D01*
X43650Y-50374D01*
X43635Y-50380D01*
X43641Y-50366D01*
X43641Y-50264D01*
X43602Y-50170D01*
X43530Y-50098D01*
X43436Y-50059D01*
X43335Y-50059D01*
X43320Y-50065D01*
X43326Y-50051D01*
X43326Y-49949D01*
X43287Y-49855D01*
X43215Y-49783D01*
X43121Y-49744D01*
X43020Y-49744D01*
X42926Y-49783D01*
X42854Y-49855D01*
X42815Y-49948D01*
X42815Y-50050D01*
X42854Y-50144D01*
X42925Y-50216D01*
X43019Y-50255D01*
X43121Y-50255D01*
X43136Y-50249D01*
X43130Y-50263D01*
X43130Y-50365D01*
X43169Y-50459D01*
X43240Y-50531D01*
X43334Y-50570D01*
X43436Y-50570D01*
X43451Y-50564D01*
X43445Y-50578D01*
X43445Y-50680D01*
X43483Y-50774D01*
X43555Y-50846D01*
X43649Y-50885D01*
X43751Y-50885D01*
X43766Y-50879D01*
X43760Y-50893D01*
X43760Y-50995D01*
X43798Y-51089D01*
X43870Y-51161D01*
X43964Y-51200D01*
X44066Y-51200D01*
X44160Y-51161D01*
X44232Y-51089D01*
X44271Y-50995D01*
X44271Y-50894D01*
X44271Y-68704D01*
X42263Y-68704D01*
X42263Y-43398D01*
X42263Y-40642D01*
X42183Y-40447D01*
X42033Y-40297D01*
X41838Y-40216D01*
X41627Y-40216D01*
X41431Y-40297D01*
X41281Y-40446D01*
X41200Y-40641D01*
X41200Y-40853D01*
X41281Y-41048D01*
X41430Y-41198D01*
X41626Y-41279D01*
X41837Y-41279D01*
X42032Y-41198D01*
X42182Y-41049D01*
X42263Y-40854D01*
X42263Y-40642D01*
X42263Y-43398D01*
X42183Y-43203D01*
X42033Y-43053D01*
X41838Y-42972D01*
X41627Y-42972D01*
X41431Y-43053D01*
X41281Y-43202D01*
X41200Y-43397D01*
X41200Y-43609D01*
X41281Y-43804D01*
X41430Y-43954D01*
X41626Y-44035D01*
X41837Y-44035D01*
X42032Y-43954D01*
X42182Y-43805D01*
X42263Y-43610D01*
X42263Y-43398D01*
X42263Y-68704D01*
X41515Y-68704D01*
X41515Y-51996D01*
X41476Y-51902D01*
X41404Y-51830D01*
X41310Y-51791D01*
X41209Y-51791D01*
X41115Y-51830D01*
X41043Y-51902D01*
X41004Y-51996D01*
X41004Y-52097D01*
X41043Y-52191D01*
X41114Y-52263D01*
X41208Y-52302D01*
X41310Y-52302D01*
X41404Y-52264D01*
X41476Y-52192D01*
X41515Y-52098D01*
X41515Y-51996D01*
X41515Y-68704D01*
X40649Y-68704D01*
X40649Y-57902D01*
X40610Y-57808D01*
X40538Y-57736D01*
X40444Y-57697D01*
X40343Y-57697D01*
X40249Y-57735D01*
X40177Y-57807D01*
X40176Y-57808D01*
X40176Y-57390D01*
X40138Y-57296D01*
X40066Y-57224D01*
X39972Y-57185D01*
X39870Y-57185D01*
X39776Y-57224D01*
X39704Y-57295D01*
X39665Y-57389D01*
X39665Y-57491D01*
X39704Y-57585D01*
X39776Y-57657D01*
X39870Y-57696D01*
X39971Y-57696D01*
X40065Y-57657D01*
X40137Y-57585D01*
X40176Y-57492D01*
X40176Y-57390D01*
X40176Y-57808D01*
X40138Y-57901D01*
X40138Y-58003D01*
X40176Y-58097D01*
X40248Y-58169D01*
X40342Y-58208D01*
X40444Y-58208D01*
X40538Y-58169D01*
X40610Y-58097D01*
X40649Y-58003D01*
X40649Y-57902D01*
X40649Y-68704D01*
X39468Y-68704D01*
X39468Y-55461D01*
X39429Y-55367D01*
X39357Y-55295D01*
X39263Y-55256D01*
X39232Y-55256D01*
X39232Y-47705D01*
X39193Y-47611D01*
X39121Y-47539D01*
X39027Y-47500D01*
X38925Y-47500D01*
X38831Y-47539D01*
X38759Y-47610D01*
X38720Y-47704D01*
X38720Y-47806D01*
X38759Y-47900D01*
X38831Y-47972D01*
X38925Y-48011D01*
X39026Y-48011D01*
X39120Y-47972D01*
X39192Y-47900D01*
X39231Y-47806D01*
X39232Y-47705D01*
X39232Y-55256D01*
X39161Y-55256D01*
X39074Y-55292D01*
X39074Y-55067D01*
X39035Y-54973D01*
X38963Y-54901D01*
X38869Y-54862D01*
X38768Y-54862D01*
X38680Y-54898D01*
X38680Y-48177D01*
X38680Y-47232D01*
X38642Y-47138D01*
X38570Y-47066D01*
X38476Y-47027D01*
X38374Y-47027D01*
X38280Y-47066D01*
X38208Y-47138D01*
X38169Y-47232D01*
X38169Y-47334D01*
X38208Y-47428D01*
X38280Y-47500D01*
X38374Y-47539D01*
X38475Y-47539D01*
X38569Y-47500D01*
X38641Y-47428D01*
X38680Y-47334D01*
X38680Y-47232D01*
X38680Y-48177D01*
X38642Y-48083D01*
X38570Y-48011D01*
X38476Y-47972D01*
X38374Y-47972D01*
X38280Y-48011D01*
X38208Y-48083D01*
X38169Y-48177D01*
X38169Y-48278D01*
X38208Y-48372D01*
X38280Y-48444D01*
X38374Y-48483D01*
X38475Y-48484D01*
X38569Y-48445D01*
X38641Y-48373D01*
X38680Y-48279D01*
X38680Y-48177D01*
X38680Y-54898D01*
X38674Y-54901D01*
X38602Y-54973D01*
X38563Y-55067D01*
X38563Y-55168D01*
X38602Y-55262D01*
X38673Y-55334D01*
X38767Y-55373D01*
X38869Y-55373D01*
X38963Y-55334D01*
X39035Y-55263D01*
X39074Y-55169D01*
X39074Y-55067D01*
X39074Y-55292D01*
X39067Y-55294D01*
X38996Y-55366D01*
X38957Y-55460D01*
X38956Y-55562D01*
X38995Y-55656D01*
X39067Y-55728D01*
X39161Y-55767D01*
X39263Y-55767D01*
X39357Y-55728D01*
X39429Y-55656D01*
X39468Y-55562D01*
X39468Y-55461D01*
X39468Y-68704D01*
X39389Y-68704D01*
X39389Y-58807D01*
X39350Y-58713D01*
X39278Y-58641D01*
X39184Y-58602D01*
X39083Y-58602D01*
X38989Y-58641D01*
X38917Y-58713D01*
X38878Y-58807D01*
X38878Y-58908D01*
X38917Y-59002D01*
X38988Y-59074D01*
X39082Y-59113D01*
X39184Y-59113D01*
X39278Y-59075D01*
X39350Y-59003D01*
X39389Y-58909D01*
X39389Y-58807D01*
X39389Y-68704D01*
X38444Y-68704D01*
X38444Y-55067D01*
X38444Y-49713D01*
X38405Y-49619D01*
X38333Y-49547D01*
X38240Y-49508D01*
X38138Y-49508D01*
X38044Y-49546D01*
X37992Y-49599D01*
X37940Y-49547D01*
X37846Y-49508D01*
X37744Y-49508D01*
X37657Y-49544D01*
X37657Y-49476D01*
X37618Y-49382D01*
X37546Y-49310D01*
X37452Y-49271D01*
X37350Y-49271D01*
X37256Y-49310D01*
X37185Y-49382D01*
X37146Y-49476D01*
X37145Y-49578D01*
X37184Y-49672D01*
X37256Y-49744D01*
X37350Y-49783D01*
X37452Y-49783D01*
X37539Y-49747D01*
X37539Y-49814D01*
X37578Y-49908D01*
X37650Y-49980D01*
X37744Y-50019D01*
X37845Y-50019D01*
X37939Y-49980D01*
X37992Y-49928D01*
X38043Y-49980D01*
X38137Y-50019D01*
X38239Y-50019D01*
X38333Y-49980D01*
X38405Y-49908D01*
X38444Y-49814D01*
X38444Y-49713D01*
X38444Y-55067D01*
X38405Y-54973D01*
X38333Y-54901D01*
X38240Y-54862D01*
X38138Y-54862D01*
X38044Y-54901D01*
X37972Y-54973D01*
X37933Y-55067D01*
X37933Y-55168D01*
X37972Y-55262D01*
X38043Y-55334D01*
X38137Y-55373D01*
X38239Y-55373D01*
X38333Y-55334D01*
X38405Y-55263D01*
X38444Y-55169D01*
X38444Y-55067D01*
X38444Y-68704D01*
X37932Y-68704D01*
X37932Y-57154D01*
X37893Y-57060D01*
X37841Y-57007D01*
X37893Y-56956D01*
X37932Y-56862D01*
X37932Y-56760D01*
X37893Y-56666D01*
X37822Y-56594D01*
X37814Y-56591D01*
X37814Y-55461D01*
X37775Y-55367D01*
X37704Y-55295D01*
X37610Y-55256D01*
X37508Y-55256D01*
X37414Y-55294D01*
X37342Y-55366D01*
X37303Y-55460D01*
X37303Y-55562D01*
X37342Y-55656D01*
X37414Y-55728D01*
X37507Y-55767D01*
X37609Y-55767D01*
X37703Y-55728D01*
X37775Y-55656D01*
X37814Y-55562D01*
X37814Y-55461D01*
X37814Y-56591D01*
X37728Y-56555D01*
X37626Y-56555D01*
X37532Y-56594D01*
X37499Y-56626D01*
X37499Y-56169D01*
X37460Y-56075D01*
X37389Y-56003D01*
X37295Y-55964D01*
X37193Y-55964D01*
X37099Y-56003D01*
X37027Y-56075D01*
X37027Y-56076D01*
X37027Y-50815D01*
X36988Y-50721D01*
X36936Y-50669D01*
X36988Y-50617D01*
X37027Y-50523D01*
X37027Y-50421D01*
X36988Y-50327D01*
X36916Y-50255D01*
X36822Y-50216D01*
X36787Y-50216D01*
X36790Y-50208D01*
X36791Y-50106D01*
X36787Y-50098D01*
X36822Y-50098D01*
X36916Y-50059D01*
X36988Y-49987D01*
X37027Y-49893D01*
X37027Y-49791D01*
X36988Y-49697D01*
X36916Y-49625D01*
X36822Y-49586D01*
X36721Y-49586D01*
X36627Y-49625D01*
X36555Y-49697D01*
X36516Y-49791D01*
X36515Y-49893D01*
X36519Y-49901D01*
X36484Y-49901D01*
X36476Y-49905D01*
X36476Y-49437D01*
X36437Y-49343D01*
X36365Y-49271D01*
X36271Y-49232D01*
X36169Y-49232D01*
X36075Y-49271D01*
X36003Y-49343D01*
X35964Y-49437D01*
X35964Y-49538D01*
X36003Y-49632D01*
X36075Y-49704D01*
X36169Y-49743D01*
X36271Y-49743D01*
X36365Y-49705D01*
X36437Y-49633D01*
X36476Y-49539D01*
X36476Y-49437D01*
X36476Y-49905D01*
X36390Y-49940D01*
X36318Y-50012D01*
X36279Y-50106D01*
X36279Y-50208D01*
X36318Y-50302D01*
X36390Y-50374D01*
X36484Y-50413D01*
X36519Y-50413D01*
X36516Y-50421D01*
X36515Y-50523D01*
X36554Y-50617D01*
X36607Y-50669D01*
X36555Y-50721D01*
X36516Y-50815D01*
X36515Y-50916D01*
X36554Y-51010D01*
X36626Y-51082D01*
X36720Y-51121D01*
X36822Y-51121D01*
X36916Y-51082D01*
X36988Y-51011D01*
X37027Y-50917D01*
X37027Y-50815D01*
X37027Y-56076D01*
X36988Y-56169D01*
X36988Y-56271D01*
X37027Y-56365D01*
X37099Y-56437D01*
X37193Y-56476D01*
X37294Y-56476D01*
X37388Y-56437D01*
X37460Y-56365D01*
X37499Y-56271D01*
X37499Y-56169D01*
X37499Y-56626D01*
X37460Y-56666D01*
X37421Y-56759D01*
X37421Y-56861D01*
X37460Y-56955D01*
X37512Y-57007D01*
X37460Y-57059D01*
X37421Y-57153D01*
X37421Y-57255D01*
X37460Y-57349D01*
X37532Y-57421D01*
X37626Y-57460D01*
X37727Y-57460D01*
X37821Y-57421D01*
X37893Y-57349D01*
X37932Y-57255D01*
X37932Y-57154D01*
X37932Y-68704D01*
X36476Y-68704D01*
X36476Y-55343D01*
X36437Y-55249D01*
X36365Y-55177D01*
X36271Y-55138D01*
X36169Y-55138D01*
X36075Y-55176D01*
X36003Y-55248D01*
X35964Y-55342D01*
X35964Y-55444D01*
X36003Y-55538D01*
X36075Y-55610D01*
X36169Y-55649D01*
X36271Y-55649D01*
X36365Y-55610D01*
X36437Y-55538D01*
X36476Y-55444D01*
X36476Y-55343D01*
X36476Y-68704D01*
X35924Y-68704D01*
X35924Y-55815D01*
X35924Y-54870D01*
X35924Y-52154D01*
X35924Y-49910D01*
X35924Y-48965D01*
X35886Y-48871D01*
X35814Y-48799D01*
X35720Y-48760D01*
X35618Y-48760D01*
X35524Y-48798D01*
X35452Y-48870D01*
X35413Y-48964D01*
X35413Y-49066D01*
X35452Y-49160D01*
X35524Y-49232D01*
X35618Y-49271D01*
X35719Y-49271D01*
X35813Y-49232D01*
X35885Y-49160D01*
X35924Y-49066D01*
X35924Y-48965D01*
X35924Y-49910D01*
X35886Y-49816D01*
X35814Y-49744D01*
X35720Y-49705D01*
X35618Y-49704D01*
X35524Y-49743D01*
X35452Y-49815D01*
X35413Y-49909D01*
X35413Y-50011D01*
X35452Y-50105D01*
X35524Y-50177D01*
X35618Y-50216D01*
X35719Y-50216D01*
X35813Y-50177D01*
X35885Y-50105D01*
X35924Y-50011D01*
X35924Y-49910D01*
X35924Y-52154D01*
X35886Y-52060D01*
X35814Y-51988D01*
X35720Y-51949D01*
X35618Y-51949D01*
X35524Y-51987D01*
X35452Y-52059D01*
X35413Y-52153D01*
X35413Y-52255D01*
X35452Y-52349D01*
X35524Y-52421D01*
X35618Y-52460D01*
X35719Y-52460D01*
X35813Y-52421D01*
X35885Y-52349D01*
X35924Y-52255D01*
X35924Y-52154D01*
X35924Y-54870D01*
X35886Y-54776D01*
X35814Y-54704D01*
X35720Y-54665D01*
X35618Y-54665D01*
X35524Y-54704D01*
X35452Y-54776D01*
X35413Y-54870D01*
X35413Y-54971D01*
X35452Y-55065D01*
X35524Y-55137D01*
X35618Y-55176D01*
X35719Y-55176D01*
X35813Y-55138D01*
X35885Y-55066D01*
X35924Y-54972D01*
X35924Y-54870D01*
X35924Y-55815D01*
X35886Y-55721D01*
X35814Y-55649D01*
X35720Y-55610D01*
X35618Y-55610D01*
X35524Y-55649D01*
X35452Y-55721D01*
X35413Y-55815D01*
X35413Y-55916D01*
X35452Y-56010D01*
X35524Y-56082D01*
X35618Y-56121D01*
X35719Y-56121D01*
X35813Y-56082D01*
X35885Y-56011D01*
X35924Y-55917D01*
X35924Y-55815D01*
X35924Y-68704D01*
X33385Y-68704D01*
X33385Y-57724D01*
X33346Y-57630D01*
X33294Y-57578D01*
X33346Y-57526D01*
X33385Y-57432D01*
X33385Y-57331D01*
X33385Y-50913D01*
X33346Y-50819D01*
X33274Y-50747D01*
X33208Y-50720D01*
X33208Y-43398D01*
X33208Y-40642D01*
X33128Y-40447D01*
X32978Y-40297D01*
X32783Y-40216D01*
X32571Y-40216D01*
X32376Y-40297D01*
X32226Y-40446D01*
X32145Y-40641D01*
X32145Y-40853D01*
X32226Y-41048D01*
X32375Y-41198D01*
X32570Y-41279D01*
X32782Y-41279D01*
X32977Y-41198D01*
X33127Y-41049D01*
X33208Y-40854D01*
X33208Y-40642D01*
X33208Y-43398D01*
X33128Y-43203D01*
X32978Y-43053D01*
X32783Y-42972D01*
X32571Y-42972D01*
X32376Y-43053D01*
X32226Y-43202D01*
X32145Y-43397D01*
X32145Y-43609D01*
X32226Y-43804D01*
X32375Y-43954D01*
X32570Y-44035D01*
X32782Y-44035D01*
X32977Y-43954D01*
X33127Y-43805D01*
X33208Y-43610D01*
X33208Y-43398D01*
X33208Y-50720D01*
X33180Y-50709D01*
X33079Y-50708D01*
X32985Y-50747D01*
X32913Y-50819D01*
X32874Y-50913D01*
X32874Y-51015D01*
X32913Y-51109D01*
X32984Y-51181D01*
X33078Y-51220D01*
X33180Y-51220D01*
X33274Y-51181D01*
X33346Y-51109D01*
X33385Y-51015D01*
X33385Y-50913D01*
X33385Y-57331D01*
X33346Y-57237D01*
X33274Y-57165D01*
X33180Y-57126D01*
X33079Y-57126D01*
X32985Y-57165D01*
X32913Y-57236D01*
X32874Y-57330D01*
X32874Y-57432D01*
X32913Y-57526D01*
X32965Y-57578D01*
X32913Y-57630D01*
X32874Y-57724D01*
X32874Y-57826D01*
X32913Y-57920D01*
X32984Y-57992D01*
X33078Y-58031D01*
X33180Y-58031D01*
X33274Y-57992D01*
X33346Y-57920D01*
X33385Y-57826D01*
X33385Y-57724D01*
X33385Y-68704D01*
X31338Y-68704D01*
X31338Y-66535D01*
X31338Y-65118D01*
X30137Y-65118D01*
X30137Y-43571D01*
X30098Y-43477D01*
X30026Y-43405D01*
X29932Y-43366D01*
X29831Y-43366D01*
X29737Y-43405D01*
X29665Y-43477D01*
X29626Y-43570D01*
X29626Y-43672D01*
X29665Y-43766D01*
X29736Y-43838D01*
X29830Y-43877D01*
X29932Y-43877D01*
X30026Y-43838D01*
X30098Y-43767D01*
X30137Y-43673D01*
X30137Y-43571D01*
X30137Y-65118D01*
X30019Y-65118D01*
X30019Y-48925D01*
X30019Y-47980D01*
X29980Y-47886D01*
X29908Y-47814D01*
X29814Y-47775D01*
X29713Y-47775D01*
X29619Y-47814D01*
X29547Y-47886D01*
X29508Y-47980D01*
X29508Y-48082D01*
X29546Y-48176D01*
X29618Y-48248D01*
X29712Y-48287D01*
X29814Y-48287D01*
X29908Y-48248D01*
X29980Y-48176D01*
X30019Y-48082D01*
X30019Y-47980D01*
X30019Y-48925D01*
X29980Y-48831D01*
X29908Y-48759D01*
X29814Y-48720D01*
X29713Y-48720D01*
X29619Y-48759D01*
X29547Y-48831D01*
X29508Y-48925D01*
X29508Y-49026D01*
X29546Y-49120D01*
X29618Y-49192D01*
X29712Y-49231D01*
X29814Y-49232D01*
X29908Y-49193D01*
X29980Y-49121D01*
X30019Y-49027D01*
X30019Y-48925D01*
X30019Y-65118D01*
X29468Y-65118D01*
X29468Y-48453D01*
X29429Y-48359D01*
X29357Y-48287D01*
X29263Y-48248D01*
X29161Y-48248D01*
X29067Y-48287D01*
X28996Y-48358D01*
X28957Y-48452D01*
X28956Y-48554D01*
X28995Y-48648D01*
X29067Y-48720D01*
X29161Y-48759D01*
X29263Y-48759D01*
X29357Y-48720D01*
X29429Y-48648D01*
X29468Y-48555D01*
X29468Y-48453D01*
X29468Y-65118D01*
X28484Y-65118D01*
X28484Y-48610D01*
X28445Y-48516D01*
X28373Y-48444D01*
X28279Y-48405D01*
X28177Y-48405D01*
X28163Y-48411D01*
X28168Y-48397D01*
X28169Y-48295D01*
X28162Y-48281D01*
X28177Y-48287D01*
X28278Y-48287D01*
X28372Y-48248D01*
X28444Y-48176D01*
X28483Y-48082D01*
X28484Y-47980D01*
X28445Y-47886D01*
X28373Y-47814D01*
X28279Y-47775D01*
X28177Y-47775D01*
X28083Y-47814D01*
X28011Y-47886D01*
X27972Y-47980D01*
X27972Y-48082D01*
X27978Y-48096D01*
X27964Y-48090D01*
X27862Y-48090D01*
X27768Y-48129D01*
X27696Y-48201D01*
X27657Y-48295D01*
X27657Y-48397D01*
X27696Y-48491D01*
X27768Y-48563D01*
X27862Y-48602D01*
X27964Y-48602D01*
X27978Y-48596D01*
X27972Y-48610D01*
X27972Y-48712D01*
X28011Y-48806D01*
X28083Y-48877D01*
X28177Y-48916D01*
X28278Y-48917D01*
X28372Y-48878D01*
X28444Y-48806D01*
X28483Y-48712D01*
X28484Y-48610D01*
X28484Y-65118D01*
X27559Y-65118D01*
X27559Y-66535D01*
X31338Y-66535D01*
X31338Y-68704D01*
X26422Y-68704D01*
X26422Y-67108D01*
X26247Y-66655D01*
X26215Y-66607D01*
X26069Y-66477D01*
X26041Y-66505D01*
X26041Y-66449D01*
X25912Y-66304D01*
X25468Y-66108D01*
X24982Y-66097D01*
X24529Y-66272D01*
X24481Y-66304D01*
X24351Y-66449D01*
X24451Y-66549D01*
X24586Y-66684D01*
X24614Y-66712D01*
X24749Y-66847D01*
X25196Y-67294D01*
X25644Y-66847D01*
X25644Y-66847D01*
X25779Y-66712D01*
X25807Y-66684D01*
X25941Y-66549D01*
X26041Y-66449D01*
X26041Y-66505D01*
X25969Y-66577D01*
X25834Y-66712D01*
X25807Y-66740D01*
X25672Y-66875D01*
X25224Y-67322D01*
X25672Y-67770D01*
X25807Y-67905D01*
X25834Y-67933D01*
X25969Y-68067D01*
X26069Y-68167D01*
X26215Y-68038D01*
X26411Y-67594D01*
X26422Y-67108D01*
X26422Y-68704D01*
X26041Y-68704D01*
X26041Y-68195D01*
X25941Y-68095D01*
X25807Y-67960D01*
X25779Y-67933D01*
X25644Y-67798D01*
X25196Y-67350D01*
X25169Y-67378D01*
X25169Y-67322D01*
X24721Y-66875D01*
X24586Y-66740D01*
X24558Y-66712D01*
X24423Y-66577D01*
X24324Y-66477D01*
X24178Y-66607D01*
X23982Y-67051D01*
X23971Y-67536D01*
X24146Y-67989D01*
X24178Y-68038D01*
X24324Y-68167D01*
X24423Y-68067D01*
X24423Y-68067D01*
X24558Y-67933D01*
X24586Y-67905D01*
X24721Y-67770D01*
X25169Y-67322D01*
X25169Y-67378D01*
X24749Y-67798D01*
X24614Y-67933D01*
X24586Y-67960D01*
X24451Y-68095D01*
X24351Y-68195D01*
X24481Y-68341D01*
X24925Y-68537D01*
X25410Y-68548D01*
X25863Y-68373D01*
X25912Y-68341D01*
X26041Y-68195D01*
X26041Y-68704D01*
X25215Y-68704D01*
X24669Y-68595D01*
X24222Y-68297D01*
X23923Y-67850D01*
X23815Y-67303D01*
X23815Y-62617D01*
X23863Y-62372D01*
X23991Y-62180D01*
X24183Y-62052D01*
X24428Y-62004D01*
X26377Y-62004D01*
X26396Y-62000D01*
X26415Y-62000D01*
X26566Y-61970D01*
X26566Y-61970D01*
X26635Y-61941D01*
X26635Y-61941D01*
X26763Y-61856D01*
X26763Y-61856D01*
X26763Y-61856D01*
X26816Y-61802D01*
X26816Y-61802D01*
X26902Y-61675D01*
X26931Y-61605D01*
X26931Y-61605D01*
X26961Y-61454D01*
X26961Y-61435D01*
X26964Y-61417D01*
X26964Y-49015D01*
X26961Y-48997D01*
X26961Y-48978D01*
X26931Y-48827D01*
X26931Y-48827D01*
X26902Y-48757D01*
X26816Y-48630D01*
X26816Y-48630D01*
X26763Y-48576D01*
X26763Y-48576D01*
X26635Y-48491D01*
X26566Y-48462D01*
X26566Y-48462D01*
X26554Y-48460D01*
X26554Y-46957D01*
X26516Y-46863D01*
X26463Y-46810D01*
X26515Y-46759D01*
X26554Y-46665D01*
X26554Y-46563D01*
X26554Y-45776D01*
X26554Y-44988D01*
X26516Y-44894D01*
X26463Y-44842D01*
X26515Y-44790D01*
X26554Y-44696D01*
X26554Y-44595D01*
X26516Y-44501D01*
X26463Y-44448D01*
X26515Y-44396D01*
X26554Y-44303D01*
X26554Y-44201D01*
X26516Y-44107D01*
X26444Y-44035D01*
X26422Y-44026D01*
X26422Y-40730D01*
X26247Y-40277D01*
X26215Y-40229D01*
X26069Y-40099D01*
X26041Y-40127D01*
X26041Y-40072D01*
X25912Y-39926D01*
X25468Y-39730D01*
X24982Y-39719D01*
X24529Y-39894D01*
X24481Y-39926D01*
X24351Y-40072D01*
X24451Y-40171D01*
X24451Y-40171D01*
X24586Y-40306D01*
X24614Y-40334D01*
X24749Y-40469D01*
X25196Y-40917D01*
X25644Y-40469D01*
X25779Y-40334D01*
X25807Y-40306D01*
X25941Y-40171D01*
X26041Y-40072D01*
X26041Y-40127D01*
X25969Y-40199D01*
X25834Y-40334D01*
X25807Y-40362D01*
X25672Y-40497D01*
X25224Y-40944D01*
X25672Y-41392D01*
X25672Y-41392D01*
X25807Y-41527D01*
X25834Y-41555D01*
X25969Y-41689D01*
X26069Y-41789D01*
X26215Y-41660D01*
X26411Y-41216D01*
X26422Y-40730D01*
X26422Y-44026D01*
X26350Y-43996D01*
X26248Y-43996D01*
X26154Y-44035D01*
X26082Y-44106D01*
X26043Y-44200D01*
X26043Y-44302D01*
X26082Y-44396D01*
X26134Y-44448D01*
X26082Y-44500D01*
X26043Y-44594D01*
X26043Y-44696D01*
X26082Y-44790D01*
X26134Y-44842D01*
X26082Y-44894D01*
X26043Y-44988D01*
X26043Y-45089D01*
X26082Y-45183D01*
X26154Y-45255D01*
X26248Y-45294D01*
X26349Y-45295D01*
X26443Y-45256D01*
X26515Y-45184D01*
X26554Y-45090D01*
X26554Y-44988D01*
X26554Y-45776D01*
X26516Y-45682D01*
X26444Y-45610D01*
X26350Y-45571D01*
X26248Y-45571D01*
X26154Y-45609D01*
X26082Y-45681D01*
X26043Y-45775D01*
X26043Y-45877D01*
X26082Y-45971D01*
X26154Y-46043D01*
X26248Y-46082D01*
X26349Y-46082D01*
X26443Y-46043D01*
X26515Y-45971D01*
X26554Y-45877D01*
X26554Y-45776D01*
X26554Y-46563D01*
X26516Y-46469D01*
X26444Y-46397D01*
X26350Y-46358D01*
X26248Y-46358D01*
X26154Y-46397D01*
X26082Y-46469D01*
X26043Y-46563D01*
X26043Y-46664D01*
X26082Y-46758D01*
X26134Y-46811D01*
X26082Y-46862D01*
X26043Y-46956D01*
X26043Y-47058D01*
X26082Y-47152D01*
X26154Y-47224D01*
X26248Y-47263D01*
X26349Y-47263D01*
X26443Y-47224D01*
X26515Y-47152D01*
X26554Y-47058D01*
X26554Y-46957D01*
X26554Y-48460D01*
X26415Y-48432D01*
X26396Y-48432D01*
X26377Y-48428D01*
X26041Y-48428D01*
X26041Y-41817D01*
X25941Y-41717D01*
X25807Y-41582D01*
X25779Y-41555D01*
X25644Y-41420D01*
X25644Y-41420D01*
X25196Y-40972D01*
X25169Y-41000D01*
X25169Y-40944D01*
X24721Y-40497D01*
X24586Y-40362D01*
X24558Y-40334D01*
X24423Y-40199D01*
X24423Y-40199D01*
X24324Y-40099D01*
X24178Y-40229D01*
X23982Y-40673D01*
X23971Y-41158D01*
X24146Y-41611D01*
X24178Y-41660D01*
X24324Y-41789D01*
X24423Y-41689D01*
X24558Y-41555D01*
X24586Y-41527D01*
X24721Y-41392D01*
X25169Y-40944D01*
X25169Y-41000D01*
X24749Y-41420D01*
X24614Y-41555D01*
X24586Y-41582D01*
X24451Y-41717D01*
X24351Y-41817D01*
X24481Y-41963D01*
X24925Y-42159D01*
X25410Y-42170D01*
X25863Y-41995D01*
X25912Y-41963D01*
X26041Y-41817D01*
X26041Y-48428D01*
X25846Y-48428D01*
X25846Y-45382D01*
X25807Y-45288D01*
X25735Y-45216D01*
X25641Y-45177D01*
X25539Y-45177D01*
X25445Y-45216D01*
X25373Y-45288D01*
X25334Y-45382D01*
X25334Y-45483D01*
X25373Y-45577D01*
X25445Y-45649D01*
X25539Y-45688D01*
X25641Y-45688D01*
X25735Y-45649D01*
X25807Y-45578D01*
X25846Y-45484D01*
X25846Y-45382D01*
X25846Y-48428D01*
X25098Y-48428D01*
X25098Y-45382D01*
X25059Y-45288D01*
X24987Y-45216D01*
X24893Y-45177D01*
X24791Y-45177D01*
X24697Y-45216D01*
X24625Y-45288D01*
X24586Y-45382D01*
X24586Y-45483D01*
X24625Y-45577D01*
X24697Y-45649D01*
X24791Y-45688D01*
X24893Y-45688D01*
X24987Y-45649D01*
X25059Y-45578D01*
X25098Y-45484D01*
X25098Y-45382D01*
X25098Y-48428D01*
X24428Y-48428D01*
X24183Y-48380D01*
X23991Y-48252D01*
X23863Y-48060D01*
X23815Y-47815D01*
X23815Y-40963D01*
X23923Y-40417D01*
X24222Y-39970D01*
X24669Y-39671D01*
X25215Y-39563D01*
X69272Y-39563D01*
X69818Y-39671D01*
X70265Y-39970D01*
X70564Y-40417D01*
X70673Y-40963D01*
X70673Y-67303D01*
M02*
