M48
;DRILL file {Pcbnew (2014-03-01 BZR 4730)-product} date Thursday, July 17, 2014 'AMt' 09:28:05 AM
;FORMAT={-:-/ absolute / inch / decimal}
FMAT,2
INCH,TZ
T1C0.013
T2C0.015
T3C0.031
T4C0.055
T5C0.126
T6C0.063
T7C0.067
T8C0.157
%
G90
G05
M72
T1
X2.4114Y-4.311
X2.4114Y-4.4291
X2.4114Y-4.5472
X2.4114Y-4.6654
X2.4114Y-6.3386
X2.4114Y-6.4567
X2.4114Y-6.5748
X2.4213Y-6.2402
X2.4646Y-4.4528
X2.4646Y-4.6102
X2.4646Y-4.6732
X2.4685Y-4.8268
X2.4843Y-4.5433
X2.5098Y-6.2303
X2.5197Y-4.252
X2.5295Y-6.5748
X2.5591Y-4.5433
X2.5591Y-4.622
X2.5866Y-4.8268
X2.628Y-4.2028
X2.628Y-6.2303
X2.628Y-6.624
X2.6299Y-4.4252
X2.6299Y-4.4646
X2.6299Y-4.5039
X2.6299Y-4.5827
X2.6299Y-4.6614
X2.6299Y-4.7008
X2.6772Y-3.9862
X2.6772Y-4.1043
X2.6772Y-6.7224
X2.6772Y-6.8406
X2.7264Y-4.813
X2.7264Y-4.9311
X2.7264Y-5.0492
X2.7264Y-5.1673
X2.7264Y-5.2854
X2.7264Y-5.4134
X2.7264Y-5.5217
X2.7264Y-5.6398
X2.7264Y-5.7579
X2.7264Y-5.876
X2.7264Y-5.9941
X2.7264Y-6.1122
X2.7264Y-6.2303
X2.7913Y-4.8346
X2.7953Y-3.9862
X2.7953Y-6.8406
X2.8228Y-4.8031
X2.8228Y-4.8661
X2.8583Y-4.8031
X2.8583Y-4.8661
X2.9134Y-3.9862
X2.9134Y-6.8406
X2.9213Y-4.8504
X2.9528Y-4.2756
X2.9764Y-4.8031
X2.9764Y-4.8976
X2.9882Y-4.3189
X2.9882Y-4.3622
X2.9882Y-4.6181
X2.9882Y-4.7402
X2.9921Y-6.8406
X3.0236Y-4.8031
X3.0236Y-4.8976
X3.0315Y-3.9862
X3.0787Y-4.8504
X3.1102Y-6.8406
X3.1496Y-3.9862
X3.1575Y-6.2992
X3.185Y-4.9469
X3.185Y-5.8799
X3.2283Y-6.8406
X3.2362Y-4.8799
X3.2362Y-5.0138
X3.2362Y-5.813
X3.2362Y-5.9469
X3.2421Y-6.1969
X3.2421Y-6.4016
X3.2677Y-3.9862
X3.2835Y-5.0138
X3.2835Y-5.813
X3.2894Y-4.9094
X3.2894Y-5.9173
X3.313Y-5.0965
X3.313Y-5.1398
X3.313Y-5.4823
X3.313Y-5.5217
X3.313Y-5.561
X3.313Y-5.6004
X3.313Y-5.6398
X3.313Y-5.7382
X3.313Y-5.7776
X3.3189Y-4.9626
X3.3189Y-5.8642
X3.3268Y-6.2992
X3.3465Y-6.8406
X3.4035Y-5.502
X3.4035Y-5.5413
X3.4035Y-5.5807
X3.4035Y-5.6457
X3.4035Y-5.7579
X3.4646Y-4.9488
X3.4646Y-5.5394
X3.4646Y-6.8406
X3.4764Y-5.2205
X3.5Y-5.7953
X3.5039Y-3.9862
X3.5039Y-4.0866
X3.5039Y-4.1654
X3.5197Y-4.9016
X3.5197Y-4.9961
X3.5197Y-5.4921
X3.5197Y-5.5866
X3.5512Y-4.126
X3.5669Y-4.9016
X3.5669Y-4.9961
X3.5669Y-5.2205
X3.5669Y-5.4921
X3.5669Y-5.5866
X3.5827Y-6.8406
X3.6102Y-5.8799
X3.622Y-3.9862
X3.622Y-4.9488
X3.622Y-5.5394
X3.6516Y-5.8465
X3.6516Y-5.9134
X3.6535Y-4.3937
X3.6535Y-4.6142
X3.6535Y-5.0157
X3.6772Y-4.9843
X3.6772Y-5.0472
X3.6772Y-5.0866
X3.7008Y-6.8406
X3.7244Y-5.622
X3.7244Y-5.9094
X3.7402Y-3.9862
X3.7402Y-4.7756
X3.7402Y-4.9528
X3.7559Y-5.1417
X3.7559Y-5.2283
X3.7559Y-5.315
X3.7559Y-5.5512
X3.7677Y-5.6811
X3.7677Y-5.7205
X3.7795Y-4.8819
X3.7795Y-4.9764
X3.7953Y-4.7283
X3.7953Y-4.8228
X3.8189Y-4.9764
X3.8189Y-5.5118
X3.8189Y-5.6063
X3.8189Y-6.8406
X3.8268Y-4.8819
X3.8425Y-4.7283
X3.8425Y-4.8228
X3.8425Y-5.1417
X3.8425Y-5.2283
X3.8425Y-5.315
X3.8583Y-3.9862
X3.8583Y-4.9094
X3.8583Y-5.7717
X3.8583Y-5.8189
X3.8583Y-5.8661
X3.8819Y-5.5118
X3.8819Y-5.6063
X3.8976Y-4.7756
X3.9055Y-5.9291
X3.9134Y-5.8858
X3.9173Y-5.6811
X3.9173Y-5.7205
X3.9213Y-5.5512
X3.9291Y-5.1417
X3.9291Y-5.2283
X3.9291Y-5.315
X3.937Y-6.8406
X3.9764Y-3.9862
X3.9921Y-5.7441
X3.9921Y-5.8937
X4.0394Y-5.7953
X4.0394Y-5.8425
X4.0551Y-6.8406
X4.0945Y-3.9862
X4.126Y-5.2047
X4.1732Y-6.8406
X4.189Y-5.2362
X4.2126Y-3.9862
X4.2205Y-5.2047
X4.2913Y-6.8406
X4.3071Y-5.
X4.3386Y-5.0315
X4.3701Y-5.063
X4.4016Y-5.0945
X4.4094Y-4.0866
X4.4094Y-4.1654
X4.4094Y-4.378
X4.4094Y-4.4961
X4.4094Y-6.8406
X4.4488Y-3.9862
X4.4567Y-4.126
X4.5276Y-6.8406
X4.5591Y-4.378
X4.5591Y-4.4961
X4.5669Y-3.9862
X4.6378Y-5.8425
X4.6457Y-6.8406
X4.6693Y-5.2441
X4.6693Y-5.3386
X4.6772Y-5.7402
X4.6772Y-5.8425
X4.6791Y-5.6398
X4.6791Y-6.1398
X4.685Y-3.9862
X4.7638Y-6.0984
X4.7638Y-6.1811
X4.7638Y-6.8406
X4.7835Y-6.2559
X4.8031Y-3.9862
X4.8031Y-4.1043
X4.8386Y-6.2087
X4.8386Y-6.3031
X4.8425Y-4.1929
X4.8465Y-6.1398
X4.8504Y-5.937
X4.8504Y-6.0394
X4.874Y-5.6378
X4.874Y-5.7402
X4.874Y-5.8425
X4.8819Y-6.8406
X4.8858Y-6.2087
X4.8858Y-6.3031
X4.9409Y-6.2559
X4.9606Y-4.252
X4.9606Y-6.0984
X4.9606Y-6.1811
X5.Y-6.8406
X5.0472Y-5.937
X5.0472Y-6.0394
X5.0472Y-6.1378
X5.0512Y-4.8504
X5.0512Y-5.2402
X5.0689Y-4.2028
X5.0787Y-4.5669
X5.0787Y-4.6142
X5.1181Y-3.9862
X5.1181Y-4.1043
X5.1181Y-6.8406
X5.126Y-4.6693
X5.1654Y-4.252
X5.1732Y-4.5669
X5.1732Y-4.6142
X5.189Y-4.1575
X5.1969Y-4.2756
X5.2126Y-4.3504
X5.2126Y-4.626
X5.2362Y-3.9862
X5.2362Y-4.685
X5.2362Y-4.8031
X5.2362Y-5.9449
X5.2362Y-6.8406
X5.2756Y-4.685
X5.2913Y-4.7559
X5.3189Y-4.685
X5.3386Y-4.7559
X5.3543Y-3.9862
X5.3543Y-4.685
X5.3543Y-6.8406
X5.378Y-4.2598
X5.3937Y-4.8031
X5.3976Y-4.685
X5.4094Y-4.2362
X5.4094Y-4.4094
X5.4252Y-4.4449
X5.4409Y-4.189
X5.4646Y-6.5669
X5.4646Y-6.6063
X5.4724Y-3.9862
X5.4724Y-6.8406
X5.4764Y-4.4094
X5.5118Y-4.4094
X5.5236Y-4.5669
X5.5236Y-4.6969
X5.5236Y-4.7362
X5.5512Y-4.4094
X5.5669Y-4.2913
X5.5669Y-4.685
X5.5906Y-3.9862
X5.5906Y-6.8406
X5.6063Y-4.2913
X5.6063Y-4.3504
X5.6063Y-4.626
X5.6063Y-4.685
X5.6457Y-4.3622
X5.6457Y-4.4094
X5.6457Y-4.5669
X5.6457Y-4.6142
X5.7087Y-3.9862
X5.7087Y-6.8406
X5.7402Y-4.3622
X5.7402Y-4.4094
X5.7402Y-4.5669
X5.7402Y-4.6142
X5.7717Y-6.5886
X5.7913Y-6.1614
X5.813Y-6.5059
X5.8268Y-3.9862
X5.8268Y-6.8406
X5.8465Y-6.1614
X5.8543Y-6.5886
X5.9094Y-6.1614
X5.9449Y-3.9862
X5.9449Y-6.8406
X5.9646Y-6.1614
X6.0276Y-6.2126
X6.063Y-3.9862
X6.063Y-6.8406
X6.0709Y-6.3898
X6.0866Y-6.1614
X6.0866Y-6.2638
X6.1102Y-6.3071
X6.1142Y-6.4764
X6.1339Y-6.1614
X6.1339Y-6.2638
X6.1535Y-6.3898
X6.1713Y-6.5886
X6.1811Y-3.9862
X6.1811Y-6.8406
X6.189Y-6.2126
X6.2126Y-6.5059
X6.2539Y-6.5886
X6.2992Y-3.9862
X6.2992Y-4.2677
X6.2992Y-4.7874
X6.2992Y-6.8406
X6.3386Y-4.2283
X6.3386Y-4.8268
X6.4094Y-4.2283
X6.4094Y-4.8268
X6.4173Y-3.9862
X6.4173Y-6.8406
X6.4488Y-4.2677
X6.4567Y-6.0551
X6.4567Y-6.1024
X6.4705Y-6.5886
X6.5039Y-6.
X6.5039Y-6.1575
X6.5118Y-6.5059
X6.5354Y-3.9862
X6.5354Y-6.8406
X6.5512Y-6.0551
X6.5512Y-6.1024
X6.5531Y-6.5886
X6.6535Y-3.9862
X6.6535Y-4.811
X6.6535Y-4.8819
X6.6535Y-6.8406
X6.6929Y-4.7677
X6.6929Y-4.9252
X6.748Y-6.2598
X6.7717Y-3.9862
X6.7717Y-4.1043
X6.7717Y-6.7224
X6.7717Y-6.8406
X6.7795Y-5.2402
X6.7795Y-5.4409
X6.7795Y-5.5394
X6.7795Y-6.0394
X6.8031Y-6.2126
X6.8031Y-6.3071
X6.811Y-4.7874
X6.8209Y-4.2028
X6.8209Y-6.624
X6.8504Y-4.748
X6.8504Y-4.8268
X6.8622Y-5.2008
X6.8622Y-5.2795
X6.8622Y-5.4016
X6.8622Y-5.4882
X6.8622Y-5.5787
X6.8622Y-6.
X6.8622Y-6.0787
X6.9193Y-4.252
X6.9193Y-6.5748
X6.9449Y-5.2402
X6.9449Y-5.4409
X6.9449Y-5.5394
X7.0374Y-4.252
X7.0374Y-4.3701
X7.0374Y-4.4882
X7.0374Y-4.8031
X7.0374Y-4.9213
X7.0374Y-5.0394
X7.0374Y-5.1575
X7.0374Y-5.2756
X7.0374Y-5.3937
X7.0374Y-5.5118
X7.0374Y-5.6299
X7.0374Y-5.748
X7.0374Y-5.8661
X7.0374Y-5.9843
X7.0374Y-6.1024
X7.0374Y-6.2205
X7.0374Y-6.3386
X7.0374Y-6.4567
X7.0374Y-6.5748
T2
X2.4331Y-4.0945
X2.4331Y-6.7323
X2.4587Y-4.0335
X2.4587Y-4.1555
X2.4587Y-6.6713
X2.4587Y-6.7933
X2.5197Y-4.0079
X2.5197Y-4.1811
X2.5197Y-6.6457
X2.5197Y-6.8189
X2.5807Y-4.0335
X2.5807Y-4.1555
X2.5807Y-6.6713
X2.5807Y-6.7933
X2.6063Y-4.0945
X2.6063Y-6.7323
X4.874Y-4.0945
X4.8996Y-4.0335
X4.8996Y-4.1555
X4.9606Y-4.0079
X4.9606Y-4.1811
X5.0217Y-4.0335
X5.0217Y-4.1555
X5.0472Y-4.0945
X6.8425Y-4.0945
X6.8425Y-6.7323
X6.8681Y-4.0335
X6.8681Y-4.1555
X6.8681Y-6.6713
X6.8681Y-6.7933
X6.9291Y-4.0079
X6.9291Y-4.1811
X6.9291Y-6.6457
X6.9291Y-6.8189
X6.9902Y-4.0335
X6.9902Y-4.1555
X6.9902Y-6.6713
X6.9902Y-6.7933
X7.0157Y-4.0945
X7.0157Y-6.7323
T3
X5.6902Y-4.2677
X5.7902Y-4.2677
T4
X5.2124Y-5.7185
X5.5493Y-5.1556
X5.5493Y-5.6712
X5.6651Y-4.7776
X5.8508Y-5.4571
X5.9491Y-6.0492
X6.0649Y-5.1556
X6.4017Y-5.1083
X6.4402Y-5.5415
T5
X2.5197Y-4.0945
X2.5197Y-6.7323
X4.9606Y-4.0945
X6.9291Y-4.0945
X6.9291Y-6.7323
T6
X5.6818Y-5.5387
X5.9324Y-5.2881
T7
X3.2677Y-4.0748
X3.2677Y-4.3504
X4.1732Y-4.0748
X4.1732Y-4.3504
X6.5984Y-4.5197
X6.874Y-4.5197
T8
X5.3895Y-4.9958
X5.3895Y-5.831
X6.2247Y-4.9958
X6.2247Y-5.831
T0
M30
