%FSLAX34Y34*%
G04 Gerber Fmt 3.4, Leading zero omitted, Abs format*
G04 (created by PCBNEW (2014-03-01 BZR 4730)-product) date Thursday, July 17, 2014 'AMt' 09:27:46 AM*
%MOIN*%
G01*
G70*
G90*
G04 APERTURE LIST*
%ADD10C,0.006000*%
%ADD11R,0.125984X0.165354*%
%ADD12R,0.024400X0.024400*%
%ADD13R,0.163400X0.063000*%
%ADD14R,0.039400X0.037400*%
%ADD15R,0.100400X0.063000*%
%ADD16R,0.037400X0.039400*%
%ADD17R,0.047244X0.011811*%
%ADD18R,0.031496X0.062992*%
%ADD19R,0.062992X0.094488*%
%ADD20R,0.037400X0.037400*%
%ADD21R,0.124016X0.039370*%
%ADD22R,0.039370X0.124016*%
%ADD23R,0.035400X0.039400*%
%ADD24R,0.039400X0.035400*%
%ADD25R,0.019685X0.039370*%
%ADD26R,0.027559X0.039370*%
%ADD27R,0.039370X0.019685*%
%ADD28R,0.039370X0.027559*%
%ADD29R,0.045300X0.057100*%
%ADD30R,0.057100X0.045300*%
%ADD31R,0.110236X0.086614*%
%ADD32R,0.110236X0.110236*%
%ADD33R,0.086614X0.110236*%
%ADD34R,0.078740X0.110236*%
%ADD35R,0.017700X0.072800*%
%ADD36R,0.043300X0.023600*%
%ADD37R,0.007874X0.059055*%
%ADD38R,0.059055X0.007874*%
%ADD39R,0.083864X0.083864*%
%ADD40R,0.033465X0.047244*%
%ADD41R,0.029528X0.025591*%
%ADD42R,0.033465X0.051181*%
%ADD43R,0.043307X0.037402*%
%ADD44R,0.035433X0.037402*%
%ADD45R,0.037402X0.027559*%
%ADD46R,0.041339X0.027559*%
%ADD47R,0.039400X0.023600*%
G04 APERTURE END LIST*
G54D10*
G54D11*
X43956Y-62992D03*
X32421Y-62992D03*
G54D12*
X56082Y-47165D03*
X55728Y-47165D03*
X53956Y-47165D03*
X53602Y-47165D03*
X52421Y-47165D03*
X52775Y-47165D03*
X55728Y-42598D03*
X56082Y-42598D03*
X52617Y-42755D03*
X52263Y-42755D03*
X53130Y-42598D03*
X53484Y-42598D03*
G54D13*
X59468Y-47244D03*
X61948Y-47244D03*
X59468Y-43307D03*
X61948Y-43307D03*
G54D14*
X64094Y-47874D03*
X64094Y-47244D03*
X64094Y-43307D03*
X64094Y-42677D03*
G54D15*
X56515Y-41102D03*
X55137Y-41102D03*
G54D16*
X67559Y-48110D03*
X66929Y-48110D03*
G54D12*
X28248Y-48346D03*
X28602Y-48346D03*
X37795Y-49468D03*
X37795Y-49114D03*
X38267Y-49468D03*
X38267Y-49114D03*
X41555Y-52047D03*
X41909Y-52047D03*
X38818Y-55413D03*
X38818Y-55767D03*
X38188Y-55413D03*
X38188Y-55767D03*
X35413Y-52204D03*
X35059Y-52204D03*
G54D16*
X38031Y-59291D03*
X38661Y-59291D03*
G54D17*
X33582Y-57972D03*
X33582Y-57775D03*
X33582Y-57578D03*
X33582Y-57381D03*
X33582Y-57185D03*
X33582Y-56988D03*
X33582Y-56791D03*
X33582Y-56594D03*
X33582Y-56397D03*
X33582Y-56200D03*
X33582Y-56003D03*
X33582Y-55807D03*
X33582Y-55610D03*
X33582Y-55413D03*
X33582Y-55216D03*
X33582Y-55019D03*
X33582Y-54822D03*
X33582Y-54625D03*
X33582Y-54429D03*
X33582Y-54232D03*
X33582Y-54035D03*
X33582Y-53838D03*
X33582Y-53641D03*
X33582Y-53444D03*
X33582Y-53248D03*
X33582Y-53051D03*
X33582Y-52854D03*
X33582Y-52657D03*
X33582Y-52460D03*
X33582Y-52263D03*
X33582Y-52066D03*
X33582Y-51870D03*
X33582Y-51673D03*
X33582Y-51476D03*
X33582Y-51279D03*
X33582Y-51082D03*
X33582Y-50885D03*
X33582Y-50688D03*
X33582Y-50492D03*
X33582Y-50295D03*
G54D18*
X32834Y-58641D03*
G54D19*
X32362Y-58799D03*
X32362Y-49468D03*
G54D18*
X32834Y-49625D03*
G54D20*
X65433Y-47874D03*
X64803Y-47874D03*
X65433Y-43307D03*
X64803Y-43307D03*
X69133Y-47874D03*
X68503Y-47874D03*
X68897Y-48818D03*
X68267Y-48818D03*
G54D21*
X66627Y-61397D03*
X68616Y-61397D03*
X66627Y-60397D03*
X68616Y-60397D03*
X66627Y-59397D03*
X68616Y-59397D03*
X66627Y-58397D03*
X68616Y-58397D03*
X66627Y-57397D03*
X68616Y-57397D03*
X66627Y-56397D03*
X68616Y-56397D03*
X66627Y-55397D03*
X68616Y-55397D03*
X66627Y-54397D03*
X68616Y-54397D03*
X66627Y-53397D03*
X68616Y-53397D03*
X66627Y-52397D03*
X68616Y-52397D03*
X66627Y-51397D03*
X68616Y-51397D03*
G54D22*
X66122Y-65891D03*
X66122Y-63903D03*
X65122Y-65891D03*
X65122Y-63903D03*
X64122Y-65891D03*
X64122Y-63903D03*
X63122Y-65891D03*
X63122Y-63903D03*
X62122Y-65891D03*
X62122Y-63903D03*
X61122Y-65891D03*
X61122Y-63903D03*
X60122Y-65891D03*
X60122Y-63903D03*
X59122Y-65891D03*
X59122Y-63903D03*
X58122Y-65891D03*
X58122Y-63903D03*
X57122Y-65891D03*
X57122Y-63903D03*
X56122Y-65891D03*
X56122Y-63903D03*
X55122Y-65891D03*
X55122Y-63903D03*
X54122Y-65891D03*
X54122Y-63903D03*
G54D21*
X47627Y-61397D03*
X49616Y-61397D03*
X47627Y-60397D03*
X49616Y-60397D03*
X47627Y-59397D03*
X49616Y-59397D03*
X47627Y-58397D03*
X49616Y-58397D03*
X47627Y-57397D03*
X49616Y-57397D03*
X47627Y-56397D03*
X49616Y-56397D03*
X47627Y-55397D03*
X49616Y-55397D03*
X47627Y-54397D03*
X49616Y-54397D03*
X47627Y-53397D03*
X49616Y-53397D03*
X47627Y-52397D03*
X49616Y-52397D03*
X47627Y-51397D03*
X49616Y-51397D03*
G54D23*
X55196Y-42598D03*
X54566Y-42598D03*
G54D24*
X63385Y-47874D03*
X63385Y-47244D03*
X63385Y-43307D03*
X63385Y-42677D03*
G54D23*
X67559Y-48818D03*
X66929Y-48818D03*
X53385Y-41102D03*
X54015Y-41102D03*
G54D24*
X34566Y-57322D03*
X34566Y-57952D03*
X37244Y-58700D03*
X37244Y-58070D03*
X54527Y-47913D03*
X54527Y-47283D03*
G54D25*
X58937Y-62736D03*
X58622Y-62736D03*
G54D26*
X59291Y-62736D03*
X58267Y-62736D03*
X58267Y-62066D03*
G54D25*
X58622Y-62066D03*
X58937Y-62066D03*
G54D26*
X59291Y-62066D03*
G54D27*
X52933Y-64409D03*
X52933Y-64724D03*
G54D28*
X52933Y-64055D03*
X52933Y-65078D03*
X52263Y-65078D03*
G54D27*
X52263Y-64724D03*
X52263Y-64409D03*
G54D28*
X52263Y-64055D03*
G54D27*
X65137Y-56732D03*
X65137Y-57047D03*
G54D28*
X65137Y-56377D03*
X65137Y-57401D03*
X64468Y-57401D03*
G54D27*
X64468Y-57047D03*
X64468Y-56732D03*
G54D28*
X64468Y-56377D03*
G54D27*
X65137Y-58740D03*
X65137Y-59055D03*
G54D28*
X65137Y-58385D03*
X65137Y-59409D03*
X64468Y-59409D03*
G54D27*
X64468Y-59055D03*
X64468Y-58740D03*
G54D28*
X64468Y-58385D03*
G54D24*
X64094Y-61968D03*
X64094Y-62598D03*
X63385Y-61968D03*
X63385Y-62598D03*
G54D23*
X56850Y-62283D03*
X57480Y-62283D03*
G54D14*
X45196Y-44881D03*
X45196Y-45511D03*
X45196Y-43228D03*
X45196Y-43858D03*
G54D15*
X47696Y-45511D03*
X46318Y-45511D03*
X47696Y-43228D03*
X46318Y-43228D03*
X38641Y-43228D03*
X37263Y-43228D03*
X38641Y-45511D03*
X37263Y-45511D03*
G54D20*
X43543Y-41259D03*
X44173Y-41259D03*
X43543Y-46220D03*
X43543Y-45590D03*
X40000Y-43149D03*
X40000Y-42519D03*
X35433Y-43858D03*
X35433Y-43228D03*
X30944Y-42519D03*
X30944Y-43149D03*
X34488Y-41259D03*
X35118Y-41259D03*
G54D23*
X45196Y-46220D03*
X44566Y-46220D03*
X45196Y-42519D03*
X44566Y-42519D03*
G54D24*
X44488Y-44881D03*
X44488Y-45511D03*
X44488Y-43228D03*
X44488Y-43858D03*
X36141Y-43858D03*
X36141Y-43228D03*
X36141Y-45511D03*
X36141Y-46141D03*
G54D23*
X35511Y-42519D03*
X36141Y-42519D03*
X34803Y-45511D03*
X35433Y-45511D03*
G54D29*
X68621Y-62598D03*
X67913Y-62598D03*
X38071Y-57007D03*
X38779Y-57007D03*
G54D30*
X39921Y-57834D03*
X39921Y-58542D03*
G54D29*
X35787Y-55393D03*
X35079Y-55393D03*
X35787Y-49488D03*
X35079Y-49488D03*
X38542Y-47755D03*
X37834Y-47755D03*
X48976Y-62559D03*
X48268Y-62559D03*
X29646Y-48503D03*
X30354Y-48503D03*
G54D30*
X56929Y-43504D03*
X56929Y-44212D03*
G54D29*
X53268Y-41889D03*
X53976Y-41889D03*
G54D30*
X51259Y-46259D03*
X51259Y-45551D03*
G54D29*
X53503Y-48031D03*
X52795Y-48031D03*
X52479Y-42047D03*
X51771Y-42047D03*
G54D30*
X56929Y-46259D03*
X56929Y-45551D03*
G54D29*
X60748Y-62125D03*
X61456Y-62125D03*
G54D30*
X65039Y-60433D03*
X65039Y-61141D03*
G54D31*
X34133Y-40314D03*
G54D32*
X34133Y-44015D03*
X32253Y-45551D03*
G54D31*
X31220Y-41102D03*
X43188Y-40314D03*
G54D32*
X43188Y-44015D03*
X41309Y-45551D03*
G54D31*
X40275Y-41102D03*
G54D33*
X70275Y-46653D03*
X69173Y-46653D03*
G54D32*
X65472Y-46653D03*
X63858Y-44901D03*
G54D34*
X68425Y-43740D03*
X69527Y-43740D03*
G54D35*
X55757Y-46259D03*
X55501Y-46259D03*
X55246Y-46259D03*
X54990Y-46259D03*
X54734Y-46259D03*
X54478Y-46259D03*
X54222Y-46259D03*
X53966Y-46259D03*
X53710Y-46259D03*
X53454Y-46259D03*
X53198Y-46259D03*
X52942Y-46259D03*
X52687Y-46259D03*
X52431Y-46259D03*
X52431Y-43503D03*
X52687Y-43503D03*
X52942Y-43503D03*
X53198Y-43503D03*
X53454Y-43503D03*
X53710Y-43503D03*
X53966Y-43503D03*
X54222Y-43503D03*
X54478Y-43503D03*
X54734Y-43503D03*
X54990Y-43503D03*
X55246Y-43503D03*
X55501Y-43503D03*
X55757Y-43503D03*
G54D36*
X39113Y-57814D03*
X39113Y-58188D03*
X39113Y-58562D03*
X38051Y-58562D03*
X38051Y-57814D03*
G54D37*
X37244Y-50629D03*
X37401Y-50629D03*
X37559Y-50629D03*
X37716Y-50629D03*
X37874Y-50629D03*
X38031Y-50629D03*
X38188Y-50629D03*
X38346Y-50629D03*
X38503Y-50629D03*
X38661Y-50629D03*
X38818Y-50629D03*
X38976Y-50629D03*
X39133Y-50629D03*
X39291Y-50629D03*
X39448Y-50629D03*
X39606Y-50629D03*
G54D38*
X40078Y-51102D03*
X40078Y-51259D03*
X40078Y-51417D03*
X40078Y-51574D03*
X40078Y-51732D03*
X40078Y-51889D03*
X40078Y-52047D03*
X40078Y-52204D03*
X40078Y-52362D03*
X40078Y-52519D03*
X40078Y-52677D03*
X40078Y-52834D03*
X40078Y-52992D03*
X40078Y-53149D03*
X40078Y-53307D03*
X40078Y-53464D03*
G54D37*
X39606Y-53937D03*
X39448Y-53937D03*
X39291Y-53937D03*
X39133Y-53937D03*
X38976Y-53937D03*
X38818Y-53937D03*
X38661Y-53937D03*
X38503Y-53937D03*
X38346Y-53937D03*
X38188Y-53937D03*
X38031Y-53937D03*
X37874Y-53937D03*
X37716Y-53937D03*
X37559Y-53937D03*
X37401Y-53937D03*
X37244Y-53937D03*
G54D38*
X36771Y-53464D03*
X36771Y-53307D03*
X36771Y-53149D03*
X36771Y-52992D03*
X36771Y-52834D03*
X36771Y-52677D03*
X36771Y-52519D03*
X36771Y-52362D03*
X36771Y-52204D03*
X36771Y-52047D03*
X36771Y-51889D03*
X36771Y-51732D03*
X36771Y-51574D03*
X36771Y-51417D03*
X36771Y-51259D03*
X36771Y-51102D03*
G54D39*
X37884Y-51742D03*
X37884Y-52824D03*
X38966Y-51742D03*
X38966Y-52824D03*
G54D40*
X29852Y-46978D03*
G54D41*
X29872Y-46486D03*
X29872Y-43986D03*
G54D42*
X29852Y-42746D03*
G54D43*
X24114Y-47706D03*
G54D44*
X24074Y-42529D03*
G54D45*
X24635Y-46407D03*
X24635Y-44832D03*
G54D46*
X25226Y-44242D03*
X25226Y-44635D03*
X25226Y-45029D03*
X25226Y-45423D03*
X25226Y-45816D03*
X25226Y-46210D03*
X25226Y-46604D03*
X25226Y-46998D03*
G54D47*
X36515Y-58051D03*
X36515Y-58799D03*
X35609Y-58425D03*
M02*
