%FSLAX34Y34*%
G04 Gerber Fmt 3.4, Leading zero omitted, Abs format*
G04 (created by PCBNEW (2014-03-01 BZR 4730)-product) date Tuesday, July 01, 2014 'PMt' 01:30:20 PM*
%MOIN*%
G01*
G70*
G90*
G04 APERTURE LIST*
%ADD10C,0.006000*%
%ADD11C,0.011811*%
%ADD12R,0.125984X0.165354*%
%ADD13R,0.024400X0.024400*%
%ADD14R,0.163400X0.063000*%
%ADD15R,0.039400X0.037400*%
%ADD16R,0.100400X0.063000*%
%ADD17R,0.037400X0.039400*%
%ADD18C,0.220472*%
%ADD19C,0.023622*%
%ADD20R,0.047244X0.011811*%
%ADD21R,0.031496X0.062992*%
%ADD22R,0.062992X0.094488*%
%ADD23R,0.037400X0.037400*%
%ADD24R,0.124016X0.039370*%
%ADD25R,0.039370X0.124016*%
%ADD26R,0.041339X0.025591*%
%ADD27R,0.035400X0.039400*%
%ADD28R,0.039400X0.035400*%
%ADD29C,0.055118*%
%ADD30R,0.019685X0.039370*%
%ADD31R,0.027559X0.039370*%
%ADD32R,0.039370X0.019685*%
%ADD33R,0.039370X0.027559*%
%ADD34R,0.045300X0.057100*%
%ADD35R,0.057100X0.045300*%
%ADD36C,0.065000*%
%ADD37C,0.082677*%
%ADD38R,0.110236X0.086614*%
%ADD39R,0.110236X0.110236*%
%ADD40R,0.086614X0.110236*%
%ADD41R,0.078740X0.110236*%
%ADD42R,0.033465X0.047244*%
%ADD43R,0.029528X0.025591*%
%ADD44R,0.033465X0.051181*%
%ADD45R,0.045276X0.029331*%
%ADD46R,0.035433X0.037402*%
%ADD47R,0.025591X0.027559*%
%ADD48R,0.029528X0.027559*%
%ADD49R,0.182283X0.016535*%
%ADD50R,0.017700X0.072800*%
%ADD51R,0.043300X0.023600*%
%ADD52R,0.007874X0.059055*%
%ADD53R,0.059055X0.007874*%
%ADD54R,0.216535X0.216535*%
%ADD55C,0.027500*%
%ADD56C,0.015748*%
%ADD57C,0.007874*%
G04 APERTURE END LIST*
G54D10*
G54D11*
X30742Y-65778D02*
X30742Y-66172D01*
X30601Y-65553D02*
X30461Y-65975D01*
X30826Y-65975D01*
G54D12*
X43956Y-62992D03*
X32421Y-62992D03*
G54D13*
X51968Y-47578D03*
X51968Y-47932D03*
X56082Y-47165D03*
X55728Y-47165D03*
X53956Y-47165D03*
X53602Y-47165D03*
X52421Y-47165D03*
X52775Y-47165D03*
X55728Y-42598D03*
X56082Y-42598D03*
X52617Y-42755D03*
X52263Y-42755D03*
X53130Y-42598D03*
X53484Y-42598D03*
G54D14*
X59468Y-47244D03*
X61948Y-47244D03*
X59468Y-43307D03*
X61948Y-43307D03*
G54D15*
X63385Y-47874D03*
X63385Y-47244D03*
X64094Y-43307D03*
X64094Y-42677D03*
G54D16*
X56515Y-41102D03*
X55137Y-41102D03*
G54D17*
X67559Y-48110D03*
X66929Y-48110D03*
G54D13*
X28248Y-48346D03*
X28602Y-48346D03*
X37795Y-49468D03*
X37795Y-49114D03*
X38267Y-49468D03*
X38267Y-49114D03*
X41555Y-52047D03*
X41909Y-52047D03*
X38818Y-55413D03*
X38818Y-55767D03*
X38188Y-55413D03*
X38188Y-55767D03*
X35413Y-52204D03*
X35059Y-52204D03*
G54D17*
X38031Y-59291D03*
X38661Y-59291D03*
G54D18*
X49606Y-40944D03*
G54D19*
X49606Y-40078D03*
X48740Y-40944D03*
X49606Y-41811D03*
X50472Y-40944D03*
X50216Y-40334D03*
X48996Y-40334D03*
X48996Y-41555D03*
X50216Y-41555D03*
G54D18*
X69291Y-40944D03*
G54D19*
X69291Y-40078D03*
X68425Y-40944D03*
X69291Y-41811D03*
X70157Y-40944D03*
X69901Y-40334D03*
X68681Y-40334D03*
X68681Y-41555D03*
X69901Y-41555D03*
G54D18*
X69291Y-67322D03*
G54D19*
X69291Y-66456D03*
X68425Y-67322D03*
X69291Y-68188D03*
X70157Y-67322D03*
X69901Y-66712D03*
X68681Y-66712D03*
X68681Y-67933D03*
X69901Y-67933D03*
G54D18*
X25196Y-67322D03*
G54D19*
X25196Y-66456D03*
X24330Y-67322D03*
X25196Y-68188D03*
X26062Y-67322D03*
X25807Y-66712D03*
X24586Y-66712D03*
X24586Y-67933D03*
X25807Y-67933D03*
G54D18*
X25196Y-40944D03*
G54D19*
X25196Y-40078D03*
X24330Y-40944D03*
X25196Y-41811D03*
X26062Y-40944D03*
X25807Y-40334D03*
X24586Y-40334D03*
X24586Y-41555D03*
X25807Y-41555D03*
G54D20*
X33582Y-57972D03*
X33582Y-57775D03*
X33582Y-57578D03*
X33582Y-57381D03*
X33582Y-57185D03*
X33582Y-56988D03*
X33582Y-56791D03*
X33582Y-56594D03*
X33582Y-56397D03*
X33582Y-56200D03*
X33582Y-56003D03*
X33582Y-55807D03*
X33582Y-55610D03*
X33582Y-55413D03*
X33582Y-55216D03*
X33582Y-55019D03*
X33582Y-54822D03*
X33582Y-54625D03*
X33582Y-54429D03*
X33582Y-54232D03*
X33582Y-54035D03*
X33582Y-53838D03*
X33582Y-53641D03*
X33582Y-53444D03*
X33582Y-53248D03*
X33582Y-53051D03*
X33582Y-52854D03*
X33582Y-52657D03*
X33582Y-52460D03*
X33582Y-52263D03*
X33582Y-52066D03*
X33582Y-51870D03*
X33582Y-51673D03*
X33582Y-51476D03*
X33582Y-51279D03*
X33582Y-51082D03*
X33582Y-50885D03*
X33582Y-50688D03*
X33582Y-50492D03*
X33582Y-50295D03*
G54D21*
X32834Y-58641D03*
G54D22*
X32362Y-58799D03*
X32362Y-49468D03*
G54D21*
X32834Y-49625D03*
G54D23*
X65433Y-47874D03*
X64803Y-47874D03*
X65433Y-43307D03*
X64803Y-43307D03*
X69133Y-47874D03*
X68503Y-47874D03*
X68897Y-48818D03*
X68267Y-48818D03*
G54D24*
X66627Y-61397D03*
X68616Y-61397D03*
X66627Y-60397D03*
X68616Y-60397D03*
X66627Y-59397D03*
X68616Y-59397D03*
X66627Y-58397D03*
X68616Y-58397D03*
X66627Y-57397D03*
X68616Y-57397D03*
X66627Y-56397D03*
X68616Y-56397D03*
X66627Y-55397D03*
X68616Y-55397D03*
X66627Y-54397D03*
X68616Y-54397D03*
X66627Y-53397D03*
X68616Y-53397D03*
X66627Y-52397D03*
X68616Y-52397D03*
X66627Y-51397D03*
X68616Y-51397D03*
G54D25*
X66122Y-65891D03*
X66122Y-63903D03*
X65122Y-65891D03*
X65122Y-63903D03*
X64122Y-65891D03*
X64122Y-63903D03*
X63122Y-65891D03*
X63122Y-63903D03*
X62122Y-65891D03*
X62122Y-63903D03*
X61122Y-65891D03*
X61122Y-63903D03*
X60122Y-65891D03*
X60122Y-63903D03*
X59122Y-65891D03*
X59122Y-63903D03*
X58122Y-65891D03*
X58122Y-63903D03*
X57122Y-65891D03*
X57122Y-63903D03*
X56122Y-65891D03*
X56122Y-63903D03*
X55122Y-65891D03*
X55122Y-63903D03*
X54122Y-65891D03*
X54122Y-63903D03*
G54D24*
X47627Y-61397D03*
X49616Y-61397D03*
X47627Y-60397D03*
X49616Y-60397D03*
X47627Y-59397D03*
X49616Y-59397D03*
X47627Y-58397D03*
X49616Y-58397D03*
X47627Y-57397D03*
X49616Y-57397D03*
X47627Y-56397D03*
X49616Y-56397D03*
X47627Y-55397D03*
X49616Y-55397D03*
X47627Y-54397D03*
X49616Y-54397D03*
X47627Y-53397D03*
X49616Y-53397D03*
X47627Y-52397D03*
X49616Y-52397D03*
X47627Y-51397D03*
X49616Y-51397D03*
G54D26*
X50452Y-47933D03*
X50452Y-47185D03*
X51358Y-47559D03*
X36279Y-58287D03*
X36279Y-59035D03*
X35374Y-58661D03*
G54D27*
X49015Y-47874D03*
X48385Y-47874D03*
G54D28*
X49724Y-47244D03*
X49724Y-47874D03*
G54D27*
X55196Y-42598D03*
X54566Y-42598D03*
G54D28*
X64094Y-47874D03*
X64094Y-47244D03*
X63385Y-43307D03*
X63385Y-42677D03*
G54D27*
X67559Y-48818D03*
X66929Y-48818D03*
X53385Y-41102D03*
X54015Y-41102D03*
G54D28*
X34566Y-57322D03*
X34566Y-57952D03*
X37007Y-58976D03*
X37007Y-58346D03*
G54D27*
X34645Y-58661D03*
X34015Y-58661D03*
G54D28*
X54527Y-47913D03*
X54527Y-47283D03*
G54D29*
X57901Y-42677D03*
X56901Y-42677D03*
G54D30*
X58937Y-62736D03*
X58622Y-62736D03*
G54D31*
X59291Y-62736D03*
X58267Y-62736D03*
X58267Y-62066D03*
G54D30*
X58622Y-62066D03*
X58937Y-62066D03*
G54D31*
X59291Y-62066D03*
G54D32*
X52933Y-64409D03*
X52933Y-64724D03*
G54D33*
X52933Y-64055D03*
X52933Y-65078D03*
X52263Y-65078D03*
G54D32*
X52263Y-64724D03*
X52263Y-64409D03*
G54D33*
X52263Y-64055D03*
G54D32*
X65137Y-56732D03*
X65137Y-57047D03*
G54D33*
X65137Y-56377D03*
X65137Y-57401D03*
X64468Y-57401D03*
G54D32*
X64468Y-57047D03*
X64468Y-56732D03*
G54D33*
X64468Y-56377D03*
G54D32*
X65137Y-58740D03*
X65137Y-59055D03*
G54D33*
X65137Y-58385D03*
X65137Y-59409D03*
X64468Y-59409D03*
G54D32*
X64468Y-59055D03*
X64468Y-58740D03*
G54D33*
X64468Y-58385D03*
G54D28*
X64094Y-61968D03*
X64094Y-62598D03*
X63385Y-61968D03*
X63385Y-62598D03*
G54D27*
X56850Y-62283D03*
X57480Y-62283D03*
G54D15*
X45196Y-44881D03*
X45196Y-45511D03*
X45196Y-43228D03*
X45196Y-43858D03*
G54D16*
X47696Y-45511D03*
X46318Y-45511D03*
X47696Y-43228D03*
X46318Y-43228D03*
X38641Y-43228D03*
X37263Y-43228D03*
X38641Y-45511D03*
X37263Y-45511D03*
G54D23*
X43543Y-41259D03*
X44173Y-41259D03*
X43543Y-46220D03*
X43543Y-45590D03*
X40000Y-43149D03*
X40000Y-42519D03*
X35433Y-43858D03*
X35433Y-43228D03*
X30944Y-42519D03*
X30944Y-43149D03*
X34488Y-41259D03*
X35118Y-41259D03*
G54D27*
X45196Y-46220D03*
X44566Y-46220D03*
X45196Y-42519D03*
X44566Y-42519D03*
G54D28*
X44488Y-44881D03*
X44488Y-45511D03*
X44488Y-43228D03*
X44488Y-43858D03*
X36141Y-43858D03*
X36141Y-43228D03*
X36141Y-45511D03*
X36141Y-46141D03*
G54D27*
X35511Y-42519D03*
X36141Y-42519D03*
X34803Y-45511D03*
X35433Y-45511D03*
G54D34*
X68621Y-62598D03*
X67913Y-62598D03*
X38071Y-57007D03*
X38779Y-57007D03*
G54D35*
X39921Y-57834D03*
X39921Y-58542D03*
G54D34*
X35787Y-55393D03*
X35079Y-55393D03*
X35787Y-49488D03*
X35079Y-49488D03*
X38542Y-47755D03*
X37834Y-47755D03*
X48976Y-62559D03*
X48268Y-62559D03*
X29646Y-48503D03*
X30354Y-48503D03*
G54D35*
X56929Y-43504D03*
X56929Y-44212D03*
G54D34*
X53268Y-41889D03*
X53976Y-41889D03*
G54D35*
X51259Y-46259D03*
X51259Y-45551D03*
G54D34*
X53503Y-48031D03*
X52795Y-48031D03*
X52479Y-42047D03*
X51771Y-42047D03*
G54D35*
X56929Y-46259D03*
X56929Y-45551D03*
G54D34*
X60748Y-62125D03*
X61456Y-62125D03*
G54D35*
X65039Y-60433D03*
X65039Y-61141D03*
G54D36*
X28031Y-41023D03*
X66456Y-41023D03*
X25275Y-63464D03*
X69212Y-64488D03*
G54D37*
X55492Y-56711D03*
X60648Y-51555D03*
X58507Y-54570D03*
X55492Y-51555D03*
X56651Y-47775D03*
X64017Y-51082D03*
X64401Y-55414D03*
X59490Y-60492D03*
X52124Y-57185D03*
G54D38*
X34133Y-40314D03*
G54D39*
X34133Y-44015D03*
X32253Y-45551D03*
G54D38*
X31220Y-41102D03*
X43188Y-40314D03*
G54D39*
X43188Y-44015D03*
X41309Y-45551D03*
G54D38*
X40275Y-41102D03*
G54D40*
X70275Y-46653D03*
X69173Y-46653D03*
G54D39*
X65472Y-46653D03*
X63858Y-44901D03*
G54D41*
X68425Y-43740D03*
X69527Y-43740D03*
G54D42*
X29852Y-46973D03*
G54D43*
X29872Y-46486D03*
X29872Y-43986D03*
G54D44*
X29852Y-42750D03*
G54D45*
X24104Y-47661D03*
G54D46*
X24074Y-42529D03*
G54D47*
X24694Y-46407D03*
X24694Y-44832D03*
G54D48*
X25167Y-44242D03*
X25167Y-44635D03*
X25167Y-45029D03*
X25167Y-45423D03*
X25167Y-45816D03*
X25167Y-46210D03*
X25167Y-46604D03*
X25167Y-46998D03*
G54D49*
X25840Y-47922D03*
G54D50*
X55757Y-46259D03*
X55501Y-46259D03*
X55246Y-46259D03*
X54990Y-46259D03*
X54734Y-46259D03*
X54478Y-46259D03*
X54222Y-46259D03*
X53966Y-46259D03*
X53710Y-46259D03*
X53454Y-46259D03*
X53198Y-46259D03*
X52942Y-46259D03*
X52687Y-46259D03*
X52431Y-46259D03*
X52431Y-43503D03*
X52687Y-43503D03*
X52942Y-43503D03*
X53198Y-43503D03*
X53454Y-43503D03*
X53710Y-43503D03*
X53966Y-43503D03*
X54222Y-43503D03*
X54478Y-43503D03*
X54734Y-43503D03*
X54990Y-43503D03*
X55246Y-43503D03*
X55501Y-43503D03*
X55757Y-43503D03*
G54D51*
X39113Y-57814D03*
X39113Y-58188D03*
X39113Y-58562D03*
X38051Y-58562D03*
X38051Y-57814D03*
G54D52*
X37244Y-50629D03*
X37401Y-50629D03*
X37559Y-50629D03*
X37716Y-50629D03*
X37874Y-50629D03*
X38031Y-50629D03*
X38188Y-50629D03*
X38346Y-50629D03*
X38503Y-50629D03*
X38661Y-50629D03*
X38818Y-50629D03*
X38976Y-50629D03*
X39133Y-50629D03*
X39291Y-50629D03*
X39448Y-50629D03*
X39606Y-50629D03*
G54D53*
X40078Y-51102D03*
X40078Y-51259D03*
X40078Y-51417D03*
X40078Y-51574D03*
X40078Y-51732D03*
X40078Y-51889D03*
X40078Y-52047D03*
X40078Y-52204D03*
X40078Y-52362D03*
X40078Y-52519D03*
X40078Y-52677D03*
X40078Y-52834D03*
X40078Y-52992D03*
X40078Y-53149D03*
X40078Y-53307D03*
X40078Y-53464D03*
G54D52*
X39606Y-53937D03*
X39448Y-53937D03*
X39291Y-53937D03*
X39133Y-53937D03*
X38976Y-53937D03*
X38818Y-53937D03*
X38661Y-53937D03*
X38503Y-53937D03*
X38346Y-53937D03*
X38188Y-53937D03*
X38031Y-53937D03*
X37874Y-53937D03*
X37716Y-53937D03*
X37559Y-53937D03*
X37401Y-53937D03*
X37244Y-53937D03*
G54D53*
X36771Y-53464D03*
X36771Y-53307D03*
X36771Y-53149D03*
X36771Y-52992D03*
X36771Y-52834D03*
X36771Y-52677D03*
X36771Y-52519D03*
X36771Y-52362D03*
X36771Y-52204D03*
X36771Y-52047D03*
X36771Y-51889D03*
X36771Y-51732D03*
X36771Y-51574D03*
X36771Y-51417D03*
X36771Y-51259D03*
X36771Y-51102D03*
G54D54*
X38425Y-52283D03*
G54D55*
X35669Y-52204D03*
X36220Y-49488D03*
X35669Y-49960D03*
X35669Y-49015D03*
X35669Y-55866D03*
X36220Y-55393D03*
X35669Y-54921D03*
X37677Y-57204D03*
X37677Y-56811D03*
X38188Y-49763D03*
X33129Y-50964D03*
X38188Y-55118D03*
X38818Y-55118D03*
X50452Y-46870D03*
X49724Y-46889D03*
X49330Y-47322D03*
X38976Y-47755D03*
X38425Y-48228D03*
X38425Y-47283D03*
X35866Y-59015D03*
X36299Y-59370D03*
X39133Y-58858D03*
X40393Y-57952D03*
X39921Y-57440D03*
X48858Y-63031D03*
X49409Y-62559D03*
X48858Y-62086D03*
X29763Y-48976D03*
X29763Y-48031D03*
X65039Y-60000D03*
X65511Y-60551D03*
X64566Y-60551D03*
X60275Y-62125D03*
X60866Y-61614D03*
X60866Y-62637D03*
X41259Y-52047D03*
X28228Y-48661D03*
X28228Y-48031D03*
X27913Y-48346D03*
X29212Y-48503D03*
X49606Y-61811D03*
X50472Y-61377D03*
X49606Y-60984D03*
X61535Y-63897D03*
X60708Y-63897D03*
X61141Y-64763D03*
X61102Y-63070D03*
X67795Y-60393D03*
X68622Y-60787D03*
X68622Y-60000D03*
X25511Y-45433D03*
X24803Y-45433D03*
X37795Y-49763D03*
X33129Y-57381D03*
X51968Y-47263D03*
X50964Y-47559D03*
X51358Y-47244D03*
X53937Y-48031D03*
X53385Y-47559D03*
X52362Y-46850D03*
X56062Y-46850D03*
X56456Y-46141D03*
X57401Y-46141D03*
X56456Y-43622D03*
X57401Y-43622D03*
X55669Y-42913D03*
X51732Y-46141D03*
X50787Y-46141D03*
X51259Y-46692D03*
X53976Y-46850D03*
X55511Y-44094D03*
X52125Y-46259D03*
X56062Y-46259D03*
X57913Y-61614D03*
X55118Y-44094D03*
X55236Y-45669D03*
X58464Y-61614D03*
X59645Y-61614D03*
X55236Y-46968D03*
X55236Y-47362D03*
X59094Y-61614D03*
X54763Y-44094D03*
X54645Y-65669D03*
X54251Y-44448D03*
X54645Y-66062D03*
X50511Y-48503D03*
X50511Y-52401D03*
X37559Y-55984D03*
X39212Y-55984D03*
X37559Y-55511D03*
X39212Y-55511D03*
X46692Y-53385D03*
X46771Y-57401D03*
X46692Y-52440D03*
X46771Y-58425D03*
X46377Y-58425D03*
X52362Y-59448D03*
X50472Y-60393D03*
X29921Y-43622D03*
X26299Y-45826D03*
X48740Y-56377D03*
X48740Y-57401D03*
X26299Y-45039D03*
X26299Y-46614D03*
X48740Y-58425D03*
X26299Y-47007D03*
X48503Y-59370D03*
X50472Y-59370D03*
X26299Y-44251D03*
X48503Y-60393D03*
X26299Y-44645D03*
X36771Y-50472D03*
X43700Y-50629D03*
X36535Y-50157D03*
X43385Y-50314D03*
X44015Y-50944D03*
X36771Y-50866D03*
X43070Y-50000D03*
X36771Y-49842D03*
X27263Y-48129D03*
X27263Y-49311D03*
X27263Y-50492D03*
X27263Y-51673D03*
X24685Y-48267D03*
X25866Y-48267D03*
X35039Y-39862D03*
X32677Y-39862D03*
X42125Y-39862D03*
X44488Y-39862D03*
X45669Y-39862D03*
X46850Y-39862D03*
X48031Y-39862D03*
X48031Y-41043D03*
X48425Y-41929D03*
X49606Y-42519D03*
X50688Y-42027D03*
X51181Y-41043D03*
X51181Y-39862D03*
X52362Y-39862D03*
X53543Y-39862D03*
X54724Y-39862D03*
X55905Y-39862D03*
X57086Y-39862D03*
X58267Y-39862D03*
X59448Y-39862D03*
X60629Y-39862D03*
X61811Y-39862D03*
X62992Y-39862D03*
X64173Y-39862D03*
X65354Y-39862D03*
X66535Y-39862D03*
X70374Y-42519D03*
X67716Y-39862D03*
X67716Y-41043D03*
X68208Y-42027D03*
X69192Y-42519D03*
X26771Y-39862D03*
X24114Y-43110D03*
X24114Y-44291D03*
X24114Y-45472D03*
X24114Y-46653D03*
X25196Y-42519D03*
X26279Y-42027D03*
X26771Y-41043D03*
X27952Y-39862D03*
X29133Y-39862D03*
X30314Y-39862D03*
X31496Y-39862D03*
X36220Y-39862D03*
X37401Y-39862D03*
X40944Y-39862D03*
X39763Y-39862D03*
X38582Y-39862D03*
X70374Y-44881D03*
X70374Y-43700D03*
X27263Y-55216D03*
X27263Y-52854D03*
X26771Y-68405D03*
X24212Y-62401D03*
X24114Y-63385D03*
X24114Y-64566D03*
X24114Y-65748D03*
X25295Y-65748D03*
X26279Y-66240D03*
X26771Y-67224D03*
X29133Y-68405D03*
X27952Y-68405D03*
X27263Y-54133D03*
X27263Y-56397D03*
X27263Y-57578D03*
X27263Y-58759D03*
X27263Y-59940D03*
X27263Y-61122D03*
X27263Y-62303D03*
X26279Y-62303D03*
X25098Y-62303D03*
X66535Y-68405D03*
X65354Y-68405D03*
X64173Y-68405D03*
X62992Y-68405D03*
X61811Y-68405D03*
X60629Y-68405D03*
X59448Y-68405D03*
X58267Y-68405D03*
X57086Y-68405D03*
X55905Y-68405D03*
X54724Y-68405D03*
X53543Y-68405D03*
X52362Y-68405D03*
X51181Y-68405D03*
X50000Y-68405D03*
X48818Y-68405D03*
X47637Y-68405D03*
X46456Y-68405D03*
X45275Y-68405D03*
X44094Y-68405D03*
X42913Y-68405D03*
X41732Y-68405D03*
X40551Y-68405D03*
X39370Y-68405D03*
X38188Y-68405D03*
X37007Y-68405D03*
X35826Y-68405D03*
X34645Y-68405D03*
X33464Y-68405D03*
X32283Y-68405D03*
X31102Y-68405D03*
X67716Y-68405D03*
X29921Y-68405D03*
X70374Y-48031D03*
X70374Y-49212D03*
X70374Y-50393D03*
X70374Y-51574D03*
X70374Y-52755D03*
X70374Y-53937D03*
X70374Y-55118D03*
X70374Y-56299D03*
X70374Y-57480D03*
X70374Y-58661D03*
X70374Y-59842D03*
X70374Y-61023D03*
X70374Y-62204D03*
X70374Y-63385D03*
X70374Y-64566D03*
X70374Y-65748D03*
X69192Y-65748D03*
X68208Y-66240D03*
X67716Y-67224D03*
X34763Y-52204D03*
X37401Y-47755D03*
X37952Y-47283D03*
X37952Y-48228D03*
X38582Y-49094D03*
X38267Y-48818D03*
X37795Y-48818D03*
X34645Y-49488D03*
X35196Y-49960D03*
X35196Y-49015D03*
X35196Y-54921D03*
X34645Y-55393D03*
X35196Y-55866D03*
X39921Y-58937D03*
X40393Y-58425D03*
X39173Y-57204D03*
X39173Y-56811D03*
X42204Y-52047D03*
X41889Y-52362D03*
X47834Y-62559D03*
X48385Y-62086D03*
X48385Y-63031D03*
X67480Y-62598D03*
X68031Y-63070D03*
X68031Y-62125D03*
X69448Y-55393D03*
X69448Y-54409D03*
X69448Y-52401D03*
X52362Y-48031D03*
X52913Y-47559D03*
X52755Y-46850D03*
X55669Y-46850D03*
X56456Y-45669D03*
X57401Y-45669D03*
X57401Y-44094D03*
X56456Y-44094D03*
X56062Y-42913D03*
X54409Y-41889D03*
X54094Y-42362D03*
X53779Y-42598D03*
X51653Y-42519D03*
X51968Y-42755D03*
X51889Y-41574D03*
X45590Y-44960D03*
X44094Y-44960D03*
X44094Y-43779D03*
X45590Y-43779D03*
X36535Y-43937D03*
X36535Y-46141D03*
X30236Y-48976D03*
X30787Y-48503D03*
X30236Y-48031D03*
X28582Y-48661D03*
X28582Y-48031D03*
X35039Y-41653D03*
X35511Y-41259D03*
X44566Y-41259D03*
X44094Y-40866D03*
X35039Y-40866D03*
X50787Y-45669D03*
X51732Y-45669D03*
X44094Y-41653D03*
X32421Y-61968D03*
X65039Y-61574D03*
X65511Y-61023D03*
X64566Y-61023D03*
X61338Y-61614D03*
X61889Y-62125D03*
X61338Y-62637D03*
X68503Y-47480D03*
X66535Y-48110D03*
X66929Y-47677D03*
X52125Y-43503D03*
X24685Y-46751D03*
X63385Y-42283D03*
X64094Y-42283D03*
X68622Y-52007D03*
X68622Y-55787D03*
X66929Y-49251D03*
X66535Y-48818D03*
X25531Y-46200D03*
X24704Y-46062D03*
X24704Y-44488D03*
X32362Y-50137D03*
X32834Y-50137D03*
X33188Y-49625D03*
X32893Y-49094D03*
X31850Y-49468D03*
X32362Y-48799D03*
X32834Y-58129D03*
X31850Y-58799D03*
X32362Y-58129D03*
X32362Y-59468D03*
X32893Y-59173D03*
X33188Y-58641D03*
X32421Y-64015D03*
X31574Y-62992D03*
X33267Y-62992D03*
X64094Y-48267D03*
X63385Y-48267D03*
X62992Y-47874D03*
X62992Y-42677D03*
X64488Y-42677D03*
X68503Y-48267D03*
X68110Y-47874D03*
X39055Y-59291D03*
X38582Y-58188D03*
X38582Y-58661D03*
X38582Y-57716D03*
X53543Y-46850D03*
X53188Y-46850D03*
X54094Y-44094D03*
X56062Y-43503D03*
X29448Y-42755D03*
X29842Y-43228D03*
X29842Y-46141D03*
X29842Y-47401D03*
X38425Y-52283D03*
X38425Y-53149D03*
X39291Y-52283D03*
X37559Y-52283D03*
X38425Y-51417D03*
X39291Y-53149D03*
X37559Y-53149D03*
X39291Y-51417D03*
X37559Y-51417D03*
X61712Y-65885D03*
X62539Y-65885D03*
X62125Y-65059D03*
X57716Y-65885D03*
X58543Y-65885D03*
X58129Y-65059D03*
X46791Y-56397D03*
X48464Y-61397D03*
X46791Y-61397D03*
X47637Y-61811D03*
X47637Y-60984D03*
X64704Y-65885D03*
X65531Y-65885D03*
X65118Y-65059D03*
X34960Y-57952D03*
X34035Y-56456D03*
X33129Y-56397D03*
X34035Y-55019D03*
X33129Y-54822D03*
X67795Y-55393D03*
X68622Y-54881D03*
X67795Y-54409D03*
X68622Y-54015D03*
X68622Y-52795D03*
X67795Y-52401D03*
X33129Y-51397D03*
X34035Y-57972D03*
X34035Y-57578D03*
X34035Y-55807D03*
X34035Y-55413D03*
X33129Y-56003D03*
X33129Y-55610D03*
X33129Y-55216D03*
X38188Y-56062D03*
X38818Y-56062D03*
G54D56*
X35413Y-52204D02*
X35669Y-52204D01*
G54D57*
X35669Y-52204D02*
X36771Y-52204D01*
G54D56*
X35787Y-49488D02*
X36220Y-49488D01*
X35787Y-49488D02*
X35669Y-49605D01*
X35669Y-49605D02*
X35669Y-49960D01*
X35787Y-49488D02*
X35669Y-49370D01*
X35669Y-49370D02*
X35669Y-49015D01*
X35787Y-55393D02*
X35669Y-55511D01*
X35669Y-55511D02*
X35669Y-55866D01*
X35787Y-55393D02*
X36220Y-55393D01*
X35787Y-55393D02*
X35669Y-55275D01*
X35669Y-55275D02*
X35669Y-54921D01*
X38071Y-57007D02*
X37874Y-57204D01*
X37874Y-57204D02*
X37677Y-57204D01*
X38071Y-57007D02*
X37874Y-56811D01*
X37874Y-56811D02*
X37677Y-56811D01*
X38051Y-57814D02*
X38051Y-57027D01*
X38051Y-57027D02*
X38071Y-57007D01*
X38188Y-49763D02*
X38188Y-49547D01*
X38188Y-49547D02*
X38267Y-49468D01*
G54D57*
X38346Y-50629D02*
X38346Y-49921D01*
X38346Y-49921D02*
X38188Y-49763D01*
G54D11*
X33582Y-51082D02*
X33248Y-51082D01*
X33248Y-51082D02*
X33129Y-50964D01*
G54D56*
X38188Y-55413D02*
X38188Y-55118D01*
G54D57*
X38346Y-54960D02*
X38346Y-53937D01*
X38346Y-54960D02*
X38188Y-55118D01*
G54D56*
X38818Y-55413D02*
X38818Y-55118D01*
G54D57*
X38661Y-54960D02*
X38818Y-55118D01*
X38661Y-54960D02*
X38661Y-53937D01*
G54D56*
X50452Y-47185D02*
X50452Y-46870D01*
X49724Y-47244D02*
X49724Y-46889D01*
X50452Y-47185D02*
X49783Y-47185D01*
X49783Y-47185D02*
X49724Y-47244D01*
X49724Y-47244D02*
X49645Y-47322D01*
X49645Y-47322D02*
X49330Y-47322D01*
X38542Y-47755D02*
X38976Y-47755D01*
X38542Y-47755D02*
X38425Y-47873D01*
X38425Y-47873D02*
X38425Y-48228D01*
X38542Y-47755D02*
X38425Y-47638D01*
X38425Y-47638D02*
X38425Y-47283D01*
X36279Y-59035D02*
X36259Y-59015D01*
X36259Y-59015D02*
X35866Y-59015D01*
X36279Y-59035D02*
X36299Y-59055D01*
X36299Y-59055D02*
X36299Y-59370D01*
X39113Y-58562D02*
X39133Y-58583D01*
X39133Y-58583D02*
X39133Y-58858D01*
X39113Y-57814D02*
X39133Y-57834D01*
X39133Y-57834D02*
X39921Y-57834D01*
X39921Y-57834D02*
X40039Y-57952D01*
X40039Y-57952D02*
X40393Y-57952D01*
X39921Y-57834D02*
X39921Y-57440D01*
X48976Y-62559D02*
X48858Y-62676D01*
X48858Y-62676D02*
X48858Y-63031D01*
X48976Y-62559D02*
X49409Y-62559D01*
X48976Y-62559D02*
X48858Y-62441D01*
X48858Y-62441D02*
X48858Y-62086D01*
X29646Y-48503D02*
X29763Y-48621D01*
X29763Y-48621D02*
X29763Y-48976D01*
X29646Y-48503D02*
X29763Y-48386D01*
X29763Y-48386D02*
X29763Y-48031D01*
X65039Y-60433D02*
X65039Y-60000D01*
X65039Y-60433D02*
X65157Y-60551D01*
X65157Y-60551D02*
X65511Y-60551D01*
X65039Y-60433D02*
X64921Y-60551D01*
X64921Y-60551D02*
X64566Y-60551D01*
X60748Y-62125D02*
X60275Y-62125D01*
X60748Y-62125D02*
X60866Y-62008D01*
X60866Y-62008D02*
X60866Y-61614D01*
X60748Y-62125D02*
X60866Y-62243D01*
X60866Y-62243D02*
X60866Y-62637D01*
X41555Y-52047D02*
X41259Y-52047D01*
G54D57*
X41259Y-52047D02*
X40314Y-52047D01*
G54D56*
X28248Y-48346D02*
X28248Y-48641D01*
X28248Y-48641D02*
X28228Y-48661D01*
X28248Y-48346D02*
X28248Y-48051D01*
X28248Y-48051D02*
X28228Y-48031D01*
X28248Y-48346D02*
X27913Y-48346D01*
X29646Y-48503D02*
X29212Y-48503D01*
X49616Y-61397D02*
X49606Y-61407D01*
X49606Y-61407D02*
X49606Y-61811D01*
X49616Y-61397D02*
X49635Y-61377D01*
X49635Y-61377D02*
X50472Y-61377D01*
X49616Y-61397D02*
X49606Y-61387D01*
X49606Y-61387D02*
X49606Y-60984D01*
X61122Y-63903D02*
X61127Y-63897D01*
X61127Y-63897D02*
X61535Y-63897D01*
X61122Y-63903D02*
X61116Y-63897D01*
X61116Y-63897D02*
X60708Y-63897D01*
X61122Y-63903D02*
X61141Y-63923D01*
X61141Y-63923D02*
X61141Y-64763D01*
X61122Y-63903D02*
X61102Y-63883D01*
X61102Y-63883D02*
X61102Y-63070D01*
X68616Y-60397D02*
X68612Y-60393D01*
X68612Y-60393D02*
X67795Y-60393D01*
X68616Y-60397D02*
X68622Y-60403D01*
X68622Y-60403D02*
X68622Y-60787D01*
X68616Y-60397D02*
X68622Y-60391D01*
X68622Y-60391D02*
X68622Y-60000D01*
G54D57*
X25167Y-45423D02*
X25177Y-45433D01*
G54D56*
X25177Y-45433D02*
X25511Y-45433D01*
G54D57*
X25167Y-45423D02*
X25157Y-45433D01*
G54D56*
X25157Y-45433D02*
X24803Y-45433D01*
X37795Y-49468D02*
X37795Y-49763D01*
G54D57*
X38031Y-50000D02*
X38031Y-50629D01*
X38031Y-50000D02*
X37795Y-49763D01*
X37007Y-58976D02*
X36338Y-58976D01*
X36338Y-58976D02*
X36279Y-59035D01*
G54D11*
X33582Y-57381D02*
X33129Y-57381D01*
G54D57*
X37480Y-49842D02*
X37480Y-48661D01*
X37716Y-50078D02*
X37480Y-49842D01*
X37716Y-50629D02*
X37716Y-50078D01*
X48385Y-48228D02*
X48385Y-47874D01*
X48110Y-48503D02*
X48385Y-48228D01*
X37637Y-48503D02*
X48110Y-48503D01*
X37480Y-48661D02*
X37637Y-48503D01*
G54D56*
X51968Y-47578D02*
X51968Y-47263D01*
X51358Y-47559D02*
X50964Y-47559D01*
X51358Y-47559D02*
X51358Y-47244D01*
X53503Y-48031D02*
X53937Y-48031D01*
X53503Y-48031D02*
X53385Y-47913D01*
X53385Y-47913D02*
X53385Y-47559D01*
X52421Y-47165D02*
X52362Y-47106D01*
X52362Y-47106D02*
X52362Y-46850D01*
X56082Y-47165D02*
X56062Y-47145D01*
X56062Y-47145D02*
X56062Y-46850D01*
X56929Y-46259D02*
X56811Y-46141D01*
X56811Y-46141D02*
X56456Y-46141D01*
X56929Y-46259D02*
X57046Y-46141D01*
X57046Y-46141D02*
X57401Y-46141D01*
X56929Y-43504D02*
X56811Y-43622D01*
X56811Y-43622D02*
X56456Y-43622D01*
X56929Y-43504D02*
X57046Y-43622D01*
X57046Y-43622D02*
X57401Y-43622D01*
X55728Y-42598D02*
X55669Y-42657D01*
X55669Y-42657D02*
X55669Y-42913D01*
X51259Y-46259D02*
X51377Y-46141D01*
X51377Y-46141D02*
X51732Y-46141D01*
X51259Y-46259D02*
X51142Y-46141D01*
X51142Y-46141D02*
X50787Y-46141D01*
X51259Y-46259D02*
X51259Y-46692D01*
X53966Y-46259D02*
X53966Y-46840D01*
X53966Y-46840D02*
X53976Y-46850D01*
X53956Y-46870D02*
X53956Y-47165D01*
X53956Y-46870D02*
X53976Y-46850D01*
X55501Y-43503D02*
X55501Y-44084D01*
X55501Y-44084D02*
X55511Y-44094D01*
X52431Y-46259D02*
X52126Y-46259D01*
X52126Y-46259D02*
X52125Y-46259D01*
X55757Y-46259D02*
X56062Y-46259D01*
X56062Y-46259D02*
X56062Y-46259D01*
G54D57*
X58267Y-62736D02*
X58267Y-63031D01*
X58122Y-63177D02*
X58122Y-63903D01*
X58267Y-63031D02*
X58122Y-63177D01*
X58267Y-62066D02*
X58011Y-62066D01*
X57913Y-61968D02*
X57913Y-61614D01*
X58011Y-62066D02*
X57913Y-61968D01*
X54990Y-43966D02*
X55118Y-44094D01*
X54990Y-43966D02*
X54990Y-43503D01*
X54478Y-46259D02*
X54478Y-47234D01*
X54478Y-47234D02*
X54527Y-47283D01*
X58622Y-62736D02*
X58622Y-64606D01*
X59122Y-65106D02*
X59122Y-65891D01*
X58622Y-64606D02*
X59122Y-65106D01*
X55246Y-46259D02*
X55246Y-45679D01*
X55246Y-45679D02*
X55236Y-45669D01*
X58622Y-61771D02*
X58464Y-61614D01*
X58622Y-62066D02*
X58622Y-61771D01*
X59291Y-62736D02*
X59744Y-62736D01*
X60122Y-63114D02*
X60122Y-63903D01*
X59744Y-62736D02*
X60122Y-63114D01*
X59547Y-62066D02*
X59645Y-61968D01*
X59645Y-61968D02*
X59645Y-61614D01*
X59291Y-62066D02*
X59547Y-62066D01*
X54990Y-46722D02*
X54990Y-46259D01*
X54990Y-46722D02*
X55236Y-46968D01*
X58937Y-62736D02*
X58937Y-63031D01*
X59122Y-63216D02*
X59122Y-63903D01*
X58937Y-63031D02*
X59122Y-63216D01*
X54734Y-46860D02*
X54734Y-46259D01*
X54734Y-46860D02*
X55236Y-47362D01*
X54222Y-46259D02*
X54222Y-45777D01*
X54222Y-45777D02*
X54330Y-45669D01*
X54330Y-45669D02*
X54606Y-45669D01*
X54606Y-45669D02*
X54734Y-45797D01*
X54734Y-45797D02*
X54734Y-46259D01*
X58937Y-61771D02*
X59094Y-61614D01*
X58937Y-62066D02*
X58937Y-61771D01*
G54D56*
X59468Y-47244D02*
X58976Y-47244D01*
X58464Y-45944D02*
X57559Y-45039D01*
X57559Y-45039D02*
X54133Y-45039D01*
X54133Y-45039D02*
X53710Y-45462D01*
X53710Y-45462D02*
X53710Y-46259D01*
X58976Y-47244D02*
X58464Y-46732D01*
X58464Y-46732D02*
X58464Y-45944D01*
X53710Y-43503D02*
X53710Y-44084D01*
X47696Y-44901D02*
X47696Y-45511D01*
X48110Y-44488D02*
X47696Y-44901D01*
X53307Y-44488D02*
X48110Y-44488D01*
X53710Y-44084D02*
X53307Y-44488D01*
X47716Y-46929D02*
X40708Y-46929D01*
X47716Y-46929D02*
X49843Y-44802D01*
X52942Y-46259D02*
X52942Y-45225D01*
X52519Y-44802D02*
X49843Y-44802D01*
X52942Y-45225D02*
X52519Y-44802D01*
X38641Y-43759D02*
X38641Y-43228D01*
X39055Y-44173D02*
X38641Y-43759D01*
X39685Y-44173D02*
X39055Y-44173D01*
X40078Y-44566D02*
X39685Y-44173D01*
X40078Y-46299D02*
X40078Y-44566D01*
X40708Y-46929D02*
X40078Y-46299D01*
X53385Y-41102D02*
X53385Y-41772D01*
X53385Y-41772D02*
X53268Y-41889D01*
X53268Y-41889D02*
X53130Y-42027D01*
X53130Y-42027D02*
X53130Y-42598D01*
X53130Y-42598D02*
X52942Y-42786D01*
X52942Y-42786D02*
X52942Y-43503D01*
G54D57*
X53198Y-43503D02*
X53198Y-43021D01*
X54251Y-42913D02*
X54566Y-42598D01*
X53307Y-42913D02*
X54251Y-42913D01*
X53198Y-43021D02*
X53307Y-42913D01*
G54D56*
X59468Y-43307D02*
X58976Y-43307D01*
X58976Y-43307D02*
X57519Y-44763D01*
X54055Y-44763D02*
X53454Y-45364D01*
X57519Y-44763D02*
X54055Y-44763D01*
X53454Y-46259D02*
X53454Y-45364D01*
X53454Y-43503D02*
X53454Y-43947D01*
X47696Y-43759D02*
X47696Y-43228D01*
X48110Y-44173D02*
X47696Y-43759D01*
X53228Y-44173D02*
X48110Y-44173D01*
X53454Y-43947D02*
X53228Y-44173D01*
X39527Y-44566D02*
X39763Y-44803D01*
X47874Y-47244D02*
X40551Y-47244D01*
X47874Y-47244D02*
X50000Y-45118D01*
X52687Y-46259D02*
X52687Y-45363D01*
X52442Y-45118D02*
X50000Y-45118D01*
X52687Y-45363D02*
X52442Y-45118D01*
X39763Y-46456D02*
X39763Y-44803D01*
X40551Y-47244D02*
X39763Y-46456D01*
X38641Y-44980D02*
X38641Y-45511D01*
X39055Y-44566D02*
X38641Y-44980D01*
X39527Y-44566D02*
X39055Y-44566D01*
G54D57*
X54423Y-65891D02*
X54645Y-65669D01*
X54122Y-65891D02*
X54423Y-65891D01*
X54734Y-43503D02*
X54734Y-44065D01*
X54734Y-44065D02*
X54763Y-44094D01*
X54816Y-65891D02*
X55122Y-65891D01*
X54816Y-65891D02*
X54645Y-66062D01*
X54478Y-43503D02*
X54478Y-44222D01*
X54478Y-44222D02*
X54251Y-44448D01*
G54D56*
X52687Y-43503D02*
X52687Y-43002D01*
X52617Y-42932D02*
X52617Y-42755D01*
X52687Y-43002D02*
X52617Y-42932D01*
X52479Y-42047D02*
X52617Y-42185D01*
X52617Y-42185D02*
X52617Y-42755D01*
G54D57*
X49616Y-53397D02*
X48751Y-53397D01*
X42598Y-50629D02*
X39606Y-50629D01*
X44980Y-53011D02*
X42598Y-50629D01*
X48366Y-53011D02*
X44980Y-53011D01*
X48751Y-53397D02*
X48366Y-53011D01*
X54291Y-48503D02*
X50511Y-48503D01*
X54527Y-47913D02*
X54527Y-48267D01*
X50507Y-52397D02*
X49616Y-52397D01*
X50507Y-52397D02*
X50511Y-52401D01*
X54527Y-48267D02*
X54291Y-48503D01*
X49616Y-52397D02*
X48783Y-52397D01*
X39448Y-50236D02*
X39448Y-50629D01*
X39527Y-50157D02*
X39448Y-50236D01*
X42362Y-50157D02*
X39527Y-50157D01*
X45000Y-52795D02*
X42362Y-50157D01*
X48385Y-52795D02*
X45000Y-52795D01*
X48783Y-52397D02*
X48385Y-52795D01*
X65137Y-58740D02*
X65826Y-58740D01*
X67822Y-58397D02*
X68616Y-58397D01*
X67440Y-58779D02*
X67822Y-58397D01*
X65866Y-58779D02*
X67440Y-58779D01*
X65826Y-58740D02*
X65866Y-58779D01*
X55118Y-57874D02*
X55984Y-57874D01*
X64173Y-58740D02*
X64468Y-58740D01*
X62677Y-57244D02*
X64173Y-58740D01*
X56614Y-57244D02*
X62677Y-57244D01*
X55984Y-57874D02*
X56614Y-57244D01*
X53248Y-56003D02*
X44822Y-56003D01*
X41023Y-52204D02*
X40078Y-52204D01*
X44822Y-56003D02*
X41023Y-52204D01*
X55118Y-57874D02*
X53248Y-56003D01*
X65137Y-58385D02*
X66616Y-58385D01*
X66616Y-58385D02*
X66627Y-58397D01*
X53503Y-55787D02*
X46338Y-55787D01*
X64212Y-58385D02*
X62677Y-56850D01*
X62677Y-56850D02*
X56535Y-56850D01*
X56535Y-56850D02*
X55905Y-57480D01*
X55905Y-57480D02*
X55196Y-57480D01*
X55196Y-57480D02*
X53503Y-55787D01*
X64468Y-58385D02*
X64212Y-58385D01*
X40078Y-51888D02*
X40078Y-51889D01*
X40788Y-51888D02*
X40078Y-51888D01*
X40946Y-51731D02*
X40788Y-51888D01*
X42282Y-51731D02*
X40946Y-51731D01*
X46338Y-55787D02*
X42282Y-51731D01*
X65137Y-57047D02*
X65787Y-57047D01*
X67830Y-57397D02*
X68616Y-57397D01*
X67440Y-57007D02*
X67830Y-57397D01*
X65826Y-57007D02*
X67440Y-57007D01*
X65787Y-57047D02*
X65826Y-57007D01*
X55098Y-54783D02*
X56377Y-56062D01*
X40078Y-51574D02*
X40629Y-51574D01*
X40629Y-51574D02*
X40787Y-51417D01*
X55098Y-54783D02*
X45807Y-54783D01*
X45807Y-54783D02*
X42440Y-51417D01*
X40787Y-51417D02*
X42440Y-51417D01*
X63818Y-57047D02*
X64468Y-57047D01*
X62834Y-56062D02*
X63818Y-57047D01*
X56377Y-56062D02*
X62834Y-56062D01*
X65137Y-57401D02*
X66624Y-57401D01*
X66624Y-57401D02*
X66627Y-57397D01*
X54842Y-55000D02*
X56299Y-56456D01*
X40866Y-51574D02*
X42362Y-51574D01*
X40078Y-51732D02*
X40708Y-51732D01*
X45787Y-55000D02*
X42362Y-51574D01*
X45787Y-55000D02*
X54842Y-55000D01*
X40708Y-51732D02*
X40866Y-51574D01*
X63700Y-57401D02*
X64468Y-57401D01*
X62755Y-56456D02*
X63700Y-57401D01*
X56299Y-56456D02*
X62755Y-56456D01*
X40078Y-51731D02*
X40078Y-51732D01*
X40079Y-51732D02*
X40078Y-51731D01*
X65137Y-56732D02*
X65787Y-56732D01*
X67814Y-56397D02*
X68616Y-56397D01*
X67440Y-56771D02*
X67814Y-56397D01*
X65826Y-56771D02*
X67440Y-56771D01*
X65787Y-56732D02*
X65826Y-56771D01*
X56456Y-54015D02*
X58110Y-55669D01*
X40709Y-51259D02*
X42518Y-51259D01*
X40078Y-51417D02*
X40551Y-51417D01*
X45275Y-54015D02*
X56456Y-54015D01*
X42518Y-51259D02*
X45275Y-54015D01*
X40551Y-51417D02*
X40709Y-51259D01*
X63976Y-56732D02*
X64468Y-56732D01*
X62913Y-55669D02*
X63976Y-56732D01*
X58110Y-55669D02*
X62913Y-55669D01*
X40078Y-51416D02*
X40078Y-51417D01*
X40079Y-51417D02*
X40078Y-51416D01*
X40078Y-51418D02*
X40078Y-51417D01*
X65137Y-56377D02*
X66608Y-56377D01*
X66608Y-56377D02*
X66627Y-56397D01*
X58188Y-55275D02*
X62992Y-55275D01*
X62992Y-55275D02*
X64094Y-56377D01*
X40472Y-51259D02*
X40629Y-51102D01*
X58188Y-55275D02*
X56712Y-53799D01*
X56712Y-53799D02*
X45295Y-53799D01*
X45295Y-53799D02*
X42598Y-51102D01*
X64468Y-56377D02*
X64094Y-56377D01*
X40472Y-51259D02*
X40078Y-51259D01*
X40629Y-51102D02*
X42598Y-51102D01*
X65137Y-59055D02*
X65826Y-59055D01*
X67822Y-59397D02*
X68616Y-59397D01*
X67440Y-59015D02*
X67822Y-59397D01*
X65866Y-59015D02*
X67440Y-59015D01*
X65826Y-59055D02*
X65866Y-59015D01*
X40078Y-52519D02*
X40866Y-52519D01*
X63464Y-59055D02*
X64468Y-59055D01*
X63149Y-59370D02*
X63464Y-59055D01*
X53228Y-59370D02*
X63149Y-59370D01*
X50866Y-57007D02*
X53228Y-59370D01*
X45354Y-57007D02*
X50866Y-57007D01*
X40866Y-52519D02*
X45354Y-57007D01*
X65137Y-59409D02*
X66616Y-59409D01*
X66616Y-59409D02*
X66627Y-59397D01*
X40078Y-52677D02*
X40787Y-52677D01*
X63661Y-59409D02*
X64468Y-59409D01*
X63464Y-59606D02*
X63661Y-59409D01*
X52992Y-59606D02*
X63464Y-59606D01*
X51181Y-57795D02*
X52992Y-59606D01*
X45905Y-57795D02*
X51181Y-57795D01*
X40787Y-52677D02*
X45905Y-57795D01*
X39527Y-55196D02*
X39527Y-55669D01*
X36279Y-58287D02*
X36279Y-57027D01*
X37322Y-55984D02*
X36279Y-57027D01*
X38976Y-54645D02*
X39527Y-55196D01*
X38976Y-54645D02*
X38976Y-53937D01*
X37559Y-55984D02*
X37322Y-55984D01*
X39527Y-55669D02*
X39212Y-55984D01*
X37007Y-58346D02*
X36338Y-58346D01*
X36338Y-58346D02*
X36279Y-58287D01*
X36771Y-51417D02*
X36220Y-51417D01*
X33917Y-51673D02*
X33582Y-51673D01*
X34329Y-51260D02*
X33917Y-51673D01*
X36063Y-51260D02*
X34329Y-51260D01*
X36220Y-51417D02*
X36063Y-51260D01*
X36771Y-51574D02*
X36141Y-51574D01*
X33956Y-51870D02*
X33582Y-51870D01*
X34409Y-51417D02*
X33956Y-51870D01*
X35984Y-51417D02*
X34409Y-51417D01*
X36141Y-51574D02*
X35984Y-51417D01*
X36771Y-53149D02*
X36299Y-53149D01*
X35807Y-53641D02*
X33582Y-53641D01*
X36299Y-53149D02*
X35807Y-53641D01*
X36771Y-53307D02*
X36377Y-53307D01*
X35846Y-53838D02*
X33582Y-53838D01*
X36377Y-53307D02*
X35846Y-53838D01*
X36771Y-53464D02*
X36771Y-53622D01*
X36358Y-54035D02*
X33582Y-54035D01*
X36771Y-53622D02*
X36358Y-54035D01*
X33582Y-54232D02*
X36791Y-54232D01*
X37086Y-53937D02*
X37244Y-53937D01*
X36791Y-54232D02*
X37086Y-53937D01*
X33582Y-54429D02*
X37303Y-54429D01*
X37401Y-54330D02*
X37401Y-53937D01*
X37303Y-54429D02*
X37401Y-54330D01*
X37559Y-53937D02*
X37559Y-54409D01*
X37342Y-54625D02*
X33582Y-54625D01*
X37559Y-54409D02*
X37342Y-54625D01*
X36771Y-51732D02*
X36062Y-51732D01*
X33996Y-52066D02*
X33582Y-52066D01*
X34486Y-51576D02*
X33996Y-52066D01*
X35907Y-51576D02*
X34486Y-51576D01*
X36062Y-51732D02*
X35907Y-51576D01*
X33582Y-52263D02*
X34035Y-52263D01*
X35984Y-51889D02*
X36771Y-51889D01*
X35827Y-51733D02*
X35984Y-51889D01*
X34566Y-51733D02*
X35827Y-51733D01*
X34035Y-52263D02*
X34566Y-51733D01*
X36771Y-52047D02*
X35905Y-52047D01*
X35905Y-52047D02*
X35748Y-51889D01*
X35748Y-51889D02*
X34645Y-51889D01*
X34645Y-51889D02*
X34074Y-52460D01*
X34074Y-52460D02*
X33582Y-52460D01*
X36771Y-52362D02*
X35905Y-52362D01*
X35610Y-52657D02*
X33582Y-52657D01*
X35905Y-52362D02*
X35610Y-52657D01*
X36771Y-52519D02*
X35984Y-52519D01*
X35649Y-52854D02*
X33582Y-52854D01*
X35984Y-52519D02*
X35649Y-52854D01*
X36771Y-52677D02*
X36062Y-52677D01*
X35688Y-53051D02*
X33582Y-53051D01*
X36062Y-52677D02*
X35688Y-53051D01*
X36771Y-52834D02*
X36141Y-52834D01*
X35728Y-53248D02*
X33582Y-53248D01*
X36141Y-52834D02*
X35728Y-53248D01*
X36771Y-52992D02*
X36220Y-52992D01*
X35767Y-53444D02*
X33582Y-53444D01*
X36220Y-52992D02*
X35767Y-53444D01*
X33582Y-56791D02*
X35649Y-56791D01*
X37873Y-53938D02*
X37874Y-53937D01*
X37873Y-54567D02*
X37873Y-53938D01*
X35649Y-56791D02*
X37873Y-54567D01*
X34566Y-57322D02*
X34251Y-57322D01*
X34114Y-57185D02*
X33582Y-57185D01*
X34251Y-57322D02*
X34114Y-57185D01*
X34566Y-57322D02*
X34566Y-57322D01*
X39212Y-55511D02*
X39212Y-55118D01*
X39212Y-55118D02*
X38818Y-54724D01*
X38818Y-54724D02*
X38818Y-53937D01*
X35748Y-57322D02*
X37559Y-55511D01*
X34566Y-57322D02*
X35748Y-57322D01*
X38031Y-53937D02*
X38031Y-54645D01*
X35688Y-56988D02*
X33582Y-56988D01*
X38031Y-54645D02*
X35688Y-56988D01*
X33582Y-51476D02*
X33877Y-51476D01*
X36299Y-51259D02*
X36771Y-51259D01*
X36141Y-51102D02*
X36299Y-51259D01*
X34251Y-51102D02*
X36141Y-51102D01*
X33877Y-51476D02*
X34251Y-51102D01*
X37716Y-53937D02*
X37716Y-54488D01*
X36003Y-56200D02*
X37716Y-54488D01*
X36003Y-56200D02*
X33582Y-56200D01*
X45118Y-53385D02*
X46692Y-53385D01*
X42598Y-50866D02*
X45118Y-53385D01*
X40078Y-51102D02*
X40078Y-50944D01*
X40078Y-50944D02*
X40157Y-50866D01*
X40157Y-50866D02*
X42598Y-50866D01*
X46775Y-57397D02*
X46771Y-57401D01*
X46775Y-57397D02*
X47627Y-57397D01*
X47624Y-57401D02*
X47627Y-57397D01*
X47637Y-57387D02*
X47627Y-57397D01*
X39291Y-50155D02*
X39447Y-50000D01*
X39291Y-50629D02*
X39291Y-50155D01*
X44881Y-52440D02*
X46692Y-52440D01*
X42440Y-50000D02*
X44881Y-52440D01*
X39447Y-50000D02*
X42440Y-50000D01*
X46799Y-58397D02*
X46771Y-58425D01*
X46799Y-58397D02*
X47627Y-58397D01*
X57480Y-62283D02*
X57480Y-62677D01*
X57637Y-62834D02*
X57637Y-64566D01*
X57480Y-62677D02*
X57637Y-62834D01*
X57122Y-65891D02*
X57122Y-65082D01*
X57122Y-65082D02*
X57637Y-64566D01*
X56850Y-62283D02*
X53149Y-62283D01*
X40078Y-53622D02*
X40078Y-53464D01*
X46377Y-59921D02*
X40078Y-53622D01*
X50787Y-59921D02*
X46377Y-59921D01*
X53149Y-62283D02*
X50787Y-59921D01*
X52933Y-64055D02*
X52933Y-63523D01*
X57122Y-63106D02*
X57122Y-63903D01*
X56771Y-62755D02*
X57122Y-63106D01*
X53700Y-62755D02*
X56771Y-62755D01*
X52933Y-63523D02*
X53700Y-62755D01*
X52933Y-65078D02*
X56023Y-65078D01*
X56122Y-65177D02*
X56122Y-65891D01*
X56023Y-65078D02*
X56122Y-65177D01*
X38267Y-56535D02*
X39763Y-56535D01*
X38188Y-53937D02*
X38188Y-54724D01*
X37874Y-56141D02*
X38267Y-56535D01*
X37874Y-55039D02*
X37874Y-56141D01*
X38188Y-54724D02*
X37874Y-55039D01*
X48307Y-65078D02*
X52263Y-65078D01*
X39763Y-56535D02*
X48307Y-65078D01*
X40708Y-56062D02*
X40708Y-54881D01*
X39763Y-53937D02*
X39606Y-53937D01*
X40708Y-54881D02*
X39763Y-53937D01*
X52263Y-64055D02*
X48700Y-64055D01*
X48700Y-64055D02*
X40708Y-56062D01*
X39605Y-53937D02*
X39606Y-53937D01*
X63385Y-62598D02*
X63385Y-62913D01*
X64122Y-65066D02*
X64122Y-65891D01*
X63622Y-64566D02*
X64122Y-65066D01*
X63622Y-63149D02*
X63622Y-64566D01*
X63385Y-62913D02*
X63622Y-63149D01*
X40078Y-53307D02*
X40472Y-53307D01*
X62992Y-61968D02*
X62362Y-61338D01*
X62992Y-61968D02*
X63385Y-61968D01*
X52834Y-61338D02*
X62362Y-61338D01*
X50472Y-58976D02*
X52834Y-61338D01*
X46141Y-58976D02*
X50472Y-58976D01*
X40472Y-53307D02*
X46141Y-58976D01*
X64094Y-62598D02*
X64094Y-63875D01*
X64094Y-63875D02*
X64122Y-63903D01*
X40078Y-53149D02*
X40551Y-53149D01*
X64094Y-61653D02*
X63543Y-61102D01*
X64094Y-61653D02*
X64094Y-61968D01*
X53070Y-61102D02*
X63543Y-61102D01*
X50788Y-58819D02*
X53070Y-61102D01*
X46221Y-58819D02*
X50788Y-58819D01*
X40551Y-53149D02*
X46221Y-58819D01*
X52933Y-64409D02*
X53307Y-64409D01*
X55122Y-63153D02*
X55122Y-63903D01*
X54960Y-62992D02*
X55122Y-63153D01*
X53779Y-62992D02*
X54960Y-62992D01*
X53543Y-63228D02*
X53779Y-62992D01*
X53543Y-64173D02*
X53543Y-63228D01*
X53307Y-64409D02*
X53543Y-64173D01*
X52263Y-64409D02*
X48582Y-64409D01*
X39448Y-54330D02*
X39448Y-53937D01*
X40393Y-55275D02*
X39448Y-54330D01*
X40393Y-56220D02*
X40393Y-55275D01*
X48582Y-64409D02*
X40393Y-56220D01*
X52933Y-64724D02*
X56023Y-64724D01*
X56122Y-64625D02*
X56122Y-63903D01*
X56023Y-64724D02*
X56122Y-64625D01*
X38740Y-56377D02*
X40078Y-56377D01*
X38503Y-56141D02*
X38740Y-56377D01*
X38503Y-53937D02*
X38503Y-56141D01*
X48425Y-64724D02*
X52263Y-64724D01*
X40078Y-56377D02*
X48425Y-64724D01*
X46062Y-58425D02*
X46377Y-58425D01*
X65122Y-63903D02*
X65122Y-62287D01*
X65122Y-62287D02*
X62677Y-59842D01*
X40629Y-52992D02*
X40078Y-52992D01*
X40629Y-52992D02*
X46062Y-58425D01*
X52755Y-59842D02*
X62677Y-59842D01*
X52362Y-59448D02*
X52755Y-59842D01*
X29872Y-43986D02*
X29921Y-43937D01*
X50468Y-60397D02*
X49616Y-60397D01*
X50468Y-60397D02*
X50472Y-60393D01*
X29921Y-43937D02*
X29921Y-43622D01*
X25177Y-45826D02*
X26299Y-45826D01*
X25177Y-45826D02*
X25167Y-45816D01*
X48759Y-56397D02*
X48740Y-56377D01*
X49616Y-56397D02*
X48759Y-56397D01*
X49616Y-57397D02*
X48744Y-57397D01*
X48744Y-57397D02*
X48740Y-57401D01*
X25177Y-45039D02*
X26299Y-45039D01*
X25177Y-45039D02*
X25167Y-45029D01*
X25177Y-46614D02*
X26299Y-46614D01*
X25177Y-46614D02*
X25167Y-46604D01*
X48767Y-58397D02*
X48740Y-58425D01*
X49616Y-58397D02*
X48767Y-58397D01*
X25177Y-47007D02*
X26299Y-47007D01*
X25177Y-47007D02*
X25167Y-46998D01*
X48476Y-59397D02*
X48503Y-59370D01*
X47627Y-59397D02*
X48476Y-59397D01*
X49616Y-59397D02*
X50444Y-59397D01*
X50444Y-59397D02*
X50472Y-59370D01*
X25177Y-44251D02*
X26299Y-44251D01*
X25177Y-44251D02*
X25167Y-44242D01*
X47627Y-60397D02*
X48500Y-60397D01*
X48500Y-60397D02*
X48503Y-60393D01*
X25177Y-44645D02*
X26299Y-44645D01*
X25177Y-44645D02*
X25167Y-44635D01*
X38661Y-50629D02*
X38661Y-49842D01*
X39448Y-49055D02*
X51338Y-49055D01*
X38661Y-49842D02*
X39448Y-49055D01*
X60944Y-50629D02*
X54960Y-50629D01*
X53307Y-51023D02*
X51338Y-49055D01*
X54566Y-51023D02*
X53307Y-51023D01*
X54960Y-50629D02*
X54566Y-51023D01*
X64017Y-51082D02*
X61397Y-51082D01*
X61397Y-51082D02*
X60944Y-50629D01*
X40078Y-52834D02*
X40708Y-52834D01*
X52933Y-60492D02*
X59490Y-60492D01*
X50472Y-58031D02*
X52933Y-60492D01*
X45905Y-58031D02*
X50472Y-58031D01*
X40708Y-52834D02*
X45905Y-58031D01*
X39488Y-48779D02*
X55647Y-48779D01*
X55647Y-48779D02*
X56651Y-47775D01*
X38503Y-50629D02*
X38503Y-49763D01*
X38503Y-49763D02*
X39488Y-48779D01*
X38818Y-50629D02*
X38818Y-49921D01*
X51141Y-49330D02*
X39409Y-49330D01*
X53070Y-51259D02*
X51141Y-49330D01*
X54724Y-51259D02*
X53070Y-51259D01*
X55118Y-50866D02*
X54724Y-51259D01*
X59959Y-50866D02*
X55118Y-50866D01*
X59959Y-50866D02*
X60648Y-51555D01*
X38818Y-49921D02*
X39409Y-49330D01*
X38976Y-50629D02*
X38976Y-50000D01*
X52894Y-51555D02*
X50944Y-49606D01*
X50944Y-49606D02*
X39370Y-49606D01*
X52894Y-51555D02*
X55492Y-51555D01*
X38976Y-50000D02*
X39370Y-49606D01*
X44566Y-51889D02*
X50472Y-51889D01*
X50472Y-51889D02*
X52086Y-53503D01*
X58507Y-54570D02*
X57440Y-53503D01*
X57440Y-53503D02*
X52086Y-53503D01*
X39133Y-50629D02*
X39133Y-50629D01*
X39133Y-50078D02*
X39133Y-50629D01*
X39370Y-49841D02*
X39133Y-50078D01*
X42518Y-49841D02*
X39370Y-49841D01*
X44566Y-51889D02*
X42518Y-49841D01*
X40078Y-52362D02*
X40944Y-52362D01*
X51730Y-56791D02*
X52124Y-57185D01*
X45374Y-56791D02*
X51730Y-56791D01*
X40944Y-52362D02*
X45374Y-56791D01*
X40078Y-52361D02*
X40078Y-52362D01*
X40078Y-52362D02*
X40078Y-52362D01*
X64566Y-53779D02*
X65185Y-54397D01*
X50551Y-50629D02*
X43700Y-50629D01*
X52795Y-52874D02*
X50551Y-50629D01*
X58070Y-52874D02*
X52795Y-52874D01*
X58976Y-53779D02*
X58070Y-52874D01*
X58976Y-53779D02*
X64566Y-53779D01*
X65185Y-54397D02*
X66627Y-54397D01*
X37244Y-50629D02*
X36929Y-50629D01*
X36555Y-50688D02*
X33582Y-50688D01*
X36771Y-50472D02*
X36555Y-50688D01*
X36929Y-50629D02*
X36771Y-50472D01*
X66627Y-53397D02*
X66561Y-53464D01*
X50708Y-50314D02*
X43385Y-50314D01*
X52951Y-52558D02*
X50708Y-50314D01*
X58148Y-52558D02*
X52951Y-52558D01*
X59055Y-53464D02*
X58148Y-52558D01*
X66561Y-53464D02*
X59055Y-53464D01*
X37401Y-50629D02*
X37401Y-50236D01*
X36200Y-50492D02*
X33582Y-50492D01*
X36535Y-50157D02*
X36200Y-50492D01*
X37322Y-50157D02*
X36535Y-50157D01*
X37401Y-50236D02*
X37322Y-50157D01*
X65633Y-55397D02*
X64330Y-54094D01*
X64330Y-54094D02*
X58897Y-54094D01*
X58897Y-54094D02*
X57992Y-53188D01*
X57992Y-53188D02*
X52637Y-53188D01*
X52637Y-53188D02*
X50393Y-50944D01*
X50393Y-50944D02*
X44015Y-50944D01*
X65633Y-55397D02*
X66627Y-55397D01*
X36771Y-51102D02*
X36771Y-50866D01*
X36515Y-50885D02*
X33582Y-50885D01*
X36535Y-50866D02*
X36515Y-50885D01*
X36771Y-50866D02*
X36535Y-50866D01*
X60114Y-52397D02*
X59960Y-52244D01*
X59960Y-52244D02*
X53110Y-52244D01*
X53110Y-52244D02*
X50866Y-50000D01*
X50866Y-50000D02*
X43070Y-50000D01*
X60114Y-52397D02*
X66627Y-52397D01*
X37559Y-50629D02*
X37559Y-50157D01*
X36003Y-50295D02*
X33582Y-50295D01*
X36456Y-49842D02*
X36003Y-50295D01*
X36771Y-49842D02*
X36456Y-49842D01*
X37244Y-49842D02*
X36771Y-49842D01*
X37559Y-50157D02*
X37244Y-49842D01*
G54D56*
X67874Y-65354D02*
X67874Y-64173D01*
X67874Y-64173D02*
X68621Y-63425D01*
X43956Y-62992D02*
X44803Y-62992D01*
X44803Y-62992D02*
X48602Y-66791D01*
X68621Y-62598D02*
X68621Y-63425D01*
X67874Y-65354D02*
X66437Y-66791D01*
X66437Y-66791D02*
X48602Y-66791D01*
X68616Y-61397D02*
X68616Y-62592D01*
X68616Y-62592D02*
X68621Y-62598D01*
X27263Y-48129D02*
X27125Y-48267D01*
X27263Y-49311D02*
X27263Y-48129D01*
X27263Y-50492D02*
X27263Y-49311D01*
X27263Y-51673D02*
X27263Y-50492D01*
X27263Y-52854D02*
X27263Y-51673D01*
X25866Y-48267D02*
X24685Y-48267D01*
X27125Y-48267D02*
X25866Y-48267D01*
G54D57*
X42125Y-39862D02*
X42303Y-39685D01*
X32854Y-39685D02*
X34862Y-39685D01*
X34862Y-39685D02*
X35039Y-39862D01*
G54D56*
X44488Y-39862D02*
X45669Y-39862D01*
X45669Y-39862D02*
X46850Y-39862D01*
X46850Y-39862D02*
X48031Y-39862D01*
X48031Y-39862D02*
X48031Y-41043D01*
X48031Y-41043D02*
X48031Y-41535D01*
X48031Y-41535D02*
X48425Y-41929D01*
X48425Y-41929D02*
X49015Y-42519D01*
X49015Y-42519D02*
X49606Y-42519D01*
X49606Y-42519D02*
X50196Y-42519D01*
X50196Y-42519D02*
X50688Y-42027D01*
X50688Y-42027D02*
X51181Y-41535D01*
X51181Y-41535D02*
X51181Y-41043D01*
X51181Y-41043D02*
X51181Y-39862D01*
X51181Y-39862D02*
X52362Y-39862D01*
X52362Y-39862D02*
X53543Y-39862D01*
X53543Y-39862D02*
X54724Y-39862D01*
X54724Y-39862D02*
X55905Y-39862D01*
X55905Y-39862D02*
X57086Y-39862D01*
X57086Y-39862D02*
X58267Y-39862D01*
X58267Y-39862D02*
X59448Y-39862D01*
X59448Y-39862D02*
X60629Y-39862D01*
X60629Y-39862D02*
X61811Y-39862D01*
X61811Y-39862D02*
X62992Y-39862D01*
X62992Y-39862D02*
X64173Y-39862D01*
X64173Y-39862D02*
X65354Y-39862D01*
X65354Y-39862D02*
X66535Y-39862D01*
X66535Y-39862D02*
X67716Y-39862D01*
X67716Y-41043D02*
X67716Y-39862D01*
X67716Y-41535D02*
X67716Y-41043D01*
X68208Y-42027D02*
X67716Y-41535D01*
X68700Y-42519D02*
X68208Y-42027D01*
X69192Y-42519D02*
X68700Y-42519D01*
X70374Y-42519D02*
X69192Y-42519D01*
X24704Y-42519D02*
X24114Y-43110D01*
X24114Y-43110D02*
X24114Y-44291D01*
X24114Y-44291D02*
X24114Y-45472D01*
X24114Y-45472D02*
X24114Y-46653D01*
X25787Y-42519D02*
X25196Y-42519D01*
X26279Y-42027D02*
X25787Y-42519D01*
X26771Y-41535D02*
X26279Y-42027D01*
X26771Y-41043D02*
X26771Y-41535D01*
X26771Y-39862D02*
X26771Y-41043D01*
X25196Y-42519D02*
X24704Y-42519D01*
X25196Y-40944D02*
X26279Y-39862D01*
X26279Y-39862D02*
X26771Y-39862D01*
X27952Y-39862D02*
X26771Y-39862D01*
X27952Y-39862D02*
X29133Y-39862D01*
X29133Y-39862D02*
X30314Y-39862D01*
X30314Y-39862D02*
X31496Y-39862D01*
X31496Y-39862D02*
X32677Y-39862D01*
X35039Y-39862D02*
X36220Y-39862D01*
X36220Y-39862D02*
X37401Y-39862D01*
X40944Y-39862D02*
X42125Y-39862D01*
X39763Y-39862D02*
X40944Y-39862D01*
X38582Y-39862D02*
X39763Y-39862D01*
X37401Y-39862D02*
X38582Y-39862D01*
G54D57*
X32677Y-39862D02*
X32854Y-39685D01*
X44311Y-39685D02*
X44488Y-39862D01*
X42303Y-39685D02*
X44311Y-39685D01*
G54D56*
X70374Y-42519D02*
X70374Y-43700D01*
X70374Y-43700D02*
X70374Y-44881D01*
X69291Y-40944D02*
X70374Y-42027D01*
X70374Y-42027D02*
X70374Y-42519D01*
X26771Y-68405D02*
X26771Y-67224D01*
X24212Y-62401D02*
X24311Y-62303D01*
X24114Y-62500D02*
X24212Y-62401D01*
X24114Y-63385D02*
X24114Y-62500D01*
X24114Y-64566D02*
X24114Y-63385D01*
X24114Y-65748D02*
X24114Y-64566D01*
X25295Y-65748D02*
X24114Y-65748D01*
X25787Y-65748D02*
X25295Y-65748D01*
X26279Y-66240D02*
X25787Y-65748D01*
X26771Y-66732D02*
X26279Y-66240D01*
X26771Y-67224D02*
X26771Y-66732D01*
X25196Y-67322D02*
X26279Y-68405D01*
X27952Y-68405D02*
X29133Y-68405D01*
X26771Y-68405D02*
X27952Y-68405D01*
X26279Y-68405D02*
X26771Y-68405D01*
X27263Y-54133D02*
X27263Y-52854D01*
X27263Y-56397D02*
X27263Y-55216D01*
X27263Y-57578D02*
X27263Y-56397D01*
X27263Y-58759D02*
X27263Y-57578D01*
X27263Y-59940D02*
X27263Y-58759D01*
X27263Y-61122D02*
X27263Y-59940D01*
X27263Y-62303D02*
X27263Y-61122D01*
X26279Y-62303D02*
X27263Y-62303D01*
X25098Y-62303D02*
X26279Y-62303D01*
X24311Y-62303D02*
X25098Y-62303D01*
X31102Y-68405D02*
X29921Y-68405D01*
X66535Y-68405D02*
X65354Y-68405D01*
X65354Y-68405D02*
X64173Y-68405D01*
X64173Y-68405D02*
X62992Y-68405D01*
X62992Y-68405D02*
X61811Y-68405D01*
X61811Y-68405D02*
X60629Y-68405D01*
X60629Y-68405D02*
X59448Y-68405D01*
X59448Y-68405D02*
X58267Y-68405D01*
X58267Y-68405D02*
X57086Y-68405D01*
X57086Y-68405D02*
X55905Y-68405D01*
X55905Y-68405D02*
X54724Y-68405D01*
X54724Y-68405D02*
X53543Y-68405D01*
X53543Y-68405D02*
X52362Y-68405D01*
X52362Y-68405D02*
X51181Y-68405D01*
X51181Y-68405D02*
X50000Y-68405D01*
X50000Y-68405D02*
X48818Y-68405D01*
X48818Y-68405D02*
X47637Y-68405D01*
X47637Y-68405D02*
X46456Y-68405D01*
X46456Y-68405D02*
X45275Y-68405D01*
X45275Y-68405D02*
X44094Y-68405D01*
X44094Y-68405D02*
X42913Y-68405D01*
X42913Y-68405D02*
X41732Y-68405D01*
X41732Y-68405D02*
X40551Y-68405D01*
X40551Y-68405D02*
X39370Y-68405D01*
X39370Y-68405D02*
X38188Y-68405D01*
X38188Y-68405D02*
X37007Y-68405D01*
X37007Y-68405D02*
X35826Y-68405D01*
X35826Y-68405D02*
X34645Y-68405D01*
X34645Y-68405D02*
X33464Y-68405D01*
X33464Y-68405D02*
X32283Y-68405D01*
X32283Y-68405D02*
X31102Y-68405D01*
X67716Y-68405D02*
X66535Y-68405D01*
X69291Y-67322D02*
X68208Y-68405D01*
X70374Y-49212D02*
X70374Y-48031D01*
X70374Y-50393D02*
X70374Y-49212D01*
X70374Y-51574D02*
X70374Y-50393D01*
X70374Y-52755D02*
X70374Y-51574D01*
X70374Y-53937D02*
X70374Y-52755D01*
X70374Y-55118D02*
X70374Y-53937D01*
X70374Y-56299D02*
X70374Y-55118D01*
X70374Y-57480D02*
X70374Y-56299D01*
X70374Y-58661D02*
X70374Y-57480D01*
X70374Y-59842D02*
X70374Y-58661D01*
X70374Y-61023D02*
X70374Y-59842D01*
X70374Y-62204D02*
X70374Y-61023D01*
X70374Y-63385D02*
X70374Y-62204D01*
X70374Y-64566D02*
X70374Y-63385D01*
X70374Y-65748D02*
X70374Y-64566D01*
X69192Y-65748D02*
X70374Y-65748D01*
X68700Y-65748D02*
X69192Y-65748D01*
X68208Y-66240D02*
X68700Y-65748D01*
X67716Y-66732D02*
X68208Y-66240D01*
X67716Y-67224D02*
X67716Y-66732D01*
X67716Y-68405D02*
X67716Y-67224D01*
X68208Y-68405D02*
X67716Y-68405D01*
X35059Y-52204D02*
X34763Y-52204D01*
X37834Y-47755D02*
X37401Y-47755D01*
X37834Y-47755D02*
X37952Y-47638D01*
X37952Y-47638D02*
X37952Y-47283D01*
X37834Y-47755D02*
X37952Y-47873D01*
X37952Y-47873D02*
X37952Y-48228D01*
X38267Y-49114D02*
X38287Y-49094D01*
X38287Y-49094D02*
X38582Y-49094D01*
X38267Y-49114D02*
X38267Y-48818D01*
X37795Y-49114D02*
X37795Y-48818D01*
X35079Y-49488D02*
X34645Y-49488D01*
X35079Y-49488D02*
X35196Y-49605D01*
X35196Y-49605D02*
X35196Y-49960D01*
X35079Y-49488D02*
X35196Y-49370D01*
X35196Y-49370D02*
X35196Y-49015D01*
X35079Y-55393D02*
X35196Y-55275D01*
X35196Y-55275D02*
X35196Y-54921D01*
X35079Y-55393D02*
X34645Y-55393D01*
X35079Y-55393D02*
X35196Y-55511D01*
X35196Y-55511D02*
X35196Y-55866D01*
X39921Y-58542D02*
X39921Y-58937D01*
X39921Y-58542D02*
X40039Y-58425D01*
X40039Y-58425D02*
X40393Y-58425D01*
X38779Y-57007D02*
X38976Y-57204D01*
X38976Y-57204D02*
X39173Y-57204D01*
X38779Y-57007D02*
X38976Y-56811D01*
X38976Y-56811D02*
X39173Y-56811D01*
X41909Y-52047D02*
X42204Y-52047D01*
X41909Y-52047D02*
X41889Y-52066D01*
X41889Y-52066D02*
X41889Y-52362D01*
X48268Y-62559D02*
X47834Y-62559D01*
X48268Y-62559D02*
X48385Y-62441D01*
X48385Y-62441D02*
X48385Y-62086D01*
X48268Y-62559D02*
X48385Y-62676D01*
X48385Y-62676D02*
X48385Y-63031D01*
X67913Y-62598D02*
X67480Y-62598D01*
X67913Y-62598D02*
X68031Y-62716D01*
X68031Y-62716D02*
X68031Y-63070D01*
X67913Y-62598D02*
X68031Y-62480D01*
X68031Y-62480D02*
X68031Y-62125D01*
X68616Y-55397D02*
X69444Y-55397D01*
X69444Y-55397D02*
X69448Y-55393D01*
X68616Y-54397D02*
X69437Y-54397D01*
X69437Y-54397D02*
X69448Y-54409D01*
X68616Y-52397D02*
X69444Y-52397D01*
X69444Y-52397D02*
X69448Y-52401D01*
X52795Y-48031D02*
X52362Y-48031D01*
X52795Y-48031D02*
X52913Y-47913D01*
X52913Y-47913D02*
X52913Y-47559D01*
X52775Y-47165D02*
X52755Y-47145D01*
X52755Y-47145D02*
X52755Y-46850D01*
X55728Y-47165D02*
X55669Y-47106D01*
X55669Y-47106D02*
X55669Y-46850D01*
X56929Y-45551D02*
X56811Y-45669D01*
X56811Y-45669D02*
X56456Y-45669D01*
X56929Y-45551D02*
X57046Y-45669D01*
X57046Y-45669D02*
X57401Y-45669D01*
X56929Y-44212D02*
X57046Y-44094D01*
X57046Y-44094D02*
X57401Y-44094D01*
X56929Y-44212D02*
X56811Y-44094D01*
X56811Y-44094D02*
X56456Y-44094D01*
X56082Y-42598D02*
X56062Y-42617D01*
X56062Y-42617D02*
X56062Y-42913D01*
X53976Y-41889D02*
X54409Y-41889D01*
X53976Y-41889D02*
X54094Y-42008D01*
X54094Y-42008D02*
X54094Y-42362D01*
X53484Y-42598D02*
X53779Y-42598D01*
X51771Y-42047D02*
X51653Y-42165D01*
X51653Y-42165D02*
X51653Y-42519D01*
X52263Y-42755D02*
X51968Y-42755D01*
X51771Y-42047D02*
X51889Y-41929D01*
X51889Y-41929D02*
X51889Y-41574D01*
X45196Y-44881D02*
X45275Y-44960D01*
X45275Y-44960D02*
X45590Y-44960D01*
X44488Y-44881D02*
X44409Y-44960D01*
X44409Y-44960D02*
X44094Y-44960D01*
X44488Y-43858D02*
X44409Y-43779D01*
X44409Y-43779D02*
X44094Y-43779D01*
X45196Y-43858D02*
X45275Y-43779D01*
X45275Y-43779D02*
X45590Y-43779D01*
X36141Y-43858D02*
X36220Y-43937D01*
X36220Y-43937D02*
X36535Y-43937D01*
X36141Y-46141D02*
X36141Y-46141D01*
X36141Y-46141D02*
X36535Y-46141D01*
X30354Y-48503D02*
X30236Y-48621D01*
X30236Y-48621D02*
X30236Y-48976D01*
X30354Y-48503D02*
X30787Y-48503D01*
X30354Y-48503D02*
X30236Y-48386D01*
X30236Y-48386D02*
X30236Y-48031D01*
X28602Y-48346D02*
X28582Y-48365D01*
X28582Y-48365D02*
X28582Y-48661D01*
X28602Y-48346D02*
X28582Y-48326D01*
X28582Y-48326D02*
X28582Y-48031D01*
X35118Y-41259D02*
X35039Y-41338D01*
X35039Y-41338D02*
X35039Y-41653D01*
X35118Y-41259D02*
X35511Y-41259D01*
X44173Y-41259D02*
X44566Y-41259D01*
X44173Y-41259D02*
X44094Y-41181D01*
X44094Y-41181D02*
X44094Y-40866D01*
X35118Y-41259D02*
X35039Y-41181D01*
X35039Y-41181D02*
X35039Y-40866D01*
X51259Y-45551D02*
X51142Y-45669D01*
X51142Y-45669D02*
X50787Y-45669D01*
X51259Y-45551D02*
X51377Y-45669D01*
X51377Y-45669D02*
X51732Y-45669D01*
X44173Y-41259D02*
X44094Y-41338D01*
X44094Y-41338D02*
X44094Y-41653D01*
X32421Y-62992D02*
X32421Y-61968D01*
X65039Y-61141D02*
X65039Y-61574D01*
X65039Y-61141D02*
X65157Y-61023D01*
X65157Y-61023D02*
X65511Y-61023D01*
X65039Y-61141D02*
X64921Y-61023D01*
X64921Y-61023D02*
X64566Y-61023D01*
X61456Y-62125D02*
X61338Y-62008D01*
X61338Y-62008D02*
X61338Y-61614D01*
X61456Y-62125D02*
X61889Y-62125D01*
X61456Y-62125D02*
X61338Y-62243D01*
X61338Y-62243D02*
X61338Y-62637D01*
X68503Y-47874D02*
X68503Y-47480D01*
X68503Y-47480D02*
X68503Y-47480D01*
X66929Y-48110D02*
X66535Y-48110D01*
X66929Y-47677D02*
X66929Y-47677D01*
X66929Y-48110D02*
X66929Y-47677D01*
X52126Y-43503D02*
X52125Y-43503D01*
X52431Y-43503D02*
X52126Y-43503D01*
X24694Y-46742D02*
X24685Y-46751D01*
X24694Y-46407D02*
X24694Y-46742D01*
X63385Y-42283D02*
X63385Y-42677D01*
X64094Y-42677D02*
X64094Y-42283D01*
X68616Y-52013D02*
X68622Y-52007D01*
X68616Y-52397D02*
X68616Y-52013D01*
X68616Y-55781D02*
X68616Y-55397D01*
X68616Y-55781D02*
X68622Y-55787D01*
X66929Y-48818D02*
X66929Y-49251D01*
X66929Y-49251D02*
X66929Y-49251D01*
X66929Y-48818D02*
X66535Y-48818D01*
X25167Y-46210D02*
X25521Y-46210D01*
X25521Y-46210D02*
X25531Y-46200D01*
X25167Y-46210D02*
X24970Y-46210D01*
X24970Y-46210D02*
X24822Y-46062D01*
X24822Y-46062D02*
X24704Y-46062D01*
X24694Y-44832D02*
X24704Y-44822D01*
X24704Y-44822D02*
X24704Y-44488D01*
X32362Y-49468D02*
X32362Y-50137D01*
X32834Y-49625D02*
X32834Y-50137D01*
X32834Y-49625D02*
X33188Y-49625D01*
X32834Y-49625D02*
X32834Y-49153D01*
X32834Y-49153D02*
X32893Y-49094D01*
X32362Y-49468D02*
X31850Y-49468D01*
X32362Y-49468D02*
X32362Y-48799D01*
X32834Y-58641D02*
X32834Y-58129D01*
X32362Y-58799D02*
X31850Y-58799D01*
X32362Y-58799D02*
X32362Y-58129D01*
X32362Y-58799D02*
X32362Y-59468D01*
X32834Y-58641D02*
X32834Y-59114D01*
X32834Y-59114D02*
X32893Y-59173D01*
X32834Y-58641D02*
X33188Y-58641D01*
X32421Y-62992D02*
X32421Y-64015D01*
X32421Y-62992D02*
X31574Y-62992D01*
X32421Y-62992D02*
X33267Y-62992D01*
X64094Y-47874D02*
X64094Y-48267D01*
X63385Y-47874D02*
X63385Y-48267D01*
X63385Y-47874D02*
X62992Y-47874D01*
X62992Y-47874D02*
X62992Y-47874D01*
X63385Y-42677D02*
X62992Y-42677D01*
X62992Y-42677D02*
X62992Y-42677D01*
X64094Y-42677D02*
X64488Y-42677D01*
X64488Y-42677D02*
X64488Y-42677D01*
X68503Y-47874D02*
X68503Y-48267D01*
X68503Y-48267D02*
X68503Y-48267D01*
X68503Y-47874D02*
X68110Y-47874D01*
X38661Y-59291D02*
X39055Y-59291D01*
X38582Y-58188D02*
X38582Y-58661D01*
X39113Y-58188D02*
X38582Y-58188D01*
X38582Y-58188D02*
X38582Y-57716D01*
X53543Y-47106D02*
X53543Y-46850D01*
X53602Y-47165D02*
X53543Y-47106D01*
X53198Y-46840D02*
X53188Y-46850D01*
X53198Y-46259D02*
X53198Y-46840D01*
X56062Y-43503D02*
X56062Y-43503D01*
X55757Y-43503D02*
X56062Y-43503D01*
G54D57*
X54222Y-43503D02*
X54222Y-43966D01*
X53966Y-43966D02*
X54094Y-44094D01*
X53966Y-43966D02*
X53966Y-43503D01*
X54222Y-43966D02*
X54094Y-44094D01*
G54D56*
X29852Y-42750D02*
X29847Y-42755D01*
X29847Y-42755D02*
X29448Y-42755D01*
X29852Y-42750D02*
X29842Y-42760D01*
X29842Y-42760D02*
X29842Y-43228D01*
X29872Y-46486D02*
X29842Y-46456D01*
X29842Y-46456D02*
X29842Y-46141D01*
X29852Y-46973D02*
X29842Y-46983D01*
X29842Y-46983D02*
X29842Y-47401D01*
G54D57*
X38425Y-52283D02*
X38425Y-53149D01*
X38425Y-52283D02*
X39291Y-52283D01*
X38425Y-52283D02*
X37559Y-52283D01*
X38425Y-52283D02*
X38425Y-51417D01*
X38425Y-52283D02*
X39291Y-53149D01*
X38425Y-52283D02*
X37559Y-53149D01*
X38425Y-52283D02*
X39291Y-51417D01*
X38425Y-52283D02*
X37559Y-51417D01*
G54D56*
X62122Y-65891D02*
X61718Y-65891D01*
X61718Y-65891D02*
X61712Y-65885D01*
X62122Y-65891D02*
X62533Y-65891D01*
X62533Y-65891D02*
X62539Y-65885D01*
X62122Y-65891D02*
X62122Y-65062D01*
X62122Y-65062D02*
X62125Y-65059D01*
X58122Y-65891D02*
X57722Y-65891D01*
X57722Y-65891D02*
X57716Y-65885D01*
X58122Y-65891D02*
X58537Y-65891D01*
X58537Y-65891D02*
X58543Y-65885D01*
X58122Y-65891D02*
X58122Y-65066D01*
X58122Y-65066D02*
X58129Y-65059D01*
X47627Y-56397D02*
X46791Y-56397D01*
X47627Y-61397D02*
X48464Y-61397D01*
X47627Y-61397D02*
X46791Y-61397D01*
X47627Y-61397D02*
X47627Y-61801D01*
X47627Y-61801D02*
X47637Y-61811D01*
X47627Y-61397D02*
X47627Y-60994D01*
X47627Y-60994D02*
X47637Y-60984D01*
X65122Y-65891D02*
X64710Y-65891D01*
X64710Y-65891D02*
X64704Y-65885D01*
X65122Y-65891D02*
X65525Y-65891D01*
X65525Y-65891D02*
X65531Y-65885D01*
X65122Y-65891D02*
X65122Y-65062D01*
X65122Y-65062D02*
X65118Y-65059D01*
X34566Y-57952D02*
X34960Y-57952D01*
X34960Y-57952D02*
X34960Y-57952D01*
G54D11*
X33582Y-56594D02*
X33897Y-56594D01*
X33897Y-56594D02*
X34035Y-56456D01*
X33582Y-56397D02*
X33129Y-56397D01*
X33582Y-55019D02*
X34035Y-55019D01*
X33582Y-54822D02*
X33129Y-54822D01*
G54D56*
X68616Y-55397D02*
X67799Y-55397D01*
X67799Y-55397D02*
X67795Y-55393D01*
X68616Y-54397D02*
X68616Y-54875D01*
X68616Y-54887D02*
X68616Y-55397D01*
X68622Y-54881D02*
X68616Y-54887D01*
X68616Y-54875D02*
X68622Y-54881D01*
X68616Y-54397D02*
X67807Y-54397D01*
X67807Y-54397D02*
X67795Y-54409D01*
X68616Y-54397D02*
X68616Y-54021D01*
X68616Y-54021D02*
X68622Y-54015D01*
X68616Y-52397D02*
X68616Y-52789D01*
X68616Y-52789D02*
X68622Y-52795D01*
X68616Y-52397D02*
X67799Y-52397D01*
X67799Y-52397D02*
X67795Y-52401D01*
G54D11*
X33582Y-51279D02*
X33248Y-51279D01*
X33248Y-51279D02*
X33129Y-51397D01*
X33582Y-57972D02*
X34035Y-57972D01*
X33582Y-57578D02*
X34035Y-57578D01*
X33582Y-55807D02*
X34035Y-55807D01*
X33582Y-55413D02*
X34035Y-55413D01*
X33582Y-56003D02*
X33129Y-56003D01*
X33582Y-55610D02*
X33129Y-55610D01*
X33582Y-55216D02*
X33129Y-55216D01*
G54D56*
X38188Y-55767D02*
X38188Y-56062D01*
X38818Y-55767D02*
X38818Y-56062D01*
G54D57*
X49724Y-47874D02*
X49015Y-47874D01*
X49015Y-47874D02*
X49015Y-47874D01*
X50452Y-47933D02*
X49783Y-47933D01*
X49783Y-47933D02*
X49724Y-47874D01*
X51968Y-47932D02*
X50452Y-47932D01*
X50452Y-47932D02*
X50452Y-47933D01*
G54D56*
X45196Y-45511D02*
X44488Y-45511D01*
X45196Y-45511D02*
X45196Y-46220D01*
X45196Y-46220D02*
X45196Y-46220D01*
X45196Y-45511D02*
X46318Y-45511D01*
X46318Y-45511D02*
X46318Y-45511D01*
X45196Y-43228D02*
X45196Y-42519D01*
X45196Y-42519D02*
X45196Y-42519D01*
X45196Y-43228D02*
X44488Y-43228D01*
X45196Y-43228D02*
X46318Y-43228D01*
X46318Y-43228D02*
X46318Y-43228D01*
X64094Y-47244D02*
X64488Y-47244D01*
X64488Y-47244D02*
X64803Y-47559D01*
X64803Y-47559D02*
X64803Y-47874D01*
X64094Y-47244D02*
X63385Y-47244D01*
X63385Y-47244D02*
X61948Y-47244D01*
X61948Y-47244D02*
X61948Y-47244D01*
X64803Y-43307D02*
X64094Y-43307D01*
X64094Y-43307D02*
X64094Y-43307D01*
X64094Y-43307D02*
X63385Y-43307D01*
X63385Y-43307D02*
X61948Y-43307D01*
X61948Y-43307D02*
X61948Y-43307D01*
X36141Y-42519D02*
X36141Y-43228D01*
X36141Y-43228D02*
X36141Y-43228D01*
X36141Y-43228D02*
X37263Y-43228D01*
X37263Y-43228D02*
X37263Y-43228D01*
X36141Y-45511D02*
X36141Y-45511D01*
X36141Y-45511D02*
X35433Y-45511D01*
X37263Y-45511D02*
X37263Y-45511D01*
X37263Y-45511D02*
X36141Y-45511D01*
X36141Y-45511D02*
X36141Y-45511D01*
X37263Y-45511D02*
X37263Y-45511D01*
X55196Y-42598D02*
X55196Y-42204D01*
X55196Y-42204D02*
X56299Y-41102D01*
X56299Y-41102D02*
X56515Y-41102D01*
X55905Y-40551D02*
X57244Y-40551D01*
X55137Y-41102D02*
X55354Y-41102D01*
X55905Y-40551D02*
X55354Y-41102D01*
X57901Y-41208D02*
X57901Y-42677D01*
X57244Y-40551D02*
X57901Y-41208D01*
X60708Y-42834D02*
X60708Y-44330D01*
X60708Y-42834D02*
X60551Y-42677D01*
X60551Y-42677D02*
X57901Y-42677D01*
X67559Y-48110D02*
X67559Y-47165D01*
X60708Y-44330D02*
X62165Y-45787D01*
X62165Y-45787D02*
X66181Y-45787D01*
X66181Y-45787D02*
X67559Y-47165D01*
X67559Y-47165D02*
X67559Y-47165D01*
X68267Y-48818D02*
X67559Y-48818D01*
X67559Y-48818D02*
X67559Y-48110D01*
X57913Y-42665D02*
X57901Y-42677D01*
X55137Y-41102D02*
X54015Y-41102D01*
G54D57*
X38051Y-58562D02*
X38051Y-59271D01*
X38051Y-59271D02*
X38031Y-59291D01*
G54D11*
X33582Y-57775D02*
X33208Y-57775D01*
X33661Y-58661D02*
X34015Y-58661D01*
X33110Y-58110D02*
X33661Y-58661D01*
X33110Y-57874D02*
X33110Y-58110D01*
X33208Y-57775D02*
X33110Y-57874D01*
G54D56*
X43188Y-40314D02*
X43188Y-40905D01*
X43188Y-40905D02*
X43543Y-41259D01*
X34133Y-40314D02*
X34133Y-40905D01*
X34133Y-40905D02*
X34488Y-41259D01*
X44566Y-46220D02*
X43543Y-46220D01*
X43543Y-46220D02*
X43543Y-46220D01*
X43543Y-45590D02*
X43543Y-44370D01*
X43543Y-44370D02*
X43188Y-44015D01*
X44566Y-42519D02*
X41417Y-42519D01*
X40787Y-43149D02*
X40000Y-43149D01*
X41417Y-42519D02*
X40787Y-43149D01*
X40000Y-42519D02*
X40000Y-41377D01*
X40000Y-41377D02*
X40275Y-41102D01*
X65433Y-47874D02*
X65433Y-46692D01*
X65433Y-46692D02*
X65472Y-46653D01*
X68425Y-43740D02*
X66259Y-43740D01*
X65826Y-43307D02*
X66259Y-43740D01*
X65826Y-43307D02*
X65433Y-43307D01*
X69133Y-47874D02*
X69133Y-46692D01*
X69133Y-46692D02*
X69173Y-46653D01*
X35433Y-43858D02*
X34291Y-43858D01*
X34291Y-43858D02*
X34133Y-44015D01*
X35433Y-43228D02*
X35433Y-42598D01*
X35433Y-42598D02*
X35511Y-42519D01*
X31220Y-41102D02*
X31417Y-41299D01*
X31338Y-42519D02*
X30944Y-42519D01*
X31417Y-42440D02*
X31338Y-42519D01*
X31417Y-41299D02*
X31417Y-42440D01*
X34803Y-45511D02*
X33937Y-45511D01*
X31338Y-43149D02*
X31732Y-43543D01*
X31732Y-43543D02*
X31732Y-43937D01*
X31732Y-43937D02*
X32204Y-44409D01*
X32204Y-44409D02*
X32834Y-44409D01*
X31338Y-43149D02*
X30944Y-43149D01*
X33937Y-45511D02*
X32834Y-44409D01*
X70275Y-46653D02*
X69921Y-47007D01*
X69921Y-48110D02*
X69212Y-48818D01*
X69212Y-48818D02*
X68897Y-48818D01*
X69921Y-47007D02*
X69921Y-48110D01*
X34645Y-58661D02*
X35374Y-58661D01*
G54D10*
G36*
X70673Y-67303D02*
X70564Y-67850D01*
X70517Y-67920D01*
X70517Y-67108D01*
X70341Y-66655D01*
X70309Y-66607D01*
X70164Y-66477D01*
X70136Y-66505D01*
X70136Y-66449D01*
X70006Y-66304D01*
X69562Y-66108D01*
X69077Y-66097D01*
X68624Y-66272D01*
X68575Y-66304D01*
X68446Y-66449D01*
X68546Y-66549D01*
X68681Y-66684D01*
X68708Y-66712D01*
X68708Y-66712D01*
X68843Y-66847D01*
X69291Y-67294D01*
X69738Y-66847D01*
X69738Y-66847D01*
X69873Y-66712D01*
X69901Y-66684D01*
X70036Y-66549D01*
X70136Y-66449D01*
X70136Y-66505D01*
X70064Y-66577D01*
X69929Y-66712D01*
X69901Y-66740D01*
X69766Y-66875D01*
X69319Y-67322D01*
X69766Y-67770D01*
X69901Y-67905D01*
X69929Y-67933D01*
X69929Y-67933D01*
X70064Y-68067D01*
X70164Y-68167D01*
X70309Y-68038D01*
X70505Y-67594D01*
X70517Y-67108D01*
X70517Y-67920D01*
X70265Y-68297D01*
X70136Y-68383D01*
X70136Y-68195D01*
X70036Y-68095D01*
X69901Y-67960D01*
X69901Y-67960D01*
X69873Y-67933D01*
X69738Y-67798D01*
X69291Y-67350D01*
X69263Y-67378D01*
X69263Y-67322D01*
X68815Y-66875D01*
X68681Y-66740D01*
X68681Y-66740D01*
X68653Y-66712D01*
X68518Y-66577D01*
X68418Y-66477D01*
X68273Y-66607D01*
X68076Y-67051D01*
X68065Y-67536D01*
X68240Y-67989D01*
X68273Y-68038D01*
X68418Y-68167D01*
X68518Y-68067D01*
X68518Y-68067D01*
X68653Y-67933D01*
X68681Y-67905D01*
X68815Y-67770D01*
X69263Y-67322D01*
X69263Y-67378D01*
X68843Y-67798D01*
X68708Y-67933D01*
X68681Y-67960D01*
X68546Y-68095D01*
X68446Y-68195D01*
X68575Y-68341D01*
X69020Y-68537D01*
X69505Y-68548D01*
X69958Y-68373D01*
X70006Y-68341D01*
X70136Y-68195D01*
X70136Y-68383D01*
X69818Y-68595D01*
X69272Y-68704D01*
X26422Y-68704D01*
X26422Y-67108D01*
X26247Y-66655D01*
X26215Y-66607D01*
X26069Y-66477D01*
X26041Y-66505D01*
X26041Y-66449D01*
X25912Y-66304D01*
X25468Y-66108D01*
X24982Y-66097D01*
X24529Y-66272D01*
X24481Y-66304D01*
X24351Y-66449D01*
X24451Y-66549D01*
X24586Y-66684D01*
X24614Y-66712D01*
X24749Y-66847D01*
X25196Y-67294D01*
X25644Y-66847D01*
X25644Y-66847D01*
X25779Y-66712D01*
X25807Y-66684D01*
X25941Y-66549D01*
X26041Y-66449D01*
X26041Y-66505D01*
X25969Y-66577D01*
X25834Y-66712D01*
X25807Y-66740D01*
X25672Y-66875D01*
X25224Y-67322D01*
X25672Y-67770D01*
X25807Y-67905D01*
X25834Y-67933D01*
X25969Y-68067D01*
X26069Y-68167D01*
X26215Y-68038D01*
X26411Y-67594D01*
X26422Y-67108D01*
X26422Y-68704D01*
X26041Y-68704D01*
X26041Y-68195D01*
X25941Y-68095D01*
X25807Y-67960D01*
X25779Y-67933D01*
X25644Y-67798D01*
X25196Y-67350D01*
X25169Y-67378D01*
X25169Y-67322D01*
X24721Y-66875D01*
X24586Y-66740D01*
X24558Y-66712D01*
X24423Y-66577D01*
X24324Y-66477D01*
X24178Y-66607D01*
X23982Y-67051D01*
X23971Y-67536D01*
X24146Y-67989D01*
X24178Y-68038D01*
X24324Y-68167D01*
X24423Y-68067D01*
X24423Y-68067D01*
X24558Y-67933D01*
X24586Y-67905D01*
X24721Y-67770D01*
X25169Y-67322D01*
X25169Y-67378D01*
X24749Y-67798D01*
X24614Y-67933D01*
X24586Y-67960D01*
X24451Y-68095D01*
X24351Y-68195D01*
X24481Y-68341D01*
X24925Y-68537D01*
X25410Y-68548D01*
X25863Y-68373D01*
X25912Y-68341D01*
X26041Y-68195D01*
X26041Y-68704D01*
X25215Y-68704D01*
X24669Y-68595D01*
X24222Y-68297D01*
X23923Y-67850D01*
X23815Y-67303D01*
X23815Y-62617D01*
X23863Y-62372D01*
X23991Y-62180D01*
X24183Y-62052D01*
X24428Y-62004D01*
X26377Y-62004D01*
X26396Y-62000D01*
X26415Y-62000D01*
X26566Y-61970D01*
X26566Y-61970D01*
X26635Y-61941D01*
X26635Y-61941D01*
X26763Y-61856D01*
X26763Y-61856D01*
X26763Y-61856D01*
X26816Y-61802D01*
X26816Y-61802D01*
X26902Y-61675D01*
X26931Y-61605D01*
X26931Y-61605D01*
X26961Y-61454D01*
X26961Y-61435D01*
X26964Y-61417D01*
X26964Y-49015D01*
X26961Y-48997D01*
X26961Y-48978D01*
X26931Y-48827D01*
X26931Y-48827D01*
X26902Y-48757D01*
X26870Y-48709D01*
X26870Y-48028D01*
X26870Y-47971D01*
X26840Y-47941D01*
X25860Y-47941D01*
X25860Y-48093D01*
X25889Y-48123D01*
X26728Y-48123D01*
X26775Y-48123D01*
X26818Y-48105D01*
X26852Y-48071D01*
X26870Y-48028D01*
X26870Y-48709D01*
X26816Y-48630D01*
X26816Y-48630D01*
X26763Y-48576D01*
X26763Y-48576D01*
X26635Y-48491D01*
X26566Y-48462D01*
X26566Y-48462D01*
X26415Y-48432D01*
X26396Y-48432D01*
X26377Y-48428D01*
X25820Y-48428D01*
X25820Y-48093D01*
X25820Y-47941D01*
X24840Y-47941D01*
X24811Y-47971D01*
X24811Y-48028D01*
X24829Y-48071D01*
X24862Y-48105D01*
X24905Y-48123D01*
X24952Y-48123D01*
X25791Y-48123D01*
X25820Y-48093D01*
X25820Y-48428D01*
X24428Y-48428D01*
X24183Y-48380D01*
X23991Y-48252D01*
X23863Y-48060D01*
X23835Y-47918D01*
X23854Y-47926D01*
X23901Y-47926D01*
X24055Y-47926D01*
X24084Y-47896D01*
X24084Y-47681D01*
X24076Y-47681D01*
X24076Y-47641D01*
X24084Y-47641D01*
X24084Y-47426D01*
X24055Y-47396D01*
X23901Y-47396D01*
X23854Y-47396D01*
X23815Y-47412D01*
X23815Y-42801D01*
X23830Y-42816D01*
X23874Y-42834D01*
X23921Y-42834D01*
X24025Y-42834D01*
X24055Y-42805D01*
X24055Y-42549D01*
X24047Y-42549D01*
X24047Y-42509D01*
X24055Y-42509D01*
X24055Y-42253D01*
X24025Y-42224D01*
X23921Y-42224D01*
X23874Y-42224D01*
X23830Y-42242D01*
X23815Y-42257D01*
X23815Y-40963D01*
X23923Y-40417D01*
X24222Y-39970D01*
X24669Y-39671D01*
X25215Y-39563D01*
X69272Y-39563D01*
X69818Y-39671D01*
X70265Y-39970D01*
X70564Y-40417D01*
X70673Y-40963D01*
X70673Y-45984D01*
X70517Y-45984D01*
X70517Y-40730D01*
X70341Y-40277D01*
X70309Y-40229D01*
X70164Y-40099D01*
X70136Y-40127D01*
X70136Y-40072D01*
X70006Y-39926D01*
X69562Y-39730D01*
X69077Y-39719D01*
X68624Y-39894D01*
X68575Y-39926D01*
X68446Y-40072D01*
X68546Y-40171D01*
X68681Y-40306D01*
X68708Y-40334D01*
X68843Y-40469D01*
X69291Y-40917D01*
X69738Y-40469D01*
X69873Y-40334D01*
X69901Y-40306D01*
X70036Y-40171D01*
X70136Y-40072D01*
X70136Y-40127D01*
X70064Y-40199D01*
X69929Y-40334D01*
X69901Y-40362D01*
X69766Y-40497D01*
X69319Y-40944D01*
X69766Y-41392D01*
X69901Y-41527D01*
X69929Y-41555D01*
X70064Y-41689D01*
X70164Y-41789D01*
X70309Y-41660D01*
X70505Y-41216D01*
X70517Y-40730D01*
X70517Y-45984D01*
X70157Y-45984D01*
X70157Y-42834D01*
X70136Y-42834D01*
X70136Y-41817D01*
X70036Y-41717D01*
X69901Y-41582D01*
X69873Y-41555D01*
X69738Y-41420D01*
X69291Y-40972D01*
X69263Y-41000D01*
X69263Y-40944D01*
X68815Y-40497D01*
X68681Y-40362D01*
X68653Y-40334D01*
X68518Y-40199D01*
X68418Y-40099D01*
X68273Y-40229D01*
X68076Y-40673D01*
X68065Y-41158D01*
X68240Y-41611D01*
X68273Y-41660D01*
X68418Y-41789D01*
X68518Y-41689D01*
X68653Y-41555D01*
X68681Y-41527D01*
X68815Y-41392D01*
X69263Y-40944D01*
X69263Y-41000D01*
X68843Y-41420D01*
X68708Y-41555D01*
X68681Y-41582D01*
X68546Y-41717D01*
X68446Y-41817D01*
X68575Y-41963D01*
X69020Y-42159D01*
X69505Y-42170D01*
X69958Y-41995D01*
X70006Y-41963D01*
X70136Y-41817D01*
X70136Y-42834D01*
X68536Y-42834D01*
X67401Y-41699D01*
X67401Y-41653D01*
X67401Y-40078D01*
X51496Y-40078D01*
X51496Y-41654D01*
X51478Y-41661D01*
X51445Y-41694D01*
X51427Y-41738D01*
X51427Y-41768D01*
X50832Y-42363D01*
X50832Y-40730D01*
X50656Y-40277D01*
X50624Y-40229D01*
X50479Y-40099D01*
X50451Y-40127D01*
X50451Y-40072D01*
X50321Y-39926D01*
X49877Y-39730D01*
X49392Y-39719D01*
X48939Y-39894D01*
X48890Y-39926D01*
X48761Y-40072D01*
X48861Y-40171D01*
X48861Y-40171D01*
X48996Y-40306D01*
X49023Y-40334D01*
X49158Y-40469D01*
X49606Y-40917D01*
X50053Y-40469D01*
X50188Y-40334D01*
X50216Y-40306D01*
X50351Y-40171D01*
X50451Y-40072D01*
X50451Y-40127D01*
X50379Y-40199D01*
X50244Y-40334D01*
X50216Y-40362D01*
X50081Y-40497D01*
X49634Y-40944D01*
X50081Y-41392D01*
X50081Y-41392D01*
X50216Y-41527D01*
X50244Y-41555D01*
X50379Y-41689D01*
X50479Y-41789D01*
X50624Y-41660D01*
X50820Y-41216D01*
X50832Y-40730D01*
X50832Y-42363D01*
X50451Y-42744D01*
X50451Y-41817D01*
X50351Y-41717D01*
X50216Y-41582D01*
X50188Y-41555D01*
X50053Y-41420D01*
X50053Y-41420D01*
X49606Y-40972D01*
X49578Y-41000D01*
X49578Y-40944D01*
X49130Y-40497D01*
X48996Y-40362D01*
X48968Y-40334D01*
X48833Y-40199D01*
X48833Y-40199D01*
X48733Y-40099D01*
X48588Y-40229D01*
X48391Y-40673D01*
X48380Y-41158D01*
X48555Y-41611D01*
X48588Y-41660D01*
X48733Y-41789D01*
X48833Y-41689D01*
X48968Y-41555D01*
X48996Y-41527D01*
X49130Y-41392D01*
X49578Y-40944D01*
X49578Y-41000D01*
X49158Y-41420D01*
X49023Y-41555D01*
X48996Y-41582D01*
X48861Y-41717D01*
X48761Y-41817D01*
X48890Y-41963D01*
X49334Y-42159D01*
X49820Y-42170D01*
X50273Y-41995D01*
X50321Y-41963D01*
X50451Y-41817D01*
X50451Y-42744D01*
X50361Y-42834D01*
X48851Y-42834D01*
X47716Y-41699D01*
X47716Y-40078D01*
X43858Y-40078D01*
X43858Y-39858D01*
X43840Y-39814D01*
X43807Y-39781D01*
X43763Y-39763D01*
X43716Y-39763D01*
X42614Y-39763D01*
X42570Y-39781D01*
X42537Y-39814D01*
X42519Y-39858D01*
X42519Y-39905D01*
X42519Y-40078D01*
X34803Y-40078D01*
X34803Y-39858D01*
X34785Y-39814D01*
X34751Y-39781D01*
X34708Y-39763D01*
X34661Y-39763D01*
X33559Y-39763D01*
X33515Y-39781D01*
X33482Y-39814D01*
X33464Y-39858D01*
X33464Y-39905D01*
X33464Y-40078D01*
X27086Y-40078D01*
X27086Y-41699D01*
X26422Y-42363D01*
X26422Y-40730D01*
X26247Y-40277D01*
X26215Y-40229D01*
X26069Y-40099D01*
X26041Y-40127D01*
X26041Y-40072D01*
X25912Y-39926D01*
X25468Y-39730D01*
X24982Y-39719D01*
X24529Y-39894D01*
X24481Y-39926D01*
X24351Y-40072D01*
X24451Y-40171D01*
X24451Y-40171D01*
X24586Y-40306D01*
X24614Y-40334D01*
X24749Y-40469D01*
X25196Y-40917D01*
X25644Y-40469D01*
X25779Y-40334D01*
X25807Y-40306D01*
X25941Y-40171D01*
X26041Y-40072D01*
X26041Y-40127D01*
X25969Y-40199D01*
X25834Y-40334D01*
X25807Y-40362D01*
X25672Y-40497D01*
X25224Y-40944D01*
X25672Y-41392D01*
X25672Y-41392D01*
X25807Y-41527D01*
X25834Y-41555D01*
X25969Y-41689D01*
X26069Y-41789D01*
X26215Y-41660D01*
X26411Y-41216D01*
X26422Y-40730D01*
X26422Y-42363D01*
X26041Y-42744D01*
X26041Y-41817D01*
X25941Y-41717D01*
X25807Y-41582D01*
X25779Y-41555D01*
X25644Y-41420D01*
X25644Y-41420D01*
X25196Y-40972D01*
X25169Y-41000D01*
X25169Y-40944D01*
X24721Y-40497D01*
X24586Y-40362D01*
X24558Y-40334D01*
X24423Y-40199D01*
X24423Y-40199D01*
X24324Y-40099D01*
X24178Y-40229D01*
X23982Y-40673D01*
X23971Y-41158D01*
X24146Y-41611D01*
X24178Y-41660D01*
X24324Y-41789D01*
X24423Y-41689D01*
X24558Y-41555D01*
X24586Y-41527D01*
X24721Y-41392D01*
X25169Y-40944D01*
X25169Y-41000D01*
X24749Y-41420D01*
X24614Y-41555D01*
X24586Y-41582D01*
X24451Y-41717D01*
X24351Y-41817D01*
X24481Y-41963D01*
X24925Y-42159D01*
X25410Y-42170D01*
X25863Y-41995D01*
X25912Y-41963D01*
X26041Y-41817D01*
X26041Y-42744D01*
X25951Y-42834D01*
X24370Y-42834D01*
X24370Y-42740D01*
X24370Y-42578D01*
X24370Y-42480D01*
X24370Y-42319D01*
X24352Y-42275D01*
X24318Y-42242D01*
X24275Y-42224D01*
X24228Y-42224D01*
X24124Y-42224D01*
X24094Y-42253D01*
X24094Y-42509D01*
X24340Y-42509D01*
X24370Y-42480D01*
X24370Y-42578D01*
X24340Y-42549D01*
X24094Y-42549D01*
X24094Y-42805D01*
X24124Y-42834D01*
X24228Y-42834D01*
X24275Y-42834D01*
X24318Y-42816D01*
X24352Y-42783D01*
X24370Y-42740D01*
X24370Y-42834D01*
X24330Y-42834D01*
X24330Y-47396D01*
X24307Y-47396D01*
X24153Y-47396D01*
X24124Y-47426D01*
X24124Y-47641D01*
X24131Y-47641D01*
X24131Y-47681D01*
X24124Y-47681D01*
X24124Y-47896D01*
X24153Y-47926D01*
X24307Y-47926D01*
X24354Y-47926D01*
X24397Y-47908D01*
X24430Y-47874D01*
X24431Y-47874D01*
X24812Y-47874D01*
X24840Y-47902D01*
X25820Y-47902D01*
X25820Y-47894D01*
X25860Y-47894D01*
X25860Y-47902D01*
X26840Y-47902D01*
X26869Y-47874D01*
X27480Y-47874D01*
X27480Y-62519D01*
X24330Y-62519D01*
X24330Y-65433D01*
X25951Y-65433D01*
X27086Y-66568D01*
X27086Y-68188D01*
X67401Y-68188D01*
X67401Y-66568D01*
X68536Y-65433D01*
X70157Y-65433D01*
X70157Y-47322D01*
X70673Y-47322D01*
X70673Y-67303D01*
X70673Y-67303D01*
G37*
G54D57*
X70673Y-67303D02*
X70564Y-67850D01*
X70517Y-67920D01*
X70517Y-67108D01*
X70341Y-66655D01*
X70309Y-66607D01*
X70164Y-66477D01*
X70136Y-66505D01*
X70136Y-66449D01*
X70006Y-66304D01*
X69562Y-66108D01*
X69077Y-66097D01*
X68624Y-66272D01*
X68575Y-66304D01*
X68446Y-66449D01*
X68546Y-66549D01*
X68681Y-66684D01*
X68708Y-66712D01*
X68708Y-66712D01*
X68843Y-66847D01*
X69291Y-67294D01*
X69738Y-66847D01*
X69738Y-66847D01*
X69873Y-66712D01*
X69901Y-66684D01*
X70036Y-66549D01*
X70136Y-66449D01*
X70136Y-66505D01*
X70064Y-66577D01*
X69929Y-66712D01*
X69901Y-66740D01*
X69766Y-66875D01*
X69319Y-67322D01*
X69766Y-67770D01*
X69901Y-67905D01*
X69929Y-67933D01*
X69929Y-67933D01*
X70064Y-68067D01*
X70164Y-68167D01*
X70309Y-68038D01*
X70505Y-67594D01*
X70517Y-67108D01*
X70517Y-67920D01*
X70265Y-68297D01*
X70136Y-68383D01*
X70136Y-68195D01*
X70036Y-68095D01*
X69901Y-67960D01*
X69901Y-67960D01*
X69873Y-67933D01*
X69738Y-67798D01*
X69291Y-67350D01*
X69263Y-67378D01*
X69263Y-67322D01*
X68815Y-66875D01*
X68681Y-66740D01*
X68681Y-66740D01*
X68653Y-66712D01*
X68518Y-66577D01*
X68418Y-66477D01*
X68273Y-66607D01*
X68076Y-67051D01*
X68065Y-67536D01*
X68240Y-67989D01*
X68273Y-68038D01*
X68418Y-68167D01*
X68518Y-68067D01*
X68518Y-68067D01*
X68653Y-67933D01*
X68681Y-67905D01*
X68815Y-67770D01*
X69263Y-67322D01*
X69263Y-67378D01*
X68843Y-67798D01*
X68708Y-67933D01*
X68681Y-67960D01*
X68546Y-68095D01*
X68446Y-68195D01*
X68575Y-68341D01*
X69020Y-68537D01*
X69505Y-68548D01*
X69958Y-68373D01*
X70006Y-68341D01*
X70136Y-68195D01*
X70136Y-68383D01*
X69818Y-68595D01*
X69272Y-68704D01*
X26422Y-68704D01*
X26422Y-67108D01*
X26247Y-66655D01*
X26215Y-66607D01*
X26069Y-66477D01*
X26041Y-66505D01*
X26041Y-66449D01*
X25912Y-66304D01*
X25468Y-66108D01*
X24982Y-66097D01*
X24529Y-66272D01*
X24481Y-66304D01*
X24351Y-66449D01*
X24451Y-66549D01*
X24586Y-66684D01*
X24614Y-66712D01*
X24749Y-66847D01*
X25196Y-67294D01*
X25644Y-66847D01*
X25644Y-66847D01*
X25779Y-66712D01*
X25807Y-66684D01*
X25941Y-66549D01*
X26041Y-66449D01*
X26041Y-66505D01*
X25969Y-66577D01*
X25834Y-66712D01*
X25807Y-66740D01*
X25672Y-66875D01*
X25224Y-67322D01*
X25672Y-67770D01*
X25807Y-67905D01*
X25834Y-67933D01*
X25969Y-68067D01*
X26069Y-68167D01*
X26215Y-68038D01*
X26411Y-67594D01*
X26422Y-67108D01*
X26422Y-68704D01*
X26041Y-68704D01*
X26041Y-68195D01*
X25941Y-68095D01*
X25807Y-67960D01*
X25779Y-67933D01*
X25644Y-67798D01*
X25196Y-67350D01*
X25169Y-67378D01*
X25169Y-67322D01*
X24721Y-66875D01*
X24586Y-66740D01*
X24558Y-66712D01*
X24423Y-66577D01*
X24324Y-66477D01*
X24178Y-66607D01*
X23982Y-67051D01*
X23971Y-67536D01*
X24146Y-67989D01*
X24178Y-68038D01*
X24324Y-68167D01*
X24423Y-68067D01*
X24423Y-68067D01*
X24558Y-67933D01*
X24586Y-67905D01*
X24721Y-67770D01*
X25169Y-67322D01*
X25169Y-67378D01*
X24749Y-67798D01*
X24614Y-67933D01*
X24586Y-67960D01*
X24451Y-68095D01*
X24351Y-68195D01*
X24481Y-68341D01*
X24925Y-68537D01*
X25410Y-68548D01*
X25863Y-68373D01*
X25912Y-68341D01*
X26041Y-68195D01*
X26041Y-68704D01*
X25215Y-68704D01*
X24669Y-68595D01*
X24222Y-68297D01*
X23923Y-67850D01*
X23815Y-67303D01*
X23815Y-62617D01*
X23863Y-62372D01*
X23991Y-62180D01*
X24183Y-62052D01*
X24428Y-62004D01*
X26377Y-62004D01*
X26396Y-62000D01*
X26415Y-62000D01*
X26566Y-61970D01*
X26566Y-61970D01*
X26635Y-61941D01*
X26635Y-61941D01*
X26763Y-61856D01*
X26763Y-61856D01*
X26763Y-61856D01*
X26816Y-61802D01*
X26816Y-61802D01*
X26902Y-61675D01*
X26931Y-61605D01*
X26931Y-61605D01*
X26961Y-61454D01*
X26961Y-61435D01*
X26964Y-61417D01*
X26964Y-49015D01*
X26961Y-48997D01*
X26961Y-48978D01*
X26931Y-48827D01*
X26931Y-48827D01*
X26902Y-48757D01*
X26870Y-48709D01*
X26870Y-48028D01*
X26870Y-47971D01*
X26840Y-47941D01*
X25860Y-47941D01*
X25860Y-48093D01*
X25889Y-48123D01*
X26728Y-48123D01*
X26775Y-48123D01*
X26818Y-48105D01*
X26852Y-48071D01*
X26870Y-48028D01*
X26870Y-48709D01*
X26816Y-48630D01*
X26816Y-48630D01*
X26763Y-48576D01*
X26763Y-48576D01*
X26635Y-48491D01*
X26566Y-48462D01*
X26566Y-48462D01*
X26415Y-48432D01*
X26396Y-48432D01*
X26377Y-48428D01*
X25820Y-48428D01*
X25820Y-48093D01*
X25820Y-47941D01*
X24840Y-47941D01*
X24811Y-47971D01*
X24811Y-48028D01*
X24829Y-48071D01*
X24862Y-48105D01*
X24905Y-48123D01*
X24952Y-48123D01*
X25791Y-48123D01*
X25820Y-48093D01*
X25820Y-48428D01*
X24428Y-48428D01*
X24183Y-48380D01*
X23991Y-48252D01*
X23863Y-48060D01*
X23835Y-47918D01*
X23854Y-47926D01*
X23901Y-47926D01*
X24055Y-47926D01*
X24084Y-47896D01*
X24084Y-47681D01*
X24076Y-47681D01*
X24076Y-47641D01*
X24084Y-47641D01*
X24084Y-47426D01*
X24055Y-47396D01*
X23901Y-47396D01*
X23854Y-47396D01*
X23815Y-47412D01*
X23815Y-42801D01*
X23830Y-42816D01*
X23874Y-42834D01*
X23921Y-42834D01*
X24025Y-42834D01*
X24055Y-42805D01*
X24055Y-42549D01*
X24047Y-42549D01*
X24047Y-42509D01*
X24055Y-42509D01*
X24055Y-42253D01*
X24025Y-42224D01*
X23921Y-42224D01*
X23874Y-42224D01*
X23830Y-42242D01*
X23815Y-42257D01*
X23815Y-40963D01*
X23923Y-40417D01*
X24222Y-39970D01*
X24669Y-39671D01*
X25215Y-39563D01*
X69272Y-39563D01*
X69818Y-39671D01*
X70265Y-39970D01*
X70564Y-40417D01*
X70673Y-40963D01*
X70673Y-45984D01*
X70517Y-45984D01*
X70517Y-40730D01*
X70341Y-40277D01*
X70309Y-40229D01*
X70164Y-40099D01*
X70136Y-40127D01*
X70136Y-40072D01*
X70006Y-39926D01*
X69562Y-39730D01*
X69077Y-39719D01*
X68624Y-39894D01*
X68575Y-39926D01*
X68446Y-40072D01*
X68546Y-40171D01*
X68681Y-40306D01*
X68708Y-40334D01*
X68843Y-40469D01*
X69291Y-40917D01*
X69738Y-40469D01*
X69873Y-40334D01*
X69901Y-40306D01*
X70036Y-40171D01*
X70136Y-40072D01*
X70136Y-40127D01*
X70064Y-40199D01*
X69929Y-40334D01*
X69901Y-40362D01*
X69766Y-40497D01*
X69319Y-40944D01*
X69766Y-41392D01*
X69901Y-41527D01*
X69929Y-41555D01*
X70064Y-41689D01*
X70164Y-41789D01*
X70309Y-41660D01*
X70505Y-41216D01*
X70517Y-40730D01*
X70517Y-45984D01*
X70157Y-45984D01*
X70157Y-42834D01*
X70136Y-42834D01*
X70136Y-41817D01*
X70036Y-41717D01*
X69901Y-41582D01*
X69873Y-41555D01*
X69738Y-41420D01*
X69291Y-40972D01*
X69263Y-41000D01*
X69263Y-40944D01*
X68815Y-40497D01*
X68681Y-40362D01*
X68653Y-40334D01*
X68518Y-40199D01*
X68418Y-40099D01*
X68273Y-40229D01*
X68076Y-40673D01*
X68065Y-41158D01*
X68240Y-41611D01*
X68273Y-41660D01*
X68418Y-41789D01*
X68518Y-41689D01*
X68653Y-41555D01*
X68681Y-41527D01*
X68815Y-41392D01*
X69263Y-40944D01*
X69263Y-41000D01*
X68843Y-41420D01*
X68708Y-41555D01*
X68681Y-41582D01*
X68546Y-41717D01*
X68446Y-41817D01*
X68575Y-41963D01*
X69020Y-42159D01*
X69505Y-42170D01*
X69958Y-41995D01*
X70006Y-41963D01*
X70136Y-41817D01*
X70136Y-42834D01*
X68536Y-42834D01*
X67401Y-41699D01*
X67401Y-41653D01*
X67401Y-40078D01*
X51496Y-40078D01*
X51496Y-41654D01*
X51478Y-41661D01*
X51445Y-41694D01*
X51427Y-41738D01*
X51427Y-41768D01*
X50832Y-42363D01*
X50832Y-40730D01*
X50656Y-40277D01*
X50624Y-40229D01*
X50479Y-40099D01*
X50451Y-40127D01*
X50451Y-40072D01*
X50321Y-39926D01*
X49877Y-39730D01*
X49392Y-39719D01*
X48939Y-39894D01*
X48890Y-39926D01*
X48761Y-40072D01*
X48861Y-40171D01*
X48861Y-40171D01*
X48996Y-40306D01*
X49023Y-40334D01*
X49158Y-40469D01*
X49606Y-40917D01*
X50053Y-40469D01*
X50188Y-40334D01*
X50216Y-40306D01*
X50351Y-40171D01*
X50451Y-40072D01*
X50451Y-40127D01*
X50379Y-40199D01*
X50244Y-40334D01*
X50216Y-40362D01*
X50081Y-40497D01*
X49634Y-40944D01*
X50081Y-41392D01*
X50081Y-41392D01*
X50216Y-41527D01*
X50244Y-41555D01*
X50379Y-41689D01*
X50479Y-41789D01*
X50624Y-41660D01*
X50820Y-41216D01*
X50832Y-40730D01*
X50832Y-42363D01*
X50451Y-42744D01*
X50451Y-41817D01*
X50351Y-41717D01*
X50216Y-41582D01*
X50188Y-41555D01*
X50053Y-41420D01*
X50053Y-41420D01*
X49606Y-40972D01*
X49578Y-41000D01*
X49578Y-40944D01*
X49130Y-40497D01*
X48996Y-40362D01*
X48968Y-40334D01*
X48833Y-40199D01*
X48833Y-40199D01*
X48733Y-40099D01*
X48588Y-40229D01*
X48391Y-40673D01*
X48380Y-41158D01*
X48555Y-41611D01*
X48588Y-41660D01*
X48733Y-41789D01*
X48833Y-41689D01*
X48968Y-41555D01*
X48996Y-41527D01*
X49130Y-41392D01*
X49578Y-40944D01*
X49578Y-41000D01*
X49158Y-41420D01*
X49023Y-41555D01*
X48996Y-41582D01*
X48861Y-41717D01*
X48761Y-41817D01*
X48890Y-41963D01*
X49334Y-42159D01*
X49820Y-42170D01*
X50273Y-41995D01*
X50321Y-41963D01*
X50451Y-41817D01*
X50451Y-42744D01*
X50361Y-42834D01*
X48851Y-42834D01*
X47716Y-41699D01*
X47716Y-40078D01*
X43858Y-40078D01*
X43858Y-39858D01*
X43840Y-39814D01*
X43807Y-39781D01*
X43763Y-39763D01*
X43716Y-39763D01*
X42614Y-39763D01*
X42570Y-39781D01*
X42537Y-39814D01*
X42519Y-39858D01*
X42519Y-39905D01*
X42519Y-40078D01*
X34803Y-40078D01*
X34803Y-39858D01*
X34785Y-39814D01*
X34751Y-39781D01*
X34708Y-39763D01*
X34661Y-39763D01*
X33559Y-39763D01*
X33515Y-39781D01*
X33482Y-39814D01*
X33464Y-39858D01*
X33464Y-39905D01*
X33464Y-40078D01*
X27086Y-40078D01*
X27086Y-41699D01*
X26422Y-42363D01*
X26422Y-40730D01*
X26247Y-40277D01*
X26215Y-40229D01*
X26069Y-40099D01*
X26041Y-40127D01*
X26041Y-40072D01*
X25912Y-39926D01*
X25468Y-39730D01*
X24982Y-39719D01*
X24529Y-39894D01*
X24481Y-39926D01*
X24351Y-40072D01*
X24451Y-40171D01*
X24451Y-40171D01*
X24586Y-40306D01*
X24614Y-40334D01*
X24749Y-40469D01*
X25196Y-40917D01*
X25644Y-40469D01*
X25779Y-40334D01*
X25807Y-40306D01*
X25941Y-40171D01*
X26041Y-40072D01*
X26041Y-40127D01*
X25969Y-40199D01*
X25834Y-40334D01*
X25807Y-40362D01*
X25672Y-40497D01*
X25224Y-40944D01*
X25672Y-41392D01*
X25672Y-41392D01*
X25807Y-41527D01*
X25834Y-41555D01*
X25969Y-41689D01*
X26069Y-41789D01*
X26215Y-41660D01*
X26411Y-41216D01*
X26422Y-40730D01*
X26422Y-42363D01*
X26041Y-42744D01*
X26041Y-41817D01*
X25941Y-41717D01*
X25807Y-41582D01*
X25779Y-41555D01*
X25644Y-41420D01*
X25644Y-41420D01*
X25196Y-40972D01*
X25169Y-41000D01*
X25169Y-40944D01*
X24721Y-40497D01*
X24586Y-40362D01*
X24558Y-40334D01*
X24423Y-40199D01*
X24423Y-40199D01*
X24324Y-40099D01*
X24178Y-40229D01*
X23982Y-40673D01*
X23971Y-41158D01*
X24146Y-41611D01*
X24178Y-41660D01*
X24324Y-41789D01*
X24423Y-41689D01*
X24558Y-41555D01*
X24586Y-41527D01*
X24721Y-41392D01*
X25169Y-40944D01*
X25169Y-41000D01*
X24749Y-41420D01*
X24614Y-41555D01*
X24586Y-41582D01*
X24451Y-41717D01*
X24351Y-41817D01*
X24481Y-41963D01*
X24925Y-42159D01*
X25410Y-42170D01*
X25863Y-41995D01*
X25912Y-41963D01*
X26041Y-41817D01*
X26041Y-42744D01*
X25951Y-42834D01*
X24370Y-42834D01*
X24370Y-42740D01*
X24370Y-42578D01*
X24370Y-42480D01*
X24370Y-42319D01*
X24352Y-42275D01*
X24318Y-42242D01*
X24275Y-42224D01*
X24228Y-42224D01*
X24124Y-42224D01*
X24094Y-42253D01*
X24094Y-42509D01*
X24340Y-42509D01*
X24370Y-42480D01*
X24370Y-42578D01*
X24340Y-42549D01*
X24094Y-42549D01*
X24094Y-42805D01*
X24124Y-42834D01*
X24228Y-42834D01*
X24275Y-42834D01*
X24318Y-42816D01*
X24352Y-42783D01*
X24370Y-42740D01*
X24370Y-42834D01*
X24330Y-42834D01*
X24330Y-47396D01*
X24307Y-47396D01*
X24153Y-47396D01*
X24124Y-47426D01*
X24124Y-47641D01*
X24131Y-47641D01*
X24131Y-47681D01*
X24124Y-47681D01*
X24124Y-47896D01*
X24153Y-47926D01*
X24307Y-47926D01*
X24354Y-47926D01*
X24397Y-47908D01*
X24430Y-47874D01*
X24431Y-47874D01*
X24812Y-47874D01*
X24840Y-47902D01*
X25820Y-47902D01*
X25820Y-47894D01*
X25860Y-47894D01*
X25860Y-47902D01*
X26840Y-47902D01*
X26869Y-47874D01*
X27480Y-47874D01*
X27480Y-62519D01*
X24330Y-62519D01*
X24330Y-65433D01*
X25951Y-65433D01*
X27086Y-66568D01*
X27086Y-68188D01*
X67401Y-68188D01*
X67401Y-66568D01*
X68536Y-65433D01*
X70157Y-65433D01*
X70157Y-47322D01*
X70673Y-47322D01*
X70673Y-67303D01*
M02*
