%FSLAX34Y34*%
G04 Gerber Fmt 3.4, Leading zero omitted, Abs format*
G04 (created by PCBNEW (2014-03-01 BZR 4730)-product) date Tuesday, July 01, 2014 'PMt' 01:30:20 PM*
%MOIN*%
G01*
G70*
G90*
G04 APERTURE LIST*
%ADD10C,0.006000*%
%ADD11C,0.012094*%
%ADD12C,0.220472*%
%ADD13C,0.023622*%
%ADD14C,0.055118*%
%ADD15C,0.082677*%
%ADD16C,0.027500*%
%ADD17C,0.007874*%
%ADD18C,0.015748*%
G04 APERTURE END LIST*
G54D10*
G54D11*
X28436Y-66172D02*
X28098Y-66172D01*
X28267Y-66172D02*
X28267Y-65582D01*
X28211Y-65666D01*
X28155Y-65722D01*
X28098Y-65750D01*
G54D12*
X49606Y-40944D03*
G54D13*
X49606Y-40078D03*
X48740Y-40944D03*
X49606Y-41811D03*
X50472Y-40944D03*
X50216Y-40334D03*
X48996Y-40334D03*
X48996Y-41555D03*
X50216Y-41555D03*
G54D12*
X69291Y-40944D03*
G54D13*
X69291Y-40078D03*
X68425Y-40944D03*
X69291Y-41811D03*
X70157Y-40944D03*
X69901Y-40334D03*
X68681Y-40334D03*
X68681Y-41555D03*
X69901Y-41555D03*
G54D12*
X69291Y-67322D03*
G54D13*
X69291Y-66456D03*
X68425Y-67322D03*
X69291Y-68188D03*
X70157Y-67322D03*
X69901Y-66712D03*
X68681Y-66712D03*
X68681Y-67933D03*
X69901Y-67933D03*
G54D12*
X25196Y-67322D03*
G54D13*
X25196Y-66456D03*
X24330Y-67322D03*
X25196Y-68188D03*
X26062Y-67322D03*
X25807Y-66712D03*
X24586Y-66712D03*
X24586Y-67933D03*
X25807Y-67933D03*
G54D12*
X25196Y-40944D03*
G54D13*
X25196Y-40078D03*
X24330Y-40944D03*
X25196Y-41811D03*
X26062Y-40944D03*
X25807Y-40334D03*
X24586Y-40334D03*
X24586Y-41555D03*
X25807Y-41555D03*
G54D14*
X57901Y-42677D03*
X56901Y-42677D03*
G54D15*
X55492Y-56711D03*
X60648Y-51555D03*
X58507Y-54570D03*
X55492Y-51555D03*
X56651Y-47775D03*
X64017Y-51082D03*
X64401Y-55414D03*
X59490Y-60492D03*
X52124Y-57185D03*
G54D16*
X35669Y-52204D03*
X36220Y-49488D03*
X35669Y-49960D03*
X35669Y-49015D03*
X35669Y-55866D03*
X36220Y-55393D03*
X35669Y-54921D03*
X37677Y-57204D03*
X37677Y-56811D03*
X38188Y-49763D03*
X33129Y-50964D03*
X38188Y-55118D03*
X38818Y-55118D03*
X50452Y-46870D03*
X49724Y-46889D03*
X49330Y-47322D03*
X38976Y-47755D03*
X38425Y-48228D03*
X38425Y-47283D03*
X35866Y-59015D03*
X36299Y-59370D03*
X39133Y-58858D03*
X40393Y-57952D03*
X39921Y-57440D03*
X48858Y-63031D03*
X49409Y-62559D03*
X48858Y-62086D03*
X29763Y-48976D03*
X29763Y-48031D03*
X65039Y-60000D03*
X65511Y-60551D03*
X64566Y-60551D03*
X60275Y-62125D03*
X60866Y-61614D03*
X60866Y-62637D03*
X41259Y-52047D03*
X28228Y-48661D03*
X28228Y-48031D03*
X27913Y-48346D03*
X29212Y-48503D03*
X49606Y-61811D03*
X50472Y-61377D03*
X49606Y-60984D03*
X61535Y-63897D03*
X60708Y-63897D03*
X61141Y-64763D03*
X61102Y-63070D03*
X67795Y-60393D03*
X68622Y-60787D03*
X68622Y-60000D03*
X25511Y-45433D03*
X24803Y-45433D03*
X37795Y-49763D03*
X33129Y-57381D03*
X51968Y-47263D03*
X50964Y-47559D03*
X51358Y-47244D03*
X53937Y-48031D03*
X53385Y-47559D03*
X52362Y-46850D03*
X56062Y-46850D03*
X56456Y-46141D03*
X57401Y-46141D03*
X56456Y-43622D03*
X57401Y-43622D03*
X55669Y-42913D03*
X51732Y-46141D03*
X50787Y-46141D03*
X51259Y-46692D03*
X53976Y-46850D03*
X55511Y-44094D03*
X52125Y-46259D03*
X56062Y-46259D03*
X57913Y-61614D03*
X55118Y-44094D03*
X55236Y-45669D03*
X58464Y-61614D03*
X59645Y-61614D03*
X55236Y-46968D03*
X55236Y-47362D03*
X59094Y-61614D03*
X54763Y-44094D03*
X54645Y-65669D03*
X54251Y-44448D03*
X54645Y-66062D03*
X50511Y-48503D03*
X50511Y-52401D03*
X37559Y-55984D03*
X39212Y-55984D03*
X37559Y-55511D03*
X39212Y-55511D03*
X46692Y-53385D03*
X46771Y-57401D03*
X46692Y-52440D03*
X46771Y-58425D03*
X46377Y-58425D03*
X52362Y-59448D03*
X50472Y-60393D03*
X29921Y-43622D03*
X26299Y-45826D03*
X48740Y-56377D03*
X48740Y-57401D03*
X26299Y-45039D03*
X26299Y-46614D03*
X48740Y-58425D03*
X26299Y-47007D03*
X48503Y-59370D03*
X50472Y-59370D03*
X26299Y-44251D03*
X48503Y-60393D03*
X26299Y-44645D03*
X36771Y-50472D03*
X43700Y-50629D03*
X36535Y-50157D03*
X43385Y-50314D03*
X44015Y-50944D03*
X36771Y-50866D03*
X43070Y-50000D03*
X36771Y-49842D03*
X27263Y-48129D03*
X27263Y-49311D03*
X27263Y-50492D03*
X27263Y-51673D03*
X24685Y-48267D03*
X25866Y-48267D03*
X35039Y-39862D03*
X32677Y-39862D03*
X42125Y-39862D03*
X44488Y-39862D03*
X45669Y-39862D03*
X46850Y-39862D03*
X48031Y-39862D03*
X48031Y-41043D03*
X48425Y-41929D03*
X49606Y-42519D03*
X50688Y-42027D03*
X51181Y-41043D03*
X51181Y-39862D03*
X52362Y-39862D03*
X53543Y-39862D03*
X54724Y-39862D03*
X55905Y-39862D03*
X57086Y-39862D03*
X58267Y-39862D03*
X59448Y-39862D03*
X60629Y-39862D03*
X61811Y-39862D03*
X62992Y-39862D03*
X64173Y-39862D03*
X65354Y-39862D03*
X66535Y-39862D03*
X70374Y-42519D03*
X67716Y-39862D03*
X67716Y-41043D03*
X68208Y-42027D03*
X69192Y-42519D03*
X26771Y-39862D03*
X24114Y-43110D03*
X24114Y-44291D03*
X24114Y-45472D03*
X24114Y-46653D03*
X25196Y-42519D03*
X26279Y-42027D03*
X26771Y-41043D03*
X27952Y-39862D03*
X29133Y-39862D03*
X30314Y-39862D03*
X31496Y-39862D03*
X36220Y-39862D03*
X37401Y-39862D03*
X40944Y-39862D03*
X39763Y-39862D03*
X38582Y-39862D03*
X70374Y-44881D03*
X70374Y-43700D03*
X27263Y-55216D03*
X27263Y-52854D03*
X26771Y-68405D03*
X24212Y-62401D03*
X24114Y-63385D03*
X24114Y-64566D03*
X24114Y-65748D03*
X25295Y-65748D03*
X26279Y-66240D03*
X26771Y-67224D03*
X29133Y-68405D03*
X27952Y-68405D03*
X27263Y-54133D03*
X27263Y-56397D03*
X27263Y-57578D03*
X27263Y-58759D03*
X27263Y-59940D03*
X27263Y-61122D03*
X27263Y-62303D03*
X26279Y-62303D03*
X25098Y-62303D03*
X66535Y-68405D03*
X65354Y-68405D03*
X64173Y-68405D03*
X62992Y-68405D03*
X61811Y-68405D03*
X60629Y-68405D03*
X59448Y-68405D03*
X58267Y-68405D03*
X57086Y-68405D03*
X55905Y-68405D03*
X54724Y-68405D03*
X53543Y-68405D03*
X52362Y-68405D03*
X51181Y-68405D03*
X50000Y-68405D03*
X48818Y-68405D03*
X47637Y-68405D03*
X46456Y-68405D03*
X45275Y-68405D03*
X44094Y-68405D03*
X42913Y-68405D03*
X41732Y-68405D03*
X40551Y-68405D03*
X39370Y-68405D03*
X38188Y-68405D03*
X37007Y-68405D03*
X35826Y-68405D03*
X34645Y-68405D03*
X33464Y-68405D03*
X32283Y-68405D03*
X31102Y-68405D03*
X67716Y-68405D03*
X29921Y-68405D03*
X70374Y-48031D03*
X70374Y-49212D03*
X70374Y-50393D03*
X70374Y-51574D03*
X70374Y-52755D03*
X70374Y-53937D03*
X70374Y-55118D03*
X70374Y-56299D03*
X70374Y-57480D03*
X70374Y-58661D03*
X70374Y-59842D03*
X70374Y-61023D03*
X70374Y-62204D03*
X70374Y-63385D03*
X70374Y-64566D03*
X70374Y-65748D03*
X69192Y-65748D03*
X68208Y-66240D03*
X67716Y-67224D03*
X34763Y-52204D03*
X37401Y-47755D03*
X37952Y-47283D03*
X37952Y-48228D03*
X38582Y-49094D03*
X38267Y-48818D03*
X37795Y-48818D03*
X34645Y-49488D03*
X35196Y-49960D03*
X35196Y-49015D03*
X35196Y-54921D03*
X34645Y-55393D03*
X35196Y-55866D03*
X39921Y-58937D03*
X40393Y-58425D03*
X39173Y-57204D03*
X39173Y-56811D03*
X42204Y-52047D03*
X41889Y-52362D03*
X47834Y-62559D03*
X48385Y-62086D03*
X48385Y-63031D03*
X67480Y-62598D03*
X68031Y-63070D03*
X68031Y-62125D03*
X69448Y-55393D03*
X69448Y-54409D03*
X69448Y-52401D03*
X52362Y-48031D03*
X52913Y-47559D03*
X52755Y-46850D03*
X55669Y-46850D03*
X56456Y-45669D03*
X57401Y-45669D03*
X57401Y-44094D03*
X56456Y-44094D03*
X56062Y-42913D03*
X54409Y-41889D03*
X54094Y-42362D03*
X53779Y-42598D03*
X51653Y-42519D03*
X51968Y-42755D03*
X51889Y-41574D03*
X45590Y-44960D03*
X44094Y-44960D03*
X44094Y-43779D03*
X45590Y-43779D03*
X36535Y-43937D03*
X36535Y-46141D03*
X30236Y-48976D03*
X30787Y-48503D03*
X30236Y-48031D03*
X28582Y-48661D03*
X28582Y-48031D03*
X35039Y-41653D03*
X35511Y-41259D03*
X44566Y-41259D03*
X44094Y-40866D03*
X35039Y-40866D03*
X50787Y-45669D03*
X51732Y-45669D03*
X44094Y-41653D03*
X32421Y-61968D03*
X65039Y-61574D03*
X65511Y-61023D03*
X64566Y-61023D03*
X61338Y-61614D03*
X61889Y-62125D03*
X61338Y-62637D03*
X68503Y-47480D03*
X66535Y-48110D03*
X66929Y-47677D03*
X52125Y-43503D03*
X24685Y-46751D03*
X63385Y-42283D03*
X64094Y-42283D03*
X68622Y-52007D03*
X68622Y-55787D03*
X66929Y-49251D03*
X66535Y-48818D03*
X25531Y-46200D03*
X24704Y-46062D03*
X24704Y-44488D03*
X32362Y-50137D03*
X32834Y-50137D03*
X33188Y-49625D03*
X32893Y-49094D03*
X31850Y-49468D03*
X32362Y-48799D03*
X32834Y-58129D03*
X31850Y-58799D03*
X32362Y-58129D03*
X32362Y-59468D03*
X32893Y-59173D03*
X33188Y-58641D03*
X32421Y-64015D03*
X31574Y-62992D03*
X33267Y-62992D03*
X64094Y-48267D03*
X63385Y-48267D03*
X62992Y-47874D03*
X62992Y-42677D03*
X64488Y-42677D03*
X68503Y-48267D03*
X68110Y-47874D03*
X39055Y-59291D03*
X38582Y-58188D03*
X38582Y-58661D03*
X38582Y-57716D03*
X53543Y-46850D03*
X53188Y-46850D03*
X54094Y-44094D03*
X56062Y-43503D03*
X29448Y-42755D03*
X29842Y-43228D03*
X29842Y-46141D03*
X29842Y-47401D03*
X38425Y-52283D03*
X38425Y-53149D03*
X39291Y-52283D03*
X37559Y-52283D03*
X38425Y-51417D03*
X39291Y-53149D03*
X37559Y-53149D03*
X39291Y-51417D03*
X37559Y-51417D03*
X61712Y-65885D03*
X62539Y-65885D03*
X62125Y-65059D03*
X57716Y-65885D03*
X58543Y-65885D03*
X58129Y-65059D03*
X46791Y-56397D03*
X48464Y-61397D03*
X46791Y-61397D03*
X47637Y-61811D03*
X47637Y-60984D03*
X64704Y-65885D03*
X65531Y-65885D03*
X65118Y-65059D03*
X34960Y-57952D03*
X34035Y-56456D03*
X33129Y-56397D03*
X34035Y-55019D03*
X33129Y-54822D03*
X67795Y-55393D03*
X68622Y-54881D03*
X67795Y-54409D03*
X68622Y-54015D03*
X68622Y-52795D03*
X67795Y-52401D03*
X33129Y-51397D03*
X34035Y-57972D03*
X34035Y-57578D03*
X34035Y-55807D03*
X34035Y-55413D03*
X33129Y-56003D03*
X33129Y-55610D03*
X33129Y-55216D03*
X38188Y-56062D03*
X38818Y-56062D03*
G54D17*
X55118Y-44094D02*
X55118Y-45078D01*
X55118Y-45078D02*
X54685Y-45511D01*
X57913Y-61614D02*
X56220Y-59921D01*
X54685Y-45511D02*
X54685Y-48267D01*
X56220Y-49803D02*
X54685Y-48267D01*
X56220Y-59921D02*
X56220Y-49803D01*
X55236Y-45669D02*
X54921Y-45984D01*
X54921Y-45984D02*
X54921Y-48070D01*
X57401Y-60551D02*
X58464Y-61614D01*
X57401Y-50551D02*
X57401Y-60551D01*
X54921Y-48070D02*
X57401Y-50551D01*
X58464Y-61614D02*
X58464Y-61574D01*
X55236Y-46968D02*
X55748Y-47480D01*
X60314Y-60944D02*
X60314Y-52598D01*
X59645Y-61614D02*
X60314Y-60944D01*
X55748Y-48031D02*
X60314Y-52598D01*
X55748Y-47480D02*
X55748Y-48031D01*
X58661Y-61181D02*
X58661Y-55826D01*
X58661Y-55826D02*
X57637Y-54803D01*
X59094Y-61614D02*
X58661Y-61181D01*
X55236Y-47952D02*
X55236Y-47362D01*
X57637Y-50354D02*
X55236Y-47952D01*
X57637Y-54803D02*
X57637Y-50354D01*
X59094Y-61614D02*
X59094Y-61574D01*
X54448Y-45039D02*
X54448Y-48464D01*
X55236Y-65078D02*
X54645Y-65669D01*
X55236Y-57559D02*
X55236Y-65078D01*
X54685Y-57007D02*
X55236Y-57559D01*
X54685Y-51299D02*
X54685Y-57007D01*
X55314Y-50669D02*
X54685Y-51299D01*
X55314Y-49330D02*
X55314Y-50669D01*
X54448Y-48464D02*
X55314Y-49330D01*
X54763Y-44724D02*
X54448Y-45039D01*
X54763Y-44094D02*
X54763Y-44724D01*
X54291Y-57047D02*
X54291Y-51220D01*
X54251Y-48700D02*
X54251Y-44448D01*
X55000Y-49448D02*
X54251Y-48700D01*
X55000Y-50511D02*
X55000Y-49448D01*
X54291Y-51220D02*
X55000Y-50511D01*
X54645Y-66062D02*
X54330Y-65748D01*
X54291Y-57047D02*
X54960Y-57716D01*
X54960Y-57716D02*
X54960Y-64763D01*
X54960Y-64763D02*
X54330Y-65393D01*
X54330Y-65393D02*
X54330Y-65748D01*
X50511Y-48503D02*
X50511Y-52401D01*
X37795Y-55748D02*
X37559Y-55984D01*
X38976Y-55748D02*
X37795Y-55748D01*
X39212Y-55984D02*
X38976Y-55748D01*
X37559Y-55511D02*
X39212Y-55511D01*
X46771Y-57401D02*
X46377Y-57007D01*
X46377Y-53700D02*
X46692Y-53385D01*
X46377Y-57007D02*
X46377Y-53700D01*
X46771Y-58425D02*
X46062Y-57716D01*
X46062Y-53070D02*
X46692Y-52440D01*
X46062Y-57716D02*
X46062Y-53070D01*
X48267Y-60866D02*
X46377Y-58976D01*
X46377Y-58976D02*
X46377Y-58425D01*
X50944Y-60866D02*
X52362Y-59448D01*
X50236Y-60866D02*
X50944Y-60866D01*
X49763Y-60393D02*
X50236Y-60866D01*
X49370Y-60393D02*
X49763Y-60393D01*
X48897Y-60866D02*
X49370Y-60393D01*
X48267Y-60866D02*
X48897Y-60866D01*
X31259Y-43622D02*
X32047Y-42834D01*
X33385Y-42834D02*
X34173Y-43622D01*
X32047Y-42834D02*
X33385Y-42834D01*
X50787Y-53622D02*
X40787Y-43622D01*
X29921Y-43622D02*
X31259Y-43622D01*
X34173Y-43622D02*
X40787Y-43622D01*
X50787Y-60078D02*
X50787Y-53622D01*
X50472Y-60393D02*
X50787Y-60078D01*
X48740Y-56377D02*
X48740Y-53149D01*
X41417Y-45826D02*
X26299Y-45826D01*
X48740Y-53149D02*
X41417Y-45826D01*
X49055Y-57086D02*
X49055Y-53070D01*
X48740Y-57401D02*
X49055Y-57086D01*
X26299Y-45039D02*
X41023Y-45039D01*
X49055Y-53070D02*
X41023Y-45039D01*
X48740Y-58425D02*
X48425Y-58110D01*
X48425Y-58110D02*
X48425Y-53228D01*
X41811Y-46614D02*
X26299Y-46614D01*
X48425Y-53228D02*
X41811Y-46614D01*
X48110Y-58976D02*
X48110Y-53307D01*
X48503Y-59370D02*
X48110Y-58976D01*
X41811Y-47007D02*
X26299Y-47007D01*
X48110Y-53307D02*
X41811Y-47007D01*
X26299Y-44251D02*
X41023Y-44251D01*
X49685Y-52913D02*
X41023Y-44251D01*
X49685Y-58582D02*
X49685Y-52913D01*
X50472Y-59370D02*
X49685Y-58582D01*
X26299Y-44645D02*
X41023Y-44645D01*
X49370Y-52992D02*
X41023Y-44645D01*
X49370Y-59527D02*
X49370Y-52992D01*
X48503Y-60393D02*
X49370Y-59527D01*
X37244Y-50629D02*
X43700Y-50629D01*
X37086Y-50472D02*
X37244Y-50629D01*
X36771Y-50472D02*
X37086Y-50472D01*
X37401Y-50314D02*
X37244Y-50157D01*
X37244Y-50157D02*
X36535Y-50157D01*
X43385Y-50314D02*
X37401Y-50314D01*
X36771Y-50866D02*
X37007Y-50866D01*
X37086Y-50944D02*
X44015Y-50944D01*
X37007Y-50866D02*
X37086Y-50944D01*
X36771Y-49842D02*
X37401Y-49842D01*
X38425Y-50000D02*
X43070Y-50000D01*
X38346Y-50078D02*
X38425Y-50000D01*
X37637Y-50078D02*
X38346Y-50078D01*
X37401Y-49842D02*
X37637Y-50078D01*
G54D18*
X27263Y-55216D02*
X27263Y-54133D01*
X27263Y-54133D02*
X27263Y-52854D01*
G54D10*
G36*
X70673Y-67303D02*
X70564Y-67850D01*
X70517Y-67920D01*
X70517Y-67108D01*
X70517Y-40730D01*
X70341Y-40277D01*
X70309Y-40229D01*
X70164Y-40099D01*
X70136Y-40127D01*
X70136Y-40072D01*
X70006Y-39926D01*
X69562Y-39730D01*
X69077Y-39719D01*
X68624Y-39894D01*
X68575Y-39926D01*
X68446Y-40072D01*
X68546Y-40171D01*
X68681Y-40306D01*
X68708Y-40334D01*
X68843Y-40469D01*
X69291Y-40917D01*
X69738Y-40469D01*
X69873Y-40334D01*
X69901Y-40306D01*
X70036Y-40171D01*
X70136Y-40072D01*
X70136Y-40127D01*
X70064Y-40199D01*
X69929Y-40334D01*
X69901Y-40362D01*
X69766Y-40497D01*
X69319Y-40944D01*
X69766Y-41392D01*
X69901Y-41527D01*
X69929Y-41555D01*
X70064Y-41689D01*
X70164Y-41789D01*
X70309Y-41660D01*
X70505Y-41216D01*
X70517Y-40730D01*
X70517Y-67108D01*
X70341Y-66655D01*
X70309Y-66607D01*
X70164Y-66477D01*
X70157Y-66484D01*
X70157Y-65433D01*
X70157Y-42834D01*
X70136Y-42834D01*
X70136Y-41817D01*
X70036Y-41717D01*
X69901Y-41582D01*
X69873Y-41555D01*
X69738Y-41420D01*
X69291Y-40972D01*
X69263Y-41000D01*
X69263Y-40944D01*
X68815Y-40497D01*
X68681Y-40362D01*
X68653Y-40334D01*
X68518Y-40199D01*
X68418Y-40099D01*
X68273Y-40229D01*
X68076Y-40673D01*
X68065Y-41158D01*
X68240Y-41611D01*
X68273Y-41660D01*
X68418Y-41789D01*
X68518Y-41689D01*
X68653Y-41555D01*
X68681Y-41527D01*
X68815Y-41392D01*
X69263Y-40944D01*
X69263Y-41000D01*
X68843Y-41420D01*
X68708Y-41555D01*
X68681Y-41582D01*
X68546Y-41717D01*
X68446Y-41817D01*
X68575Y-41963D01*
X69020Y-42159D01*
X69505Y-42170D01*
X69958Y-41995D01*
X70006Y-41963D01*
X70136Y-41817D01*
X70136Y-42834D01*
X68536Y-42834D01*
X67401Y-41699D01*
X67401Y-41653D01*
X67401Y-40078D01*
X51496Y-40078D01*
X51496Y-41699D01*
X50832Y-42363D01*
X50832Y-40730D01*
X50656Y-40277D01*
X50624Y-40229D01*
X50479Y-40099D01*
X50451Y-40127D01*
X50451Y-40072D01*
X50321Y-39926D01*
X49877Y-39730D01*
X49392Y-39719D01*
X48939Y-39894D01*
X48890Y-39926D01*
X48761Y-40072D01*
X48861Y-40171D01*
X48861Y-40171D01*
X48996Y-40306D01*
X49023Y-40334D01*
X49158Y-40469D01*
X49606Y-40917D01*
X50053Y-40469D01*
X50188Y-40334D01*
X50216Y-40306D01*
X50351Y-40171D01*
X50451Y-40072D01*
X50451Y-40127D01*
X50379Y-40199D01*
X50244Y-40334D01*
X50216Y-40362D01*
X50081Y-40497D01*
X49634Y-40944D01*
X50081Y-41392D01*
X50081Y-41392D01*
X50216Y-41527D01*
X50244Y-41555D01*
X50379Y-41689D01*
X50479Y-41789D01*
X50624Y-41660D01*
X50820Y-41216D01*
X50832Y-40730D01*
X50832Y-42363D01*
X50451Y-42744D01*
X50451Y-41817D01*
X50351Y-41717D01*
X50216Y-41582D01*
X50188Y-41555D01*
X50053Y-41420D01*
X50053Y-41420D01*
X49606Y-40972D01*
X49578Y-41000D01*
X49578Y-40944D01*
X49130Y-40497D01*
X48996Y-40362D01*
X48968Y-40334D01*
X48833Y-40199D01*
X48833Y-40199D01*
X48733Y-40099D01*
X48588Y-40229D01*
X48391Y-40673D01*
X48380Y-41158D01*
X48555Y-41611D01*
X48588Y-41660D01*
X48733Y-41789D01*
X48833Y-41689D01*
X48968Y-41555D01*
X48996Y-41527D01*
X49130Y-41392D01*
X49578Y-40944D01*
X49578Y-41000D01*
X49158Y-41420D01*
X49023Y-41555D01*
X48996Y-41582D01*
X48861Y-41717D01*
X48761Y-41817D01*
X48890Y-41963D01*
X49334Y-42159D01*
X49820Y-42170D01*
X50273Y-41995D01*
X50321Y-41963D01*
X50451Y-41817D01*
X50451Y-42744D01*
X50361Y-42834D01*
X48851Y-42834D01*
X47716Y-41699D01*
X47716Y-40078D01*
X27086Y-40078D01*
X27086Y-41699D01*
X26422Y-42363D01*
X26422Y-40730D01*
X26247Y-40277D01*
X26215Y-40229D01*
X26069Y-40099D01*
X26041Y-40127D01*
X26041Y-40072D01*
X25912Y-39926D01*
X25468Y-39730D01*
X24982Y-39719D01*
X24529Y-39894D01*
X24481Y-39926D01*
X24351Y-40072D01*
X24451Y-40171D01*
X24451Y-40171D01*
X24586Y-40306D01*
X24614Y-40334D01*
X24749Y-40469D01*
X25196Y-40917D01*
X25644Y-40469D01*
X25779Y-40334D01*
X25807Y-40306D01*
X25941Y-40171D01*
X26041Y-40072D01*
X26041Y-40127D01*
X25969Y-40199D01*
X25834Y-40334D01*
X25807Y-40362D01*
X25672Y-40497D01*
X25224Y-40944D01*
X25672Y-41392D01*
X25672Y-41392D01*
X25807Y-41527D01*
X25834Y-41555D01*
X25969Y-41689D01*
X26069Y-41789D01*
X26215Y-41660D01*
X26411Y-41216D01*
X26422Y-40730D01*
X26422Y-42363D01*
X26041Y-42744D01*
X26041Y-41817D01*
X25941Y-41717D01*
X25807Y-41582D01*
X25779Y-41555D01*
X25644Y-41420D01*
X25644Y-41420D01*
X25196Y-40972D01*
X25169Y-41000D01*
X25169Y-40944D01*
X24721Y-40497D01*
X24586Y-40362D01*
X24558Y-40334D01*
X24423Y-40199D01*
X24423Y-40199D01*
X24324Y-40099D01*
X24178Y-40229D01*
X23982Y-40673D01*
X23971Y-41158D01*
X24146Y-41611D01*
X24178Y-41660D01*
X24324Y-41789D01*
X24423Y-41689D01*
X24558Y-41555D01*
X24586Y-41527D01*
X24721Y-41392D01*
X25169Y-40944D01*
X25169Y-41000D01*
X24749Y-41420D01*
X24614Y-41555D01*
X24586Y-41582D01*
X24451Y-41717D01*
X24351Y-41817D01*
X24481Y-41963D01*
X24925Y-42159D01*
X25410Y-42170D01*
X25863Y-41995D01*
X25912Y-41963D01*
X26041Y-41817D01*
X26041Y-42744D01*
X25951Y-42834D01*
X24330Y-42834D01*
X24330Y-47874D01*
X27480Y-47874D01*
X27480Y-62519D01*
X24330Y-62519D01*
X24330Y-65433D01*
X25951Y-65433D01*
X27086Y-66568D01*
X27086Y-68188D01*
X67401Y-68188D01*
X67401Y-66568D01*
X68536Y-65433D01*
X70157Y-65433D01*
X70157Y-66484D01*
X70136Y-66505D01*
X70136Y-66449D01*
X70006Y-66304D01*
X69562Y-66108D01*
X69077Y-66097D01*
X68624Y-66272D01*
X68575Y-66304D01*
X68446Y-66449D01*
X68546Y-66549D01*
X68681Y-66684D01*
X68708Y-66712D01*
X68708Y-66712D01*
X68843Y-66847D01*
X69291Y-67294D01*
X69738Y-66847D01*
X69738Y-66847D01*
X69873Y-66712D01*
X69901Y-66684D01*
X70036Y-66549D01*
X70136Y-66449D01*
X70136Y-66505D01*
X70064Y-66577D01*
X69929Y-66712D01*
X69901Y-66740D01*
X69766Y-66875D01*
X69319Y-67322D01*
X69766Y-67770D01*
X69901Y-67905D01*
X69929Y-67933D01*
X69929Y-67933D01*
X70064Y-68067D01*
X70164Y-68167D01*
X70309Y-68038D01*
X70505Y-67594D01*
X70517Y-67108D01*
X70517Y-67920D01*
X70265Y-68297D01*
X70136Y-68383D01*
X70136Y-68195D01*
X70036Y-68095D01*
X69901Y-67960D01*
X69901Y-67960D01*
X69873Y-67933D01*
X69738Y-67798D01*
X69291Y-67350D01*
X69263Y-67378D01*
X69263Y-67322D01*
X68815Y-66875D01*
X68681Y-66740D01*
X68681Y-66740D01*
X68653Y-66712D01*
X68518Y-66577D01*
X68418Y-66477D01*
X68273Y-66607D01*
X68076Y-67051D01*
X68065Y-67536D01*
X68240Y-67989D01*
X68273Y-68038D01*
X68418Y-68167D01*
X68518Y-68067D01*
X68518Y-68067D01*
X68653Y-67933D01*
X68681Y-67905D01*
X68815Y-67770D01*
X69263Y-67322D01*
X69263Y-67378D01*
X68843Y-67798D01*
X68708Y-67933D01*
X68681Y-67960D01*
X68546Y-68095D01*
X68446Y-68195D01*
X68575Y-68341D01*
X69020Y-68537D01*
X69505Y-68548D01*
X69958Y-68373D01*
X70006Y-68341D01*
X70136Y-68195D01*
X70136Y-68383D01*
X69818Y-68595D01*
X69272Y-68704D01*
X26422Y-68704D01*
X26422Y-67108D01*
X26247Y-66655D01*
X26215Y-66607D01*
X26069Y-66477D01*
X26041Y-66505D01*
X26041Y-66449D01*
X25912Y-66304D01*
X25468Y-66108D01*
X24982Y-66097D01*
X24529Y-66272D01*
X24481Y-66304D01*
X24351Y-66449D01*
X24451Y-66549D01*
X24586Y-66684D01*
X24614Y-66712D01*
X24749Y-66847D01*
X25196Y-67294D01*
X25644Y-66847D01*
X25644Y-66847D01*
X25779Y-66712D01*
X25807Y-66684D01*
X25941Y-66549D01*
X26041Y-66449D01*
X26041Y-66505D01*
X25969Y-66577D01*
X25834Y-66712D01*
X25807Y-66740D01*
X25672Y-66875D01*
X25224Y-67322D01*
X25672Y-67770D01*
X25807Y-67905D01*
X25834Y-67933D01*
X25969Y-68067D01*
X26069Y-68167D01*
X26215Y-68038D01*
X26411Y-67594D01*
X26422Y-67108D01*
X26422Y-68704D01*
X26041Y-68704D01*
X26041Y-68195D01*
X25941Y-68095D01*
X25807Y-67960D01*
X25779Y-67933D01*
X25644Y-67798D01*
X25196Y-67350D01*
X25169Y-67378D01*
X25169Y-67322D01*
X24721Y-66875D01*
X24586Y-66740D01*
X24558Y-66712D01*
X24423Y-66577D01*
X24324Y-66477D01*
X24178Y-66607D01*
X23982Y-67051D01*
X23971Y-67536D01*
X24146Y-67989D01*
X24178Y-68038D01*
X24324Y-68167D01*
X24423Y-68067D01*
X24423Y-68067D01*
X24558Y-67933D01*
X24586Y-67905D01*
X24721Y-67770D01*
X25169Y-67322D01*
X25169Y-67378D01*
X24749Y-67798D01*
X24614Y-67933D01*
X24586Y-67960D01*
X24451Y-68095D01*
X24351Y-68195D01*
X24481Y-68341D01*
X24925Y-68537D01*
X25410Y-68548D01*
X25863Y-68373D01*
X25912Y-68341D01*
X26041Y-68195D01*
X26041Y-68704D01*
X25215Y-68704D01*
X24669Y-68595D01*
X24222Y-68297D01*
X23923Y-67850D01*
X23815Y-67303D01*
X23815Y-62617D01*
X23863Y-62372D01*
X23991Y-62180D01*
X24183Y-62052D01*
X24428Y-62004D01*
X26377Y-62004D01*
X26396Y-62000D01*
X26415Y-62000D01*
X26566Y-61970D01*
X26566Y-61970D01*
X26635Y-61941D01*
X26635Y-61941D01*
X26763Y-61856D01*
X26763Y-61856D01*
X26763Y-61856D01*
X26816Y-61802D01*
X26816Y-61802D01*
X26902Y-61675D01*
X26931Y-61605D01*
X26931Y-61605D01*
X26961Y-61454D01*
X26961Y-61435D01*
X26964Y-61417D01*
X26964Y-49015D01*
X26961Y-48997D01*
X26961Y-48978D01*
X26931Y-48827D01*
X26931Y-48827D01*
X26902Y-48757D01*
X26816Y-48630D01*
X26816Y-48630D01*
X26763Y-48576D01*
X26763Y-48576D01*
X26635Y-48491D01*
X26566Y-48462D01*
X26566Y-48462D01*
X26415Y-48432D01*
X26396Y-48432D01*
X26377Y-48428D01*
X24428Y-48428D01*
X24183Y-48380D01*
X23991Y-48252D01*
X23863Y-48060D01*
X23815Y-47815D01*
X23815Y-40963D01*
X23923Y-40417D01*
X24222Y-39970D01*
X24669Y-39671D01*
X25215Y-39563D01*
X69272Y-39563D01*
X69818Y-39671D01*
X70265Y-39970D01*
X70564Y-40417D01*
X70673Y-40963D01*
X70673Y-67303D01*
X70673Y-67303D01*
G37*
G54D17*
X70673Y-67303D02*
X70564Y-67850D01*
X70517Y-67920D01*
X70517Y-67108D01*
X70517Y-40730D01*
X70341Y-40277D01*
X70309Y-40229D01*
X70164Y-40099D01*
X70136Y-40127D01*
X70136Y-40072D01*
X70006Y-39926D01*
X69562Y-39730D01*
X69077Y-39719D01*
X68624Y-39894D01*
X68575Y-39926D01*
X68446Y-40072D01*
X68546Y-40171D01*
X68681Y-40306D01*
X68708Y-40334D01*
X68843Y-40469D01*
X69291Y-40917D01*
X69738Y-40469D01*
X69873Y-40334D01*
X69901Y-40306D01*
X70036Y-40171D01*
X70136Y-40072D01*
X70136Y-40127D01*
X70064Y-40199D01*
X69929Y-40334D01*
X69901Y-40362D01*
X69766Y-40497D01*
X69319Y-40944D01*
X69766Y-41392D01*
X69901Y-41527D01*
X69929Y-41555D01*
X70064Y-41689D01*
X70164Y-41789D01*
X70309Y-41660D01*
X70505Y-41216D01*
X70517Y-40730D01*
X70517Y-67108D01*
X70341Y-66655D01*
X70309Y-66607D01*
X70164Y-66477D01*
X70157Y-66484D01*
X70157Y-65433D01*
X70157Y-42834D01*
X70136Y-42834D01*
X70136Y-41817D01*
X70036Y-41717D01*
X69901Y-41582D01*
X69873Y-41555D01*
X69738Y-41420D01*
X69291Y-40972D01*
X69263Y-41000D01*
X69263Y-40944D01*
X68815Y-40497D01*
X68681Y-40362D01*
X68653Y-40334D01*
X68518Y-40199D01*
X68418Y-40099D01*
X68273Y-40229D01*
X68076Y-40673D01*
X68065Y-41158D01*
X68240Y-41611D01*
X68273Y-41660D01*
X68418Y-41789D01*
X68518Y-41689D01*
X68653Y-41555D01*
X68681Y-41527D01*
X68815Y-41392D01*
X69263Y-40944D01*
X69263Y-41000D01*
X68843Y-41420D01*
X68708Y-41555D01*
X68681Y-41582D01*
X68546Y-41717D01*
X68446Y-41817D01*
X68575Y-41963D01*
X69020Y-42159D01*
X69505Y-42170D01*
X69958Y-41995D01*
X70006Y-41963D01*
X70136Y-41817D01*
X70136Y-42834D01*
X68536Y-42834D01*
X67401Y-41699D01*
X67401Y-41653D01*
X67401Y-40078D01*
X51496Y-40078D01*
X51496Y-41699D01*
X50832Y-42363D01*
X50832Y-40730D01*
X50656Y-40277D01*
X50624Y-40229D01*
X50479Y-40099D01*
X50451Y-40127D01*
X50451Y-40072D01*
X50321Y-39926D01*
X49877Y-39730D01*
X49392Y-39719D01*
X48939Y-39894D01*
X48890Y-39926D01*
X48761Y-40072D01*
X48861Y-40171D01*
X48861Y-40171D01*
X48996Y-40306D01*
X49023Y-40334D01*
X49158Y-40469D01*
X49606Y-40917D01*
X50053Y-40469D01*
X50188Y-40334D01*
X50216Y-40306D01*
X50351Y-40171D01*
X50451Y-40072D01*
X50451Y-40127D01*
X50379Y-40199D01*
X50244Y-40334D01*
X50216Y-40362D01*
X50081Y-40497D01*
X49634Y-40944D01*
X50081Y-41392D01*
X50081Y-41392D01*
X50216Y-41527D01*
X50244Y-41555D01*
X50379Y-41689D01*
X50479Y-41789D01*
X50624Y-41660D01*
X50820Y-41216D01*
X50832Y-40730D01*
X50832Y-42363D01*
X50451Y-42744D01*
X50451Y-41817D01*
X50351Y-41717D01*
X50216Y-41582D01*
X50188Y-41555D01*
X50053Y-41420D01*
X50053Y-41420D01*
X49606Y-40972D01*
X49578Y-41000D01*
X49578Y-40944D01*
X49130Y-40497D01*
X48996Y-40362D01*
X48968Y-40334D01*
X48833Y-40199D01*
X48833Y-40199D01*
X48733Y-40099D01*
X48588Y-40229D01*
X48391Y-40673D01*
X48380Y-41158D01*
X48555Y-41611D01*
X48588Y-41660D01*
X48733Y-41789D01*
X48833Y-41689D01*
X48968Y-41555D01*
X48996Y-41527D01*
X49130Y-41392D01*
X49578Y-40944D01*
X49578Y-41000D01*
X49158Y-41420D01*
X49023Y-41555D01*
X48996Y-41582D01*
X48861Y-41717D01*
X48761Y-41817D01*
X48890Y-41963D01*
X49334Y-42159D01*
X49820Y-42170D01*
X50273Y-41995D01*
X50321Y-41963D01*
X50451Y-41817D01*
X50451Y-42744D01*
X50361Y-42834D01*
X48851Y-42834D01*
X47716Y-41699D01*
X47716Y-40078D01*
X27086Y-40078D01*
X27086Y-41699D01*
X26422Y-42363D01*
X26422Y-40730D01*
X26247Y-40277D01*
X26215Y-40229D01*
X26069Y-40099D01*
X26041Y-40127D01*
X26041Y-40072D01*
X25912Y-39926D01*
X25468Y-39730D01*
X24982Y-39719D01*
X24529Y-39894D01*
X24481Y-39926D01*
X24351Y-40072D01*
X24451Y-40171D01*
X24451Y-40171D01*
X24586Y-40306D01*
X24614Y-40334D01*
X24749Y-40469D01*
X25196Y-40917D01*
X25644Y-40469D01*
X25779Y-40334D01*
X25807Y-40306D01*
X25941Y-40171D01*
X26041Y-40072D01*
X26041Y-40127D01*
X25969Y-40199D01*
X25834Y-40334D01*
X25807Y-40362D01*
X25672Y-40497D01*
X25224Y-40944D01*
X25672Y-41392D01*
X25672Y-41392D01*
X25807Y-41527D01*
X25834Y-41555D01*
X25969Y-41689D01*
X26069Y-41789D01*
X26215Y-41660D01*
X26411Y-41216D01*
X26422Y-40730D01*
X26422Y-42363D01*
X26041Y-42744D01*
X26041Y-41817D01*
X25941Y-41717D01*
X25807Y-41582D01*
X25779Y-41555D01*
X25644Y-41420D01*
X25644Y-41420D01*
X25196Y-40972D01*
X25169Y-41000D01*
X25169Y-40944D01*
X24721Y-40497D01*
X24586Y-40362D01*
X24558Y-40334D01*
X24423Y-40199D01*
X24423Y-40199D01*
X24324Y-40099D01*
X24178Y-40229D01*
X23982Y-40673D01*
X23971Y-41158D01*
X24146Y-41611D01*
X24178Y-41660D01*
X24324Y-41789D01*
X24423Y-41689D01*
X24558Y-41555D01*
X24586Y-41527D01*
X24721Y-41392D01*
X25169Y-40944D01*
X25169Y-41000D01*
X24749Y-41420D01*
X24614Y-41555D01*
X24586Y-41582D01*
X24451Y-41717D01*
X24351Y-41817D01*
X24481Y-41963D01*
X24925Y-42159D01*
X25410Y-42170D01*
X25863Y-41995D01*
X25912Y-41963D01*
X26041Y-41817D01*
X26041Y-42744D01*
X25951Y-42834D01*
X24330Y-42834D01*
X24330Y-47874D01*
X27480Y-47874D01*
X27480Y-62519D01*
X24330Y-62519D01*
X24330Y-65433D01*
X25951Y-65433D01*
X27086Y-66568D01*
X27086Y-68188D01*
X67401Y-68188D01*
X67401Y-66568D01*
X68536Y-65433D01*
X70157Y-65433D01*
X70157Y-66484D01*
X70136Y-66505D01*
X70136Y-66449D01*
X70006Y-66304D01*
X69562Y-66108D01*
X69077Y-66097D01*
X68624Y-66272D01*
X68575Y-66304D01*
X68446Y-66449D01*
X68546Y-66549D01*
X68681Y-66684D01*
X68708Y-66712D01*
X68708Y-66712D01*
X68843Y-66847D01*
X69291Y-67294D01*
X69738Y-66847D01*
X69738Y-66847D01*
X69873Y-66712D01*
X69901Y-66684D01*
X70036Y-66549D01*
X70136Y-66449D01*
X70136Y-66505D01*
X70064Y-66577D01*
X69929Y-66712D01*
X69901Y-66740D01*
X69766Y-66875D01*
X69319Y-67322D01*
X69766Y-67770D01*
X69901Y-67905D01*
X69929Y-67933D01*
X69929Y-67933D01*
X70064Y-68067D01*
X70164Y-68167D01*
X70309Y-68038D01*
X70505Y-67594D01*
X70517Y-67108D01*
X70517Y-67920D01*
X70265Y-68297D01*
X70136Y-68383D01*
X70136Y-68195D01*
X70036Y-68095D01*
X69901Y-67960D01*
X69901Y-67960D01*
X69873Y-67933D01*
X69738Y-67798D01*
X69291Y-67350D01*
X69263Y-67378D01*
X69263Y-67322D01*
X68815Y-66875D01*
X68681Y-66740D01*
X68681Y-66740D01*
X68653Y-66712D01*
X68518Y-66577D01*
X68418Y-66477D01*
X68273Y-66607D01*
X68076Y-67051D01*
X68065Y-67536D01*
X68240Y-67989D01*
X68273Y-68038D01*
X68418Y-68167D01*
X68518Y-68067D01*
X68518Y-68067D01*
X68653Y-67933D01*
X68681Y-67905D01*
X68815Y-67770D01*
X69263Y-67322D01*
X69263Y-67378D01*
X68843Y-67798D01*
X68708Y-67933D01*
X68681Y-67960D01*
X68546Y-68095D01*
X68446Y-68195D01*
X68575Y-68341D01*
X69020Y-68537D01*
X69505Y-68548D01*
X69958Y-68373D01*
X70006Y-68341D01*
X70136Y-68195D01*
X70136Y-68383D01*
X69818Y-68595D01*
X69272Y-68704D01*
X26422Y-68704D01*
X26422Y-67108D01*
X26247Y-66655D01*
X26215Y-66607D01*
X26069Y-66477D01*
X26041Y-66505D01*
X26041Y-66449D01*
X25912Y-66304D01*
X25468Y-66108D01*
X24982Y-66097D01*
X24529Y-66272D01*
X24481Y-66304D01*
X24351Y-66449D01*
X24451Y-66549D01*
X24586Y-66684D01*
X24614Y-66712D01*
X24749Y-66847D01*
X25196Y-67294D01*
X25644Y-66847D01*
X25644Y-66847D01*
X25779Y-66712D01*
X25807Y-66684D01*
X25941Y-66549D01*
X26041Y-66449D01*
X26041Y-66505D01*
X25969Y-66577D01*
X25834Y-66712D01*
X25807Y-66740D01*
X25672Y-66875D01*
X25224Y-67322D01*
X25672Y-67770D01*
X25807Y-67905D01*
X25834Y-67933D01*
X25969Y-68067D01*
X26069Y-68167D01*
X26215Y-68038D01*
X26411Y-67594D01*
X26422Y-67108D01*
X26422Y-68704D01*
X26041Y-68704D01*
X26041Y-68195D01*
X25941Y-68095D01*
X25807Y-67960D01*
X25779Y-67933D01*
X25644Y-67798D01*
X25196Y-67350D01*
X25169Y-67378D01*
X25169Y-67322D01*
X24721Y-66875D01*
X24586Y-66740D01*
X24558Y-66712D01*
X24423Y-66577D01*
X24324Y-66477D01*
X24178Y-66607D01*
X23982Y-67051D01*
X23971Y-67536D01*
X24146Y-67989D01*
X24178Y-68038D01*
X24324Y-68167D01*
X24423Y-68067D01*
X24423Y-68067D01*
X24558Y-67933D01*
X24586Y-67905D01*
X24721Y-67770D01*
X25169Y-67322D01*
X25169Y-67378D01*
X24749Y-67798D01*
X24614Y-67933D01*
X24586Y-67960D01*
X24451Y-68095D01*
X24351Y-68195D01*
X24481Y-68341D01*
X24925Y-68537D01*
X25410Y-68548D01*
X25863Y-68373D01*
X25912Y-68341D01*
X26041Y-68195D01*
X26041Y-68704D01*
X25215Y-68704D01*
X24669Y-68595D01*
X24222Y-68297D01*
X23923Y-67850D01*
X23815Y-67303D01*
X23815Y-62617D01*
X23863Y-62372D01*
X23991Y-62180D01*
X24183Y-62052D01*
X24428Y-62004D01*
X26377Y-62004D01*
X26396Y-62000D01*
X26415Y-62000D01*
X26566Y-61970D01*
X26566Y-61970D01*
X26635Y-61941D01*
X26635Y-61941D01*
X26763Y-61856D01*
X26763Y-61856D01*
X26763Y-61856D01*
X26816Y-61802D01*
X26816Y-61802D01*
X26902Y-61675D01*
X26931Y-61605D01*
X26931Y-61605D01*
X26961Y-61454D01*
X26961Y-61435D01*
X26964Y-61417D01*
X26964Y-49015D01*
X26961Y-48997D01*
X26961Y-48978D01*
X26931Y-48827D01*
X26931Y-48827D01*
X26902Y-48757D01*
X26816Y-48630D01*
X26816Y-48630D01*
X26763Y-48576D01*
X26763Y-48576D01*
X26635Y-48491D01*
X26566Y-48462D01*
X26566Y-48462D01*
X26415Y-48432D01*
X26396Y-48432D01*
X26377Y-48428D01*
X24428Y-48428D01*
X24183Y-48380D01*
X23991Y-48252D01*
X23863Y-48060D01*
X23815Y-47815D01*
X23815Y-40963D01*
X23923Y-40417D01*
X24222Y-39970D01*
X24669Y-39671D01*
X25215Y-39563D01*
X69272Y-39563D01*
X69818Y-39671D01*
X70265Y-39970D01*
X70564Y-40417D01*
X70673Y-40963D01*
X70673Y-67303D01*
M02*
